<?xml version="1.0" standalone="no"?>
<!DOCTYPE svg PUBLIC "-//W3C//DTD SVG 1.1//EN" "http://www.w3.org/Graphics/SVG/1.1/DTD/svg11.dtd" >
<svg xmlns="http://www.w3.org/2000/svg">
<metadata></metadata>
<defs>
<font id="harringtonplain" horiz-adv-x="585" >
<font-face units-per-em="2048" ascent="1638" descent="-410" />
<missing-glyph horiz-adv-x="540" />
<glyph horiz-adv-x="2048" />
<glyph horiz-adv-x="2048" />
<glyph unicode="&#xd;" horiz-adv-x="2048" />
<glyph unicode=" "  horiz-adv-x="540" />
<glyph unicode="&#x09;" horiz-adv-x="540" />
<glyph unicode="&#xa0;" horiz-adv-x="540" />
<glyph unicode="!" horiz-adv-x="420" d="M22 1444h210v-764v-162q12 -20 42 -57t74 -61q-26 -2 -90 -2q-36 0 -91 1t-65 1q0 34 -1 101t-1 101q0 106 2 290t2 257q0 103 -2 149q-2 60 -12 80t-68 66zM88 -70q0 54 43 93t86 39q52 0 91.5 -38t39.5 -94q0 -46 -37 -81t-94 -35q-129 0 -129 116z" />
<glyph unicode="#" horiz-adv-x="1669" d="M152 790q0 39 16 107q10 39 10 67q0 22 -9 35.5t-9 26.5q0 22 10 60h65q35 -58 35 -101q0 -36 -17.5 -54.5t-29.5 -23.5q-10 -19 -17.5 -26t-7.5 -9q0 2 12 -53q18 -98 64 -98q14 0 36 9.5t30 9.5t14 -11q4 -12 58 -36.5t63 -24.5q-4 12 -11.5 38t-7.5 54q0 44 25 57 q33 13 51 13q24 0 36 -19q6 -9 6 -25q0 -8 -3 -47t-3 -71q43 6 72.5 16t49.5 10q6 0 52 -4q4 15 9 29.5t9 30.5q-24 2 -49 4t-49 4q34 31 65 40t78 9q-1 0 -3 -1q-2 -2 -2 -6q0 -19 70 -81v-97q-18 2 -26 14.5t-18.5 38t-20.5 27.5q-22 -8 -31 -33t-10 -41q-72 0 -116 -8 t-48 -16q-2 -50 -6 -125l-4 -75q0 -6 12 -6q5 0 34.5 4t53.5 4q-4 -43 -15 -58.5t-59 -15.5q-8 0 -20 -29t-12 -45q9 -21 28.5 -39.5t28 -30.5t8.5 -40q-2 -16 -21 -40.5t-56.5 -64t-55.5 -65.5t-18 -48q0 -10 4 -16q8 -12 16 -23.5t16 -23.5q-11 -6 -22 -13q-10 -6 -22 -12 q-50 42 -50 72q8 2 20.5 21t12.5 69q0 13 -4 49q-80 -91 -80 -117q0 -10 3.5 -16.5t13 -19t22.5 -31.5q-24 6 -48 11.5t-48 11.5q0 108 15 130.5t47 39.5t32 69q0 24 -5.5 33t-19 22t-20.5 30.5t-7 53.5q0 42 9 94q0 52 -21.5 141.5t-21.5 139.5q0 16 -57 20t-94 26 q-37 21 -37 99zM471 70q8 2 58.5 29t56.5 32q-2 19 -2 51q0 30 -10 48t-46 38q-14 -50 -28 -99t-29 -99zM686 -182q0 4 83 146t198 339t163 281l-48 16l-48 16q-5 58 -10.5 117t-9.5 117q10 0 36 4t80 20q17 -92 146 -92q20 0 36 2t23 4q2 -20 3 -40q2 -22 4 -42 q-98 0 -170 -82q26 -49 64 -122.5t133.5 -257.5t141 -270.5t70.5 -135.5q-16 -8 -31 -16q-14 -8 -30 -16q-34 77 -95.5 213.5l-123 273t-95.5 213.5l16.5 -181.5l21 -231l16.5 -181.5h-42q-9 67 -24.5 186t-31.5 238t-26 186q-44 -80 -120.5 -221t-153.5 -282 q-76 -141 -120 -221q-10 5 -29 12.5t-27 7.5zM842 -381q2 -6 3 -11.5t3 -11.5q42 8 83 17t83 17q-30 24 -61 47t-62 47q28 7 56.5 14t56.5 14l-4 6q0 4 -2 6q-36 -7 -73 -14t-73 -14q26 -24 53 -48q27 -22 53 -46l-58 -12q-28 -6 -58 -11zM1104 -270q13 -30 25.5 -61 t25.5 -62q16 20 33 39q16 18 32 38q18 -20 37 -39t37 -38q14 32 28 64.5t28 64.5q-4 2 -8.5 5t-8.5 5q-11 -24 -22 -47t-23 -47q-20 18 -39 36t-39 36l-26 -40q-12 -18 -25 -38q-12 20 -24.5 39t-24.5 39l-3 3z" />
<glyph unicode="$" horiz-adv-x="893" d="M10 318q0 28 21 74t77 84t152 38q12 0 57 -7t66 -7q35 0 35 14q0 54 -35 74.5t-116 48t-123 67.5t-42 126q0 77 42.5 117.5t126.5 72.5t119 52q36 20 40 68h66q2 -47 31.5 -65.5t92 -36.5t93.5 -41t31 -77q0 -63 -33 -89.5t-80 -32.5t-91 -14q-44 -6 -44 -34 q0 -29 50 -49.5t118 -47.5t112.5 -77t44.5 -140q0 -68 -37.5 -124t-93 -97t-108 -68t-92.5 -49q-12 -10 -16 -49.5t-8.5 -57t-29.5 -21.5q-6 6 -26 52.5t-42 53.5q-28 10 -109 28.5t-130.5 38t-84 61.5t-34.5 114zM76 305q0 -68 81 -111.5t157 -43.5q86 0 86 10q0 4 -4.5 16 t-4.5 24q0 9 2 12.5t2 8.5q0 20 -4 45q-24 -8 -47 -8q-22 0 -49.5 14t-40.5 16q0 21 15.5 24t40 8.5t48.5 37.5q-13 17 -55.5 34.5t-83.5 17.5q-48 0 -95.5 -37t-47.5 -68zM219 880q0 -104 172 -116q19 58 19 148q0 64 -12 100q-88 -12 -133.5 -41t-45.5 -91zM479 377 q1 -50 7 -209q84 41 133 90.5t67 87.5q18 40 18 52q0 92 -202 178q-8 -61 -13.5 -92.5t-7.5 -50.5t-2 -56zM508 994q40 10 49 10q1 0 13 -3t42 -3q0 -29 1 -51.5t1 -24.5q0 -24 -20 -60q-20 -8 -24 -8q-22 0 -32 24t-17 66t-13 50z" />
<glyph unicode="&#x26;" horiz-adv-x="1368" d="M12 700q0 142 53 275t145 236t210 161t244 58q135 0 245.5 -54t110.5 -158q0 -84 -50.5 -108t-119.5 -24q-70 0 -129 30t-84 74q46 -8 98 -8q127 0 127 49q0 28 -30.5 55.5t-84.5 45.5q-55 18 -123 18q-66 0 -146.5 -38.5t-153 -110t-118.5 -173.5t-46 -221 q0 -74 12 -127q71 80 191.5 152t285.5 94q36 4 176.5 15.5t214 25t120 44.5t46.5 87q0 33 -7 43.5t-25 15.5t-27 12q5 66 49 66q8 0 14 -1.5t8 -2.5q68 -1 68 -107q0 -108 -84 -175t-216 -97.5t-286 -36.5q-130 -6 -246 -42.5t-190 -97.5t-78 -133q0 -46 35 -122t101 -152 t164 -126q96 -50 218 -50q84 0 149 25t109 70t65 105.5t21 129.5q0 72 -36 137t-100 103t-144 38q-60 0 -112 -30.5t-83 -82.5t-31 -112q0 -72 43 -117.5t119 -45.5q81 8 146 149q0 -116 -54 -170.5t-132 -54.5q-60 0 -112 30t-83 85t-31 124q0 56 39.5 128t120.5 125 q80 52 196 52q47 0 110.5 -26t124 -76t100 -126t39.5 -171q0 -98 -58 -189.5t-170 -148.5t-264 -57q-186 0 -338.5 94t-239 258t-86.5 362z" />
<glyph unicode="'" horiz-adv-x="372" d="M31 1284q0 36 36.5 77.5t98.5 41.5q131 0 131 -170q0 -93 -40.5 -150t-110.5 -57q-22 0 -48 6q38 24 50 36q10 13 30 44q-28 24 -73 47.5t-59.5 45t-14.5 79.5z" />
<glyph unicode="," horiz-adv-x="381" d="M22 124q0 57 39 101.5t93 44.5q144 0 143 -184q0 -76 -29 -122t-88 -89h-92q16 17 36 30t28 27t8 48q-66 24 -102 55t-36 89z" />
<glyph unicode="-" d="M20 638q14 80 50.5 110t93.5 30q36 0 108.5 -14t104.5 -14q18 0 34 5t46.5 20t34.5 15q0 -80 -44 -120t-110 -40q2 0 -19.5 8t-55 13.5t-79.5 5.5q-80 -1 -164 -19z" />
<glyph unicode="." horiz-adv-x="354" d="M22 133q0 58 38 95q40 36 94 36q72 0 102 -37.5t30 -93.5q0 -54 -41 -93.5t-91 -39.5t-91 40t-41 93z" />
<glyph unicode="0" horiz-adv-x="977" d="M12 580q0 60 15 153t47 181t82 130q-2 -11 -17 -123q-15 -111 -22 -173q0 -122 40.5 -283t129 -277t223.5 -116q94 0 159 68.5t96 170t31 191.5q0 74 -21 197t-67 249.5t-118 211.5t-170 85q-40 0 -79.5 -28.5t-39.5 -61.5q0 -57 78 -57q16 0 41 4v-66q-50 -51 -92 -51 q-46 0 -75.5 38.5t-29.5 92.5q0 41 31.5 80t83.5 64q50 24 106 24q140 0 244.5 -92t158.5 -237t54 -297q0 -158 -53.5 -313t-160.5 -254t-255 -99q-80 0 -180 68t-170 202t-70 318z" />
<glyph unicode="1" horiz-adv-x="438" d="M30 1083q13 1 26.5 7t27.5 6q62 0 86.5 15.5t41.5 50t39.5 53.5t82.5 26v-25q0 -58 -25 -178.5t-40 -231t-15 -286.5q0 -138 20 -238.5t46 -164t26 -59.5q0 -11 -45 -38.5t-86 -27.5q-28 0 -54 98t-26 258q0 102 13.5 210t33.5 217t46 239q-81 0 -106.5 1t-25.5 3 q-46 0 -56 9t-10 56z" />
<glyph unicode="2" horiz-adv-x="866" d="M10 12q49 142 127.5 238t216 232t199 234t61.5 224q0 80 -33 145t-95.5 104t-147.5 39q-52 0 -105 -26t-87 -71t-34 -99q0 -52 29 -91.5t78 -39.5q28 0 42 6.5t28.5 22.5t22.5 22q24 -42 24 -49q0 -3 -6 -5t-6 -10q0 -120 -117 -120q-80 0 -126.5 62.5t-46.5 148.5 q0 68 44.5 136t129 111.5t196.5 43.5q110 0 191 -43.5t123 -121t42 -177.5q0 -129 -76 -234.5t-242 -244t-218 -188t-64 -124.5q19 6 149.5 22.5t462.5 36.5q-34 -127 -66 -190q-3 0 -48.5 16t-110.5 26t-168 10q-92 0 -138.5 -7t-115 -22t-115.5 -17z" />
<glyph unicode="3" horiz-adv-x="940" d="M18 211q0 48 33 83.5t84 35.5q42 0 66.5 -15t35.5 -37t14.5 -44t4.5 -30q-48 10 -78 11q-14 -1 -14 -19q-36 0 -45 -6t-9 -32q0 -22 29 -51t71.5 -48.5t84.5 -19.5q120 0 220 67.5t157 167.5t57 187q0 64 -33.5 128.5t-99.5 106t-156 41.5q-72 0 -90 -6.5t-58 -27.5 t-98 -31q3 40 64 100.5t198.5 184t180.5 175.5h-342q-56 0 -86 -10.5t-52.5 -26.5t-33.5 -16q-19 0 -48.5 42.5t-29.5 62.5q0 18 46.5 36t115.5 31t127 13q56 0 187 -21t128 -21q24 0 52.5 11.5t44.5 11.5q24 -1 63 -23q-40 -42 -112 -116l-144 -148q-73 -74 -113 -116 l6.5 -6.5l5.5 -5.5q28 -10 129 -34t158.5 -52t95 -93t37.5 -178q0 -82 -61.5 -194.5t-187 -195.5t-303.5 -83q-73 0 -142.5 21t-114.5 69t-45 121z" />
<glyph unicode="4" horiz-adv-x="1116" d="M-22 318q35 247 137 450.5t279.5 347.5t422.5 205q-20 -40 -52 -126.5t-64 -201t-54.5 -246t-22.5 -249.5q0 -40 78 -40q16 0 53.5 2.5t65.5 2.5q72 0 130.5 23.5t58.5 78.5q0 16 -13.5 27t-31 18.5t-29.5 11.5q23 50 32.5 61t41.5 11q26 0 48.5 -29t22.5 -57 q0 -96 -55 -145t-123.5 -63t-156.5 -20t-101 -18q0 -28 21.5 -134t49.5 -210q-70 -20 -165 -65q-29 156 -36 207.5t-10 105.5t-15 132q-160 0 -260 -19t-252 -61zM76 434q86 41 155 48.5t162 10t109 19.5q0 31 11.5 116.5t53 243.5t121.5 346q-228 -120 -364 -294 t-186.5 -304t-61.5 -186z" />
<glyph unicode="5" horiz-adv-x="977" d="M22 205q0 48 31 76t76 28q62 0 78.5 -23.5t18.5 -80.5q-4 -1 -41 -3t-54 -15t-17 -47q0 -21 52 -57t133 -36q98 0 181.5 38.5t147 106t98 155t34.5 185.5q0 91 -34 173.5t-100.5 133t-156.5 50.5q-100 0 -130.5 -25.5t-74.5 -85.5t-96 -62v554h354q12 -5 36.5 -13 t49.5 -8q76 0 76 82q0 10 -4 43h80q34 -12 50 -28t16 -64q0 -80 -89 -105.5t-174 -25.5q-67 0 -148 12q-81 13 -116 27h-80v-301q4 -6 7.5 -13t7.5 -14q72 50 109 76t74 33.5t132 7.5q171 0 256.5 -108.5t85.5 -270.5q0 -160 -78.5 -296t-214.5 -216t-299 -80 q-145 0 -211 55t-66 142z" />
<glyph unicode="6" horiz-adv-x="950" d="M18 608q0 133 57 253.5t146.5 211.5t186.5 142q98 51 176 51q51 0 96.5 -20.5t73.5 -54t28 -69.5q0 -56 -32 -81t-126 -25q-2 7 -3 13.5t-3 12.5q20 38 33 58.5t15 21.5q0 17 -18 39.5t-50 37.5t-66 15q-96 0 -184 -76t-142 -213t-54 -303q0 -138 42 -265t128 -207 t210 -80q77 0 137 49t92.5 126t32.5 155q0 118 -78.5 209t-195.5 91q-48 0 -78 -10t-49 -27.5t-35 -42.5q-14 -24 -30 -50q-64 30 -81 49t-17 43q0 32 37 70t97 63q62 25 130 25q185 0 276.5 -112t91.5 -284q0 -96 -41 -196.5t-130 -169t-224 -68.5q-159 0 -260 107 t-145 251.5t-44 259.5z" />
<glyph unicode="7" horiz-adv-x="874" d="M26 1204q0 22 14 36t57 24t131 18q39 -4 108.5 -12t138.5 -15t109 -12q16 0 85 13.5t140 13.5q-10 -15 -108.5 -136t-182.5 -244t-142 -260.5t-58 -271.5q0 -75 18 -123q18 -49 64 -127q-48 -40 -80 -59t-66 -47q-94 120 -94 291q0 110 40 216.5t102 203.5t171 240 t137 183h-356q-43 0 -70.5 -2t-47.5 -8t-59 -22q-39 -14 -49 -18v77q0 9 -1 22.5t-1 18.5z" />
<glyph unicode="8" horiz-adv-x="932" d="M16 1006q0 126 79.5 185t184 73t273.5 18t229 18q-41 -66 -82.5 -101.5t-101.5 -35.5h-330q-46 0 -109 -52.5t-63 -117.5q0 -75 70 -125.5t150 -75t98 -24.5q30 0 78 29t83 75t35 94q0 26 -13 63t-13 36q22 6 65 6q36 0 57 -27.5t21 -64.5q0 -47 -23.5 -77t-77.5 -71 t-84 -75q17 -20 85.5 -55t113.5 -65t82 -91t37 -158q0 -114 -63.5 -201t-167 -133.5t-215.5 -46.5q-98 0 -187 41.5t-143 122t-54 188.5q0 78 25 133t61 87t92 68t72 50q-50 43 -128.5 83.5t-107.5 80.5q-28 42 -28 146zM135 358q0 -126 87.5 -206t203.5 -80q44 0 111 32 t116 92t49 138q0 104 -58.5 175t-132 105.5t-111.5 34.5t-103 -38.5t-113.5 -105.5t-48.5 -147z" />
<glyph unicode="9" horiz-adv-x="968" d="M-2 -98q0 28 39 65h77q0 -60 8.5 -84.5t28 -30.5t70.5 -6q102 0 197.5 54.5t169.5 153.5t117 232q43 134 43 286q0 118 -39 263t-123 250t-207 105q-62 0 -124 -40t-101.5 -115.5t-39.5 -174.5q0 -76 34.5 -160t98 -140t144.5 -56q46 0 88.5 38t42.5 82q0 11 -3 35.5 t-3 42.5q24 4 36 4q100 0 101 -134q0 -76 -72.5 -130.5t-176.5 -54.5q-77 0 -159.5 44.5t-138 142.5t-55.5 247q0 117 46.5 217t132.5 159t200 59q147 0 251.5 -87t157 -226t52.5 -294q0 -167 -61.5 -321t-166.5 -275t-235 -189t-260 -68q-170 0 -170 106z" />
<glyph unicode=":" horiz-adv-x="372" d="M22 114q0 36 39 79t105 43q118 0 118 -134q0 -116 -130 -116q-72 0 -102 42t-30 86zM35 626q0 64 37 98t94 34t94 -46t37 -98q0 -12 -14 -41t-45.5 -53t-83.5 -24q-57 0 -88 35t-31 95z" />
<glyph unicode=";" horiz-adv-x="372" d="M10 133q0 38 17.5 71.5t48 53.5t65.5 20q22 0 56.5 -18t60.5 -56t26 -96q0 -64 -28.5 -113t-62.5 -79q-33 -30 -39 -30h-80q4 3 7 6t7 6q30 30 66 80q-32 22 -74.5 41t-56 39t-13.5 75zM10 633q0 46 35 88.5t96 42.5q42 0 86.5 -34t44.5 -97q0 -50 -37 -90.5t-106 -40.5 q-52 0 -85.5 38t-33.5 93z" />
<glyph unicode="?" horiz-adv-x="932" d="M16 1063q0 76 54 148t161 118.5t257 46.5q177 0 270.5 -81.5t93.5 -219.5q0 -140 -60 -227.5t-181 -175.5t-167 -134q-46 -44 -46 -128q0 -62 50 -156q-73 -54 -116 -54q-30 0 -48 61t-18 122q0 101 58.5 172t175 165.5t176.5 171t60 183.5q0 116 -94 189t-220 73 q-90 0 -172 -45.5t-131 -110.5t-49 -118q0 -31 39 -71t91 -40q72 0 72 70q0 38 -16 80q4 1 14 2.5t27 1.5q101 0 101 -94q0 -66 -64 -99q-66 -33 -134 -33q-60 0 -122 56t-62 127zM266 -164q0 42 34 86.5t98 44.5q48 0 88 -40.5t40 -90.5q0 -53 -43 -92t-85 -39 q-47 0 -89.5 35.5t-42.5 95.5z" />
<glyph unicode="A" horiz-adv-x="1386" d="M-8 725q0 121 106 187q106 67 268 67q37 0 56 -2q140 -8 248.5 -54.5t181 -106.5t151 -144t105.5 -107v668q-4 6 -16 16.5t-38 10.5q-124 0 -252 -112t-188 -200q-23 4 -46 9t-46 9q282 402 786 402q-50 -87 -50 -162v-1073q0 -28 9 -48.5t27 -49.5t27 -49h-267 q7 19 26 57.5t27.5 65t8.5 59.5q0 134 -79.5 279t-204 260t-248.5 167q-18 -24 -54 -96.5t-72 -215t-36 -322.5q0 -97 22 -171t51.5 -119.5t68 -89.5t46.5 -62q-45 -28 -121.5 -74t-92.5 -54q0 134 -8 214t-23.5 162t-20 116t-4.5 116q0 190 37 333t94 273q-10 2 -27 5 t-26 4.5t-21 2.5q-13 1 -29 1q-102 0 -179 -32.5t-77 -100.5q0 -13 21.5 -34.5t32.5 -21.5q8 6 25 22t26 32q25 -33 25 -68q0 -45 -40 -75.5t-90 -30.5q-52 0 -86 50.5t-34 86.5z" />
<glyph unicode="B" horiz-adv-x="1276" d="M16 1024q0 64 61.5 152t187 152t305.5 64q125 0 240.5 -43t188 -126.5t72.5 -198.5q0 -60 -15 -100t-35 -65l-40 -50q4 -5 51.5 -34.5t85.5 -66.5t67 -106t29 -170q0 -68 -38 -172t-123 -209.5t-230 -177t-346 -71.5q-110 0 -212 32.5t-168.5 106t-66.5 188.5 q0 74 37 135.5t107 61.5q27 0 54 -26q26 -24 26 -64q0 -25 -12 -40.5t-42 -39.5q-38 38 -50 38q-56 0 -56 -92q0 -45 40 -100.5t119 -95t185 -39.5q163 0 302.5 80.5t220.5 217.5t81 293q0 76 -36.5 164t-102.5 109q-28 -18 -65.5 -55t-71.5 -54.5t-92 -17.5q-36 0 -70 19.5 t-34 70.5q0 81 41 103.5t127 31.5t130 41t44 128q0 94 -54 166.5t-142 111.5q-88 38 -186 38q-73 0 -174 -34t-174 -94q-74 -62 -74 -136q0 -17 10.5 -26.5t30 -18.5t51.5 -24q-7 -43 -19.5 -58.5t-57.5 -15.5q-107 0 -107 117zM254 -2q16 26 40.5 53t32 45t7.5 60v790 q-6 12 -26 41t-54 63q15 16 75.5 59t188.5 107q0 -2 -19 -77t-27.5 -122t-8.5 -85v-830q0 -4 29.5 -37.5t49.5 -66.5h-288zM645 714q0 22 30.5 40t70.5 18q28 0 46 -10q0 -26 -38 -52t-70 -26q-26 0 -35 14q-4 6 -4 16z" />
<glyph unicode="C" horiz-adv-x="1284" d="M10 706q0 83 30 197.5t99 226t189 186t290 74.5q58 0 94 -15t90 -46t78 -31q13 0 35 38.5t38.5 62t56.5 46.5t106 23q48 0 97 -36t49 -94q0 -18 -13 -32t-30 -24t-29 -16q-17 61 -30.5 87t-29.5 31.5t-53 5.5q-27 0 -58 -20t-52 -60t-21 -92q0 -46 41 -118 q-39 -25 -75 -39q-28 100 -73 157.5t-105 81t-144 23.5q-138 0 -236.5 -83.5t-147.5 -215.5q-50 -130 -50 -266q0 -159 66 -318.5t190 -261.5t284 -102q32 0 111.5 28t143 79t63.5 114q-2 29 -24 43q-22 12 -72 22q16 80 82 80q34 0 55.5 -31t21.5 -87q0 -62 -45.5 -139 t-146.5 -134t-255 -57q-130 0 -244 58t-198.5 159t-131 230t-46.5 265z" />
<glyph unicode="D" horiz-adv-x="1331" d="M8 946q2 102 45 187t120.5 146t182.5 93q106 33 230 33q134 0 256.5 -48.5t216 -137.5t146.5 -210t53 -261q0 -226 -108.5 -373t-257.5 -222.5t-286.5 -107.5t-204.5 -47h-131q38 37 54.5 97t20 161.5t3.5 339.5q-117 30 -175.5 53t-111.5 94t-53 203zM60 958 q0 -96 44 -163t110.5 -100t131.5 -33q2 44 2 120q0 154 -14 213t-22 68q0 31 59 58t110 36q-33 -59 -33 -221q0 -74 6.5 -150.5t10.5 -109.5q86 13 163.5 66.5t77.5 117.5q0 49 -52 49q-8 0 -26 -1t-28 -1q6 26 27.5 65.5t62.5 39.5q112 0 112 -146q0 -82 -55 -140t-132 -91 t-161 -55q0 -154 2 -238t3 -122t1 -44t-5 -21t-15 -63q70 5 213 49.5t286 194.5t147 426q0 182 -72 314.5t-189 199t-251 66.5q-148 0 -266 -56t-183 -145t-65 -183z" />
<glyph unicode="E" horiz-adv-x="1294" d="M24 706q0 142 46 272.5t133 234t205 161.5t260 58q118 0 217.5 -49t99.5 -148q0 -68 -28 -86.5t-91 -20.5h-66q5 12 18 38.5t17.5 39t4.5 29.5q0 36 -38 62.5t-91 40.5t-95 14q-117 0 -213.5 -59t-160.5 -162t-88 -226q-6 -40 -6 -88q0 -47 4 -89t6 -60q48 30 117 84.5 t118 84.5t145 61.5t250 57.5q44 2 132 14t175 51t87 107q0 30 -12 42.5t-33 25t-21 24.5q0 26 19 40t47 14q38 0 58 -37t20 -69q0 -154 -137 -226t-405 -129t-396 -111t-128 -180q0 -76 79 -180t196 -177t221 -73q15 0 43 4q96 18 148.5 33.5t92 44t61.5 78t28 127.5 q44 -26 55 -44q10 -19 10 -61q0 -62 -60 -127t-163 -108t-223 -43q-149 0 -270.5 55t-209 154t-133 228t-45.5 273z" />
<glyph unicode="F" horiz-adv-x="1163" d="M16 1086v79q192 238 514 238q54 0 143 -17t192.5 -41t111.5 -24q19 0 56.5 24.5t37.5 42.5q0 21 -27.5 42t-27.5 24q0 15 20.5 29.5t34.5 21.5q22 0 36.5 -25.5t14.5 -64.5q0 -41 -35.5 -84t-98.5 -71.5t-142 -28.5q-33 0 -55 5.5t-88.5 23.5t-111.5 26t-95 8 q-52 0 -117 -12v-348q68 -6 99.5 -10t46.5 -7t49 -11t88 -17q65 0 117.5 25.5t52.5 66.5q0 12 -5 18t-19.5 17.5t-27.5 23.5q14 18 66 18q33 0 45 -4t12 -20q0 -6 -4 -26q-58 -226 -299 -226q-30 0 -65 4t-88 12t-68 11v-697q0 -5 34 -49.5t50 -70.5h-301q8 12 28 37t29 43 t9 40v708q-26 -2 -53 -5t-47.5 -15t-37.5 -44q-16 -32 -28 -90q-26 26 -27 24q2 0 5 8t3 31q0 67 16.5 106.5t41.5 58t58 29.5l69 23v138q0 124 -7 147q-62 -12 -82.5 -28.5t-52.5 -55.5t-70 -61z" />
<glyph unicode="G" horiz-adv-x="1228" d="M8 712q0 156 81 313t221 257t304 100l158 -32q80 -16 158 -32q32 0 62 13.5t30 38.5q0 18 -19 38.5t-33 55.5q20 13 44 24t34 15q28 0 68 -41q39 -42 39 -64q-1 -132 -199 -132q-35 0 -73.5 8t-95.5 24t-99 24.5t-82 8.5q-122 0 -226 -71.5t-165 -198t-61 -283.5 q0 -188 88 -350t235 -258t313 -96q88 0 166 34q-53 116 -53 257v5v370q-63 14 -80 14q-8 0 -17 -7t-34 -7q-34 0 -59 8t-54 24t-49.5 24.5t-48.5 8.5h-2q-63 0 -63 -53q0 -44 48 -44q11 0 26.5 2t17.5 2v-65h-107q-28 25 -33.5 39t-5.5 54q0 66 53 111.5t119 45.5 q38 0 101 -22t103 -33q40 -10 112 -10q28 0 79 7t91 7q-1 -2 -16.5 -28.5t-25.5 -50t-10 -40.5v-264q0 -101 16.5 -180t49.5 -175q-94 -50 -151 -71.5t-112 -28t-145 -6.5q-150 0 -278.5 55t-221 152.5t-144.5 226.5q-51 128 -54 276z" />
<glyph unicode="H" horiz-adv-x="1384" d="M10 864q18 86 57.5 132t95 65t153.5 37q0 109 -12 161.5t-56 118.5h262q-53 -82 -53 -178q0 -16 1 -52t1 -58q54 -14 138.5 -42t137.5 -40.5t117 -12.5q82 0 150 19q68 18 96 48q0 20 2 55t2 63q0 68 -3.5 92t-14 43t-48.5 75h276q-10 -16 -30.5 -41t-27.5 -36t-7 -29 v-1155q0 -8 21.5 -32.5t56.5 -86.5h-275q10 28 20 41.5t22.5 27t17.5 25.5q6 14 6 38v826q-24 0 -105 -22t-127 -22q-132 0 -187 12t-114 40t-122 38q2 -22 2 -199q0 -165 -1.5 -373t-2.5 -313q12 -20 35.5 -57.5t41.5 -61.5q-30 -14 -220 -14h-56v28q17 16 34 33t34 33v457 q0 457 -2 457q-98 0 -146.5 -36t-48.5 -92q0 -32 11 -48.5t25 -24t42 -17.5q-22 -42 -33.5 -53.5t-59.5 -11.5q-38 0 -72 44t-34 99z" />
<glyph unicode="I" horiz-adv-x="399" d="M22 4q14 24 42 66t28 53v1145q0 20 -70 112q76 12 119 12q30 0 78.5 -5t64.5 -7q-2 -12 -33.5 -49t-31.5 -71v-1118q6 -4 27.5 -30t65.5 -96q-106 -12 -222 -12h-68z" />
<glyph unicode="J" horiz-adv-x="428" d="M-215 -158q0 16 18.5 41t46.5 25q19 0 30.5 -13t21.5 -41t14 -38q204 57 204 737v163q0 298 -8 506q0 38 -90 156q20 2 60 2q36 0 86 -3t78 -3q20 0 72 4q-20 -26 -32.5 -41.5t-20 -29.5t-7.5 -29v-897q0 -81 12 -111t48 -70q-48 -26 -103 -112t-99 -160.5t-99 -126 t-127 -51.5q-40 2 -72 30q-33 28 -33 62z" />
<glyph unicode="K" horiz-adv-x="1276" d="M10 -6q12 16 34 33t34 36.5t22 65.5v1024q0 126 -78 223h275q-11 -18 -33 -46.5t-29 -51.5t-7 -74q0 -346 4 -424q73 62 263.5 157t279.5 154.5t89 139.5q0 54 -29 70.5t-102 35.5q3 8 9 26t20 36t39 30.5t63 12.5q58 0 102 -50t44 -149q0 -84 -40.5 -145.5t-97 -100.5 t-119.5 -67t-120 -54q111 -88 155 -214t79 -328t82.5 -312t166.5 -166q0 41 8 60.5t33 19.5q19 0 37 -8q16 -8 16 -49q0 -34 -15 -51.5t-67 -17.5q-156 0 -248 138t-147 340t-104 375t-107 173q-39 -6 -135.5 -59t-152.5 -111v-264v-132q0 -92 12.5 -136t46.5 -84t45 -56 h-328z" />
<glyph unicode="L" horiz-adv-x="1126" d="M2 98q144 144 144 234v886q0 26 -6 41t-36 52t-55 71q78 1 155 2q76 2 154 2q-44 -52 -55.5 -81.5t-11.5 -69.5v-891q-6 -38 -22.5 -99t-38.5 -79q90 12 153 12q64 0 101.5 -8t120.5 -30t155 -34q66 0 118 40t81.5 93.5t29.5 92.5q0 88 -54 154q-55 66 -139 73 q-83 0 -113 -30.5t-30 -65.5q1 -61 101 -61q-6 -48 -25.5 -66t-75.5 -18q-64 0 -97.5 59t-33.5 113q0 24 22 65t75 74t139 33q69 0 138.5 -38t115.5 -113t46 -179q0 -114 -52 -191t-136 -114t-178 -37q-34 0 -68 7t-110.5 26.5t-131 30t-104.5 10.5q-110 0 -166 -60 q-16 0 -110 94z" />
<glyph unicode="M" horiz-adv-x="1452" d="M10 6q32 22 49 64.5t33 156t46 413.5t56 578q0 28 -11 48t-28 33t-32 26q54 3 148.5 4.5t148.5 3.5q-28 -22 -49 -48.5t-21 -39.5q0 -20 308 -336l193 193t83.5 84.5t33.5 37.5t9 22q0 23 -65 91h300q-28 -26 -43 -41t-20.5 -24t-5.5 -21q0 -11 4 -33q30 -228 64 -528.5 t51.5 -413t44.5 -174.5t77 -94q-24 -2 -104 -2q-52 0 -102.5 1t-73.5 1q26 38 32.5 52t10.5 75q-16 112 -44.5 309.5t-57.5 395t-45 309.5q-40 -32 -156.5 -157t-116.5 -138q0 -10 23.5 -46t43.5 -70t37 -83t17 -102q0 -84 -47.5 -159.5t-149.5 -75.5q-54 0 -95.5 35t-65 91 t-23.5 109q0 22 22.5 95.5t57.5 133.5q-44 49 -120.5 143.5t-111.5 166.5q-12 -108 -33 -299.5l-42 -383t-33 -299.5q0 -29 5.5 -46.5t14.5 -30.5t19 -27q-10 -2 -64 -2q-32 0 -94.5 1t-77.5 1zM545 542q2 -50 26 -91t68 -41q31 0 54.5 35.5t23.5 68.5q0 65 -16.5 95.5 t-76.5 88.5q-45 -36 -62 -62q-17 -28 -17 -94z" />
<glyph unicode="N" horiz-adv-x="1192" d="M6 -2q16 6 46 38t50 106q18 242 34 448t21.5 286t11 180.5t7.5 182.5q0 24 -8.5 40.5t-27.5 40.5q-20 26 -28 36h248q-10 -14 -33.5 -35.5t-35 -43t-11.5 -65.5q11 -70 76.5 -124.5t206.5 -133t214 -125.5t117 -115q-5 58 -14 162t-18.5 207t-13.5 162q0 11 8 11q2 0 2 2 q0 6 -92 98h248q-10 -16 -30.5 -40t-28 -39t-7.5 -38q7 -89 22.5 -277.5t37.5 -441.5q22 -254 38 -408q7 -28 21.5 -44.5t36.5 -33t26 -24.5h-236q38 76 38 86q10 32 10 92q0 108 -16 199q-42 -68 -80 -97t-94 -32q-58 0 -101 38t-43 93q0 50 24 82.5t58 32.5q28 0 52 -25 q-4 -12 -17 -41t-13 -41q0 -29 62 -37q39 0 67.5 45t28.5 89q-6 80 -69 134t-196.5 128t-216.5 134t-136 152q-7 -100 -18.5 -275t-23.5 -351q-12 -174 -20 -274q2 -30 14 -52.5t34 -50.5t30 -41h-262z" />
<glyph unicode="O" horiz-adv-x="1210" d="M16 682q0 90 33 222t102 242t171 136q-98 -123 -136 -251.5t-38 -244.5t37.5 -234.5t106 -217t159.5 -156.5t194 -58q57 0 144 38.5t160 153t73 316.5q0 162 -61 325t-164 265.5t-217 102.5q-118 -1 -119 -103q0 -15 24.5 -40t40.5 -25q4 0 26 10.5t40 14.5 q0 -76 -25 -110t-79 -34q-56 0 -94 49t-38 121q0 70 45 117.5t107 69.5t110 22q44 0 126 -25.5t173.5 -96.5t156 -212t64.5 -358q0 -130 -37 -257.5t-111 -232.5t-182 -166t-242 -61q-130 0 -258 78t-210 232.5t-82 367.5z" />
<glyph unicode="P" horiz-adv-x="1210" d="M-20 1249q0 31 16 45t39 17t29 3q14 -62 17 -70.5t23 -8.5q4 0 19 1t27 1q54 0 159.5 52.5t173 77.5t187.5 25q76 0 154 -28t144 -89t106 -159t40 -232q0 -172 -84 -330t-210 -253t-240 -95q-68 0 -125 48t-57 123q0 94 94 94q13 0 22 -1l12 -3q-7 -24 -22.5 -44.5 t-15.5 -45.5q0 -32 39 -62.5t103 -30.5q52 0 109 38t107 113.5t80 185t30 249.5q0 109 -37 218.5t-111 181.5q-76 72 -178 72q-72 0 -141 -42t-113 -104t-44 -117v-1107q0 -59 -33 -120.5t-87.5 -100.5t-115.5 -39q-28 0 -53 18q-25 16 -37 34v64h104q50 0 64 16t14 64v1264 h-42q-77 0 -121.5 14.5t-44.5 62.5z" />
<glyph unicode="Q" horiz-adv-x="1239" d="M22 742q0 160 66 315t197.5 254.5t316.5 99.5q191 0 315.5 -95.5t181 -246.5t56.5 -315q-3 -152 -35 -259.5t-75 -172t-102.5 -126.5t-76.5 -90q26 -22 62.5 -83.5t75.5 -106t112 -80.5q16 0 29.5 14t13.5 35q0 35 -37 61q38 18 64 19q37 0 55.5 -27t18.5 -67t-43 -73.5 t-117 -33.5q-106 8 -198 85t-154 167q-24 0 -88 -6t-101 -6q-209 0 -209 170q-18 -12 -25 -24t-7 -17q-91 46 -158.5 149.5t-102.5 229.5t-35 230zM180 832q0 -112 25.5 -218t57 -181t66.5 -143t36 -75q89 43 115 53q24 10 46 10q95 0 164.5 -29t95.5 -49q37 0 91.5 82.5 t93.5 201t39 216.5q0 136 -42 255t-110 206.5t-146 136t-149 48.5q-132 0 -217.5 -76t-125.5 -194t-40 -244zM444 152q0 -78 111 -78q87 0 141 40q-32 40 -81 64t-93 24q-70 0 -78 -50z" />
<glyph unicode="R" horiz-adv-x="1276" d="M8 1042q0 74 70 158t208 141t326 57q164 0 293 -59t201 -170t72 -257q0 -106 -36 -187t-88 -135.5t-126.5 -109t-77.5 -56.5q54 -82 96 -190t82 -207t89 -150t128 -51q20 0 35.5 23t15.5 63q2 -2 22 -6t32 -16t12 -44q-2 -37 -38 -59.5t-79 -22.5q-152 0 -242 69 t-132 166t-73.5 231t-49.5 176q-4 0 -30 -3.5t-50 -5t-42 -1.5q-146 0 -145 94q2 45 45.5 69.5t97.5 24.5q28 0 51.5 -9t44 -21.5t46 -25t43.5 -12.5q24 0 80.5 50t100.5 134t44 184q0 84 -43 189t-149 182.5t-281 77.5q-45 0 -129 -17.5t-169.5 -51.5t-144 -84t-58.5 -111 q0 -30 18 -44.5t47 -14.5q33 0 57 20q0 -58 -15 -81t-55 -23q-37 0 -70 32q-34 30 -34 84zM205 16q65 66 65 105v870q0 16 -5 26.5t-21 30.5t-29 38q58 40 116.5 80t116.5 81q-18 -58 -23 -72.5t-7 -27.5t-2 -37v-989q0 -18 9 -32t34 -37.5t37 -35.5h-291zM561 490 q-1 -42 57 -42t88 27q-14 13 -42 32t-56 19q-32 0 -47 -36z" />
<glyph unicode="S" horiz-adv-x="1155" d="M10 395q0 76 48 149t138 119.5t208 46.5q81 0 157.5 -27t124 -81t47.5 -127q0 -101 -70.5 -150t-164.5 -49q-75 0 -137 37t-62 82q0 51 25.5 71t73.5 34q24 -134 100 -134q58 0 92 41t34 81q0 79 -74 125.5t-171 46.5q-77 0 -147 -35t-114 -99.5t-44 -144.5 q0 -106 71 -180.5t179 -111t212 -36.5q114 0 218 52.5t166.5 143.5t62.5 199q0 140 -98.5 233t-289 191t-276 161.5t-85.5 164.5q0 44 38 97t115 91t189 38q101 0 195.5 -39t94.5 -121q0 -32 -35 -49t-71 -17q-12 0 -12 16q0 6 3 27t3 35q0 106 -191 106q-80 0 -152.5 -36 t-72.5 -95q0 -72 134 -142.5t274 -139.5t242 -177t102 -278q0 -175 -77.5 -291t-206 -169.5t-284.5 -53.5q-205 0 -358.5 98t-153.5 297z" />
<glyph unicode="T" horiz-adv-x="1136" d="M20 1186q0 48 48 97t144 81t228 32q96 0 162 -11t172 -33.5t154 -22.5q39 0 72 17q32 16 32 50q0 31 -47 50q0 53 39 53q14 0 35 -6q65 -17 65 -69q-3 -79 -109.5 -136.5t-260.5 -57.5q-50 0 -103 6v-1142q0 -18 7.5 -30.5t27.5 -35.5q20 -22 30 -38h-288q11 26 42.5 60 t31.5 71q0 125 -1 346l-2 442t-1 346q-16 3 -54 13t-81 16t-107 6q-40 0 -80 -12t-65 -33t-25 -47q0 -37 92 -37q-2 -33 -28 -57q-26 -25 -52 -25q-38 0 -58 32.5t-20 74.5z" />
<glyph unicode="U" horiz-adv-x="1210" d="M12 584q0 133 43 239.5t90.5 169.5t131 159t104.5 142q-33 -4 -49 -4q-45 0 -79 10t-77.5 28t-57.5 18q-12 0 -25 -16t-13 -38q6 -12 20 -12q8 0 26 6l19 6q2 -6 5.5 -18.5t3.5 -28.5q0 -21 -9 -31q-18 -22 -47 -22q-24 0 -42 22.5t-18 65.5q0 54 51 99t122 45 q24 0 97.5 -24t99.5 -24q24 0 66 13.5t110 13.5q-9 -28 -93.5 -122.5t-153.5 -184.5t-124 -214t-55 -260q0 -98 30 -189t87 -165.5t135 -117t170 -42.5q50 0 123.5 37.5t131.5 86t60 73.5v711q0 146 -9 220t-21.5 98t-47.5 71q79 11 137 11q27 0 65.5 -1.5t74.5 -1.5 q-29 -29 -41.5 -46t-18.5 -51t-6 -102v-870q0 -96 37 -166t119 -70q-17 -51 -52.5 -77.5t-77.5 -26.5q-40 0 -66 21t-61 76t-38 59q-62 -42 -103.5 -70.5t-82.5 -51t-91 -35.5t-110 -13q-130 0 -243 75.5t-180 212t-67 306.5z" />
<glyph unicode="V" horiz-adv-x="1163" d="M41 1409h262q-38 -44 -51.5 -64.5t-13.5 -54.5q18 -94 62 -292.5t107 -417t115 -277.5q50 90 192 321.5t203.5 363.5t61.5 236q0 65 -21.5 122.5t-63.5 92.5q-44 35 -104 35q-46 0 -82 -26t-36 -66q0 -53 39 -53h1q29 1 60 21q24 -27 24 -58q0 -30 -25 -49t-59 -19 q-55 0 -80.5 38t-25.5 94t33 97.5t85 64t106 22.5q26 0 86 -22t117 -96t57 -212q-2 -80 -66 -214.5t-209 -386t-212 -372.5t-115 -249q-96 170 -158 364t-125 483t-89 394t-75 180z" />
<glyph unicode="W" horiz-adv-x="1536" d="M10 1165q0 111 46 195q44 84 138 84q36 0 51 -11t15 -49q-82 0 -113 -52t-31 -114q0 -54 66 -254t147 -393t121 -233q60 93 123 233.5t95 216.5q0 19 -28 106t-45 151t-17 120q0 53 22 105t61 85t87 33q86 0 122.5 -56t36.5 -140q0 -64 -14.5 -115.5t-42.5 -120 t-37 -106.5q28 -61 77 -168.5t98 -215.5t77 -169q52 116 105.5 234.5t93 220.5t65 203t25.5 179q0 95 -36 149t-98 54q-26 0 -41.5 -7.5t-34.5 -27.5q-18 -20 -28 -30q-5 11 -23 33.5t-18 35.5q0 56 47.5 85.5t112.5 29.5q46 0 102.5 -28t98.5 -94t42 -169q0 -109 -48 -257 t-112 -288t-163.5 -340.5t-130.5 -271.5q-34 72 -94 199l-120 254t-94 199q-36 -74 -98.5 -203.5t-126 -259t-98.5 -203.5q-18 72 -126.5 358t-174.5 480t-82 333zM686 1206q0 -56 21 -130q21 -76 43 -110q64 98 63 199q1 137 -55 137q-37 0 -54.5 -30t-17.5 -66z" />
<glyph unicode="X" horiz-adv-x="1144" d="M10 -2q62 114 83 179t37 112t87 167q30 48 73.5 95.5t99.5 104.5t58 63q-41 76 -113.5 231.5t-115.5 313.5q-14 28 -42 56q-27 28 -37 42h276q-6 -25 -22.5 -56t-16.5 -63q0 -10 43.5 -122t88.5 -203.5t65 -91.5q32 31 139 113.5t162 145.5t55 133q0 40 -28 65t-66 25 t-58 -9t-38 -45q-4 12 -12 38q-7 28 -7 62q10 46 53.5 67t99.5 21q90 0 131 -57.5t41 -141.5q0 -67 -60 -146t-149.5 -158t-157 -139t-67.5 -81q0 -6 49 -97.5t115.5 -196.5t159 -217t190.5 -186h-317q29 24 29 50q0 19 -9.5 32.5t-15.5 18.5q-181 239 -327 493 q-48 -36 -117 -113t-123 -178.5t-54 -197.5q0 -22 4 -38.5t11 -32.5t20 -34t19 -28l-118 2z" />
<glyph unicode="Y" horiz-adv-x="1108" d="M14 1178q0 87 74 117t205 30q86 0 129 -2q-52 -110 -82.5 -187t-45.5 -157q-16 -81 -16 -183q0 -128 34 -235t108 -172t186 -65q113 0 191 90.5t115.5 233t37.5 294.5q0 77 -21.5 158.5t-46.5 141.5q-24 60 -44 108q104 28 204 46v-44q0 -133 -15 -334.5t-48 -426.5 t-82 -413q-25 -99 -77 -210.5t-134 -194t-184 -82.5q-56 0 -107 42.5t-51 114.5q0 32 16 33q10 0 56 -29q48 -28 74 -28q58 0 117 46t109 119.5t80 156t30 151.5q-34 -10 -86.5 -45.5t-98.5 -54.5t-125 -19q-113 0 -197 73.5t-127.5 189.5t-43.5 239q0 116 28 208t74 190 q47 98 55 134q-67 10 -107 10q-16 0 -35 -2t-30 -2q-3 0 -15 14.5t-20 14.5h-1q-17 0 -29 -69q37 -16 65 -40q-30 -30 -36 -34q-5 -4 -29 -4q-13 0 -33.5 30t-20.5 48z" />
<glyph unicode="Z" horiz-adv-x="1181" d="M2 48q0 100 104 308q70 137 166 232t251.5 214.5t246 207.5t156.5 214q-74 -6 -134 -6q-120 0 -195 17t-162 46t-128 29q-76 -10 -131 -54q-54 -46 -54 -116q0 -48 26 -75t69 -27q20 0 40.5 17t20.5 41q0 36 -48 65q13 43 73 43q50 -4 73.5 -37t23.5 -79q0 -56 -50 -94 t-110 -38q-72 0 -121 64t-49 120q0 52 41 118t116 112.5t173 46.5q55 -6 102.5 -18.5t108.5 -33t98 -29.5t81 -9q118 0 252 84q0 -128 -70 -260q-71 -131 -167 -229q-69 -62 -216 -176t-232 -188t-149 -164t-73 -187q30 0 70.5 20.5t73 31.5t106.5 11q92 0 167.5 -30 t173.5 -82t132 -52q60 0 109 34q49 36 49 94q0 47 -32 81.5t-85 34.5q-11 0 -51 -21.5t-68 -31.5q-3 10 -7.5 32.5t-4.5 44.5q0 12 4 29q30 78 140 78q82 0 140 -57.5t58 -139.5t-54 -144.5t-132 -96t-144 -33.5q-42 0 -100 17t-145 48t-145 48t-97 17q-58 0 -91 -16 t-65.5 -48t-56.5 -49t-70 -21q-2 2 -5 12t-3 30z" />
<glyph unicode="[" horiz-adv-x="446" d="M12 448v264q0 31 26.5 145.5t94.5 275.5q69 161 185 321q0 -32 -26 -106t-67 -198t-67 -256q-25 -132 -25 -274q0 -162 39 -319t94.5 -287t109.5 -227t74 -133h-52q-124 160 -212.5 321.5t-131.5 285.5q-42 123 -42 187z" />
<glyph unicode="]" horiz-adv-x="501" d="M30 -360q16 38 80.5 169t104 232.5t66 228.5t26.5 277q0 185 -32.5 330t-66.5 223.5t-94 198.5q-59 119 -69 169q18 -10 83.5 -92.5t137.5 -208.5t123 -285.5t51 -320.5q0 -62 -66.5 -286.5t-160 -417.5t-183.5 -217z" />
<glyph unicode="a" horiz-adv-x="903" d="M6 346q0 64 49 144.5t148 138t235 57.5q1 0 12.5 -8t33.5 -14q20 -6 58 -6q12 0 54 4q-17 58 -68.5 126t-124.5 115t-147 47q-58 0 -102 -33t-44 -85q0 -24 39 -64q56 30 56 47q0 2 -2.5 11t-2.5 20h56q26 -42 26 -64q0 -14 -26 -14q0 -12 1 -28t1 -21q0 -26 -16 -35.5 t-68 -9.5q-58 0 -101 48t-43 97q0 46 38 88.5t102 69.5t137 27q163 0 266 -93t157 -236t74 -260.5t54 -369.5h-146q-24 20 -36 61q-12 42 -14 46q-42 -65 -118 -105.5t-172 -40.5q-146 0 -256 88.5t-110 251.5zM162 358q0 -62 39 -116t99 -85.5t112 -31.5q32 0 96 24.5 t115 77.5t51 131q0 70 -34 124t-91.5 84t-124.5 30q-118 0 -190 -60t-72 -178z" />
<glyph unicode="b" horiz-adv-x="968" d="M10 1178q58 -6 75 -14.5t17 -53.5v-901q0 -34 -13.5 -51.5t-35 -26.5t-41.5 -17q30 -42 99 -122q56 48 74 72t18 59v518q0 32 41 86.5t108.5 95.5t143.5 41q90 0 151 -49t91 -130t30 -175q0 -85 -21 -165.5t-63 -147.5t-104 -105q-62 -39 -138 -39q-46 0 -140 59 q-96 59 -118 95v-67q50 -53 121 -95.5t141 -44.5q86 0 188 68t171 188t69 266q0 202 -78 307t-243 115q-180 0 -356 -176q4 20 4 356q0 252 -2 272q-56 -70 -109 -130q-54 -60 -80 -88z" />
<glyph unicode="c" horiz-adv-x="903" d="M16 488q0 140 73 258t187 187t226 69q70 0 137.5 -31.5t110 -86t42.5 -120.5q0 -98 -59 -147.5t-149 -49.5q-75 0 -117.5 39.5t-42.5 103.5q0 32 4.5 49.5t13 26t22.5 15t38 16.5q12 -43 19 -69t16 -39t25 -18t46 -5q32 0 62 30t30 74q0 30 -21 68t-64 64t-99 26 q-84 0 -157 -37t-125 -96t-81.5 -129t-29.5 -131q0 -104 52.5 -204.5t143 -165t197.5 -64.5q64 0 111 22t119 66.5t112 54.5q-49 -103 -127.5 -161.5t-154.5 -79.5t-126 -21q-48 2 -144.5 31t-193.5 137q-96 110 -96 318z" />
<glyph unicode="d" horiz-adv-x="987" d="M22 500q0 124 53 232.5t152 174t229 65.5q46 0 125 -31t113 -34v291q-32 18 -40 18q-4 0 -15 -3t-25 -3q22 29 86 102q66 72 126 122v-922q0 -143 14.5 -222.5t33 -110.5t38.5 -47t20 -28q0 -18 -31 -48t-75 -30q-10 0 -39 25t-66 93q-28 -9 -76.5 -52.5t-96.5 -67.5 t-130 -24q-98 0 -189 58.5t-149 172t-58 269.5zM154 553q0 -170 65 -268t139.5 -133.5t110.5 -35.5q45 0 99 31.5t90 78t36 90.5v380q-31 72 -52.5 111t-70.5 69.5t-129 30.5q-86 0 -152 -48t-101 -129t-35 -177z" />
<glyph unicode="e" horiz-adv-x="932" d="M14 486q0 80 29 164.5t86 158t145 118.5t203 45q136 0 301 -92q-51 -76 -140.5 -209t-179.5 -267t-140 -210q48 -46 98 -62q50 -15 126 -15q88 0 143 22.5t108 61.5t77 49q-26 -105 -136 -178.5t-271 -73.5q-68 0 -111 14t-78.5 33t-47.5 19q-7 0 -36.5 -36t-29.5 -69 q0 -24 7 -34.5t20 -17.5t19.5 -14t6.5 -26v-53q-131 3 -131 106q0 43 39 116.5t39 80.5q0 8 -28 40t-52.5 68.5t-45 102.5t-20.5 158zM121 551q0 -56 28 -141q29 -84 97 -148q82 82 158 198t127 216t51 112q0 50 -53 84.5t-119 34.5q-60 0 -129 -48.5t-114.5 -130 t-45.5 -177.5z" />
<glyph unicode="f" horiz-adv-x="592" d="M-4 886q41 12 84 13q8 0 21.5 -1t19.5 -1q29 1 41 15q14 16 15 111t12 166t61 128q52 57 162 57q53 0 91.5 -35t38.5 -83q0 -42 -38.5 -73.5t-65.5 -31.5q-26 0 -53 28.5t-27 76.5q0 14 14 14q8 0 36 -6q26 -6 42 -8q0 54 -14 66.5t-51 12.5q-92 0 -92 -178q0 -17 1 -43 q1 -24 1 -30q0 -112 13 -148.5t38 -36.5q6 0 18 2t19 2q36 0 55 -43q-44 -16 -86 -16q-9 0 -20 1q-10 1 -12 1q-12 0 -12 -29v-75v-736q0 -111 -42 -212t-110 -165.5t-140 -70.5q-18 76 -18 72q0 12 18 46q30 20 64 43t57 49.5t37 68t14 101.5v883q-52 29 -96 29 q-4 0 -15 -1t-15 -1q-32 0 -66 38z" />
<glyph unicode="g" horiz-adv-x="1013" d="M10 666q0 80 55 153t151.5 117.5t213.5 44.5h211q5 -6 16 -15.5t21 -9.5q28 0 28 78q0 30 -20 45t-62 24t-48 11q16 50 28 64t62 14q106 0 106 -146q0 -44 -13 -80t-13 -50q0 -19 41 -66t65 -89.5t24 -106.5q0 -115 -63 -175.5t-156 -90.5t-182 -62q-89 -30 -105 -80h109 q475 0 475 -291q0 -84 -67 -166.5t-189 -134.5q-122 -53 -280 -53q-85 0 -173.5 25t-149.5 78.5t-61 133.5q0 43 42 80t104 37q28 0 42 -6.5t32 -24.5q16 -18 18 -20v-78q-7 4 -26.5 16t-33.5 17.5t-32 5.5q-16 0 -41 -18.5t-25 -46.5q0 -54 83 -100t194 -46q166 0 287 76.5 t121 224.5q0 131 -88.5 185t-214.5 54q-84 0 -126 -17t-88 -47t-75 -30q-9 0 -16.5 5t-19 16t-17.5 19q30 29 78.5 69.5t65 64.5t20.5 64q-138 62 -223 138t-85 190zM154 666q0 -51 21 -109.5t58 -97.5t81 -39q14 0 38 10q-4 24 -9 35.5t-5 15.5q0 14 22 33.5t54 33t61 13.5 v-172q124 20 184 103q60 84 60 174q0 46 -13 84t-29.5 62t-22.5 24t-40 -8.5t-59 -8.5h-2q-68 0 -111 57q26 10 52 15t55 21q-101 18 -107 18q-70 0 -137 -34t-109 -95t-42 -135z" />
<glyph unicode="h" horiz-adv-x="958" d="M30 1172q38 59 109 134q71 74 115 88v-564q46 10 113 57t103 67q36 19 100 19q112 0 183 -58t103 -147q31 -88 31 -188q0 -82 -29 -173t-71.5 -187t-44.5 -104q14 -4 14 -10t2 -6t133 31q0 -77 8 -143q-174 14 -248 14q-15 0 -26.5 -1t-16.5 -1q51 97 83 169.5 t54.5 161.5t22.5 181q0 65 -17 127.5t-50 110.5t-82 76t-115 28q-64 0 -119 -32t-87 -79t-32 -85v-527q0 -35 24 -69t44 -50h-252q33 33 43 50.5t10 41.5v1068q-24 2 -59 2q-30 0 -46 -2z" />
<glyph unicode="i" horiz-adv-x="325" d="M4 813q38 39 91 72t93 47v-672q0 -152 68 -262h-226q4 13 23 58.5t19 57.5v449q0 182 -68 250zM58 1170q0 26 19 45.5t46 19.5h2q63 0 63 -65q0 -32 -19 -50t-46 -18q-65 0 -65 68z" />
<glyph unicode="j" horiz-adv-x="358" d="M-30 -297q1 -8 1.5 -24t4.5 -24.5t15 -13.5t29 -5q52 4 89 51t91 139q52 93 86 123q-22 0 -35 25.5t-17 41.5v977q-128 -92 -206 -137q24 -7 61.5 -34.5t37.5 -53.5v-936q0 -118 -78 -144q-55 30 -59 30t-7 -7t-13 -8zM100 1216q0 16 28 40t64 24q16 0 35 -26t19 -52 q0 -25 -20 -45.5t-48 -20.5q-30 0 -54 26t-24 54z" />
<glyph unicode="k" horiz-adv-x="903" d="M18 1174q28 51 88 114q58 62 108 94v-788q68 0 167.5 48t171 119.5t71.5 135.5q0 26 -18 45.5t-34 19.5q-3 0 -68 -38q-29 49 -29 65q0 9 6 9h7q4 0 4 4q0 94 92 94q70 0 100 -46t30 -114q0 -74 -40.5 -135.5t-92 -102t-127.5 -89.5t-94 -66q84 -64 133 -79.5t81 -29.5 t58 -79t95 -273q35 8 57 8q16 0 20.5 -3t4.5 -5q37 0 44 -5.5t7 -33.5q0 -23 -26 -44t-52 -21q-66 0 -104 44t-95 149t-116 180t-158 127h-80v-345q0 -52 68 -129h-252q11 18 39 50t28 54v1051q-36 19 -50 19q-4 0 -17 -2t-27 -2z" />
<glyph unicode="l" horiz-adv-x="381" d="M30 1174q30 54 83 111.5t117 84.5v-1264q0 -8 38 -50t41 -46q-67 -12 -171 -12q-50 0 -66 4q7 24 23.5 53.5t23 55t6.5 87.5v910q0 29 -24 48q-25 18 -71 18z" />
<glyph unicode="m" horiz-adv-x="1331" d="M12 850q0 8 25 37t55 29q17 0 35 -16.5t34.5 -38.5t34.5 -43.5t30 -21.5q10 0 33 29t47 52.5t70 44t112 20.5q42 0 84 -22t86 -53t52 -31t47 34t84.5 59t106.5 25q60 0 134 -41t128 -121.5t54 -191.5q0 -71 -29 -150.5t-65 -145.5t-116 -204q38 -10 66 -10q12 0 39 5 t39 5v-118q-83 14 -125 14q-3 0 -38 -1t-87 -1q14 59 61 162.5t72 188.5t25 202q0 72 -23 141.5t-73 115.5q-52 46 -128 46q-40 0 -92.5 -42t-52.5 -77q10 -36 25.5 -96.5t15.5 -87.5q-16 -118 -68 -307q-53 -190 -145 -226q9 52 25 121t23 135q7 64 7 170q0 182 -42 282.5 t-168 100.5q-114 0 -149 -88t-35 -227q0 -187 8.5 -287.5t22 -141.5t36.5 -62t25 -23h-250q20 40 35.5 59t15.5 47v539q0 62 -20.5 96.5t-53.5 66.5t-33 48z" />
<glyph unicode="n" horiz-adv-x="950" d="M22 4q39 47 58.5 77.5t19.5 72.5v196v254q0 76 -11 129t-24 76t-28 40t-15 21q0 12 30 46t48 34q22 0 45 -21t57 -61t46 -51q146 145 276 145q113 0 194 -52t122.5 -145.5t41.5 -211.5q0 -114 -27.5 -189.5t-66 -135.5t-38.5 -74q0 -10 32 -38t54 -54q-110 -46 -160 -64 t-113 -22q66 118 107.5 193t67.5 153t26 178q0 86 -33 168t-97 135t-148 53q-71 0 -128.5 -40t-89.5 -107t-32 -144v-129v-294q0 -40 4.5 -59t19 -33t54.5 -40q-62 -18 -176 -18q-72 0 -116 12z" />
<glyph unicode="o" horiz-adv-x="1042" d="M8 502q0 104 44.5 194t119 156t162.5 101.5t172 35.5q128 0 237 -65.5t172.5 -177.5t63.5 -244q0 -134 -68.5 -249t-183.5 -183t-246 -68q-138 0 -245.5 68.5t-167.5 183.5q-60 116 -60 248zM125 594q0 -108 65 -222t164 -189q98 -75 190 -75q89 0 165.5 50.5t120.5 125 t44 138.5q0 67 -54.5 179t-156 196.5t-235.5 84.5q-38 0 -112 -35t-132.5 -101t-58.5 -152z" />
<glyph unicode="p" horiz-adv-x="968" d="M0 889q57 70 67.5 79.5t38.5 9.5q19 0 43 -22t58 -64t49 -56q36 32 77 69t96 62.5t134 25.5q190 0 270.5 -127.5t80.5 -304.5q0 -140 -57 -266t-165 -205q-108 -78 -248 -78q-19 0 -41 5t-43.5 12t-49.5 19.5t-54 23.5v-188q0 -36 9 -59t22 -39t29 -34 q-130 -98 -204 -116q0 125 -1 346t-1 442q-2 221 -2 346q0 27 -17.5 48.5t-50.5 43.5t-40 27zM256 194q26 14 84 27q6 -34 10 -56.5t14 -42.5t33 -32t61 -12q90 0 164 74t118 181t46 195q0 106 -37 191t-100.5 131.5t-138.5 46.5q-41 0 -102.5 -38.5t-106.5 -101.5t-45 -131 v-432z" />
<glyph unicode="q" horiz-adv-x="977" d="M16 490q0 56 20 139.5t67 166t131 139t204 56.5q74 0 133 -26.5t131 -94.5q18 21 41.5 48.5t51 50t51.5 22.5q6 0 36 -37.5t30 -69.5q0 -14 -24 -29.5t-38 -29t-28.5 -56.5t-14.5 -122v-723q0 -24 17.5 -83t47.5 -89q-50 -32 -99 -65t-99 -66q-3 7 -6.5 14t-5.5 13 q18 78 22 110q4 30 4 100q0 15 -20 236q-32 -8 -76 -35t-83 -41t-109 -14q-100 0 -189 66t-142 178t-53 242zM162 570q0 -134 51 -234t122.5 -151.5t127.5 -51.5q45 0 80 18.5t63 46.5l56 56v432q0 50 -30.5 106t-85 95t-122.5 39q-74 0 -134.5 -53t-93.5 -135 q-34 -82 -34 -168z" />
<glyph unicode="r" horiz-adv-x="772" d="M8 874q0 13 36 52.5t54 39.5q38 0 69 -32t95 -111q20 16 75 64.5t99 70t108 21.5q74 0 129.5 -39.5t55.5 -103.5q0 -61 -32 -96q-33 -36 -85 -36q-15 0 -28.5 4t-26 10.5t-24 15t-13.5 10.5q27 22 50.5 38.5t26.5 20.5t3 20q0 29 -28 47.5t-78 18.5q-38 0 -92 -32 t-93 -89.5t-39 -128.5v-395q0 -84 17.5 -129t48.5 -95q-36 -16 -126 -16q-68 0 -124 16q70 72 70 203q0 16 -1 41t-1 33q0 228 -21 345.5t-46 153.5t-52 48t-27 30z" />
<glyph unicode="s" horiz-adv-x="866" d="M14 230q0 56 34 100.5t86 69.5q54 24 104 24q81 0 138.5 -29t57.5 -92q0 -40 -12 -62.5t-54 -50.5h-104q6 14 22 44q17 30 17 34q0 28 -27.5 47t-79.5 19q-57 0 -99.5 -37t-42.5 -95q0 -64 72.5 -98t176.5 -34q80 0 170.5 24.5t155.5 81t65 144.5q0 94 -75.5 128 t-234 62.5t-237.5 73t-79 153.5q0 82 56.5 138t143.5 83q86 27 178 27h3q245 0 245 -155q0 -28 -25.5 -56t-66 -46t-78.5 -18q-68 0 -98.5 32t-30.5 75q0 26 7 33q8 6 50 32q24 -40 44 -52.5t28 -12.5q18 0 36 20.5t18 44.5q0 28 -44 47t-100 19q-90 0 -183 -44.5 t-93 -125.5q0 -74 60 -94t235 -55t260 -93t85 -190q0 -88 -64 -169t-178 -131t-253 -50q-148 0 -218.5 65t-70.5 169z" />
<glyph unicode="t" horiz-adv-x="465" d="M14 880v68q70 2 94.5 16t24.5 62q0 18 -5.5 31.5t-16.5 31t-17 29.5q19 20 52.5 56l67 72t52.5 56q6 -24 6 -63q0 -15 -1 -49t-1 -52q0 -8 1 -23t1 -23q0 -35 -1 -66l-1 -30q0 -24 18 -30t95 -6v-52h-105v-672q0 -74 92 -144q-16 -23 -47 -57.5t-57 -34.5q-20 0 -52 38 t-56.5 114.5t-24.5 187.5v540q-59 34 -69 34q-6 0 -12 -3.5t-16 -12t-22 -18.5z" />
<glyph unicode="u" horiz-adv-x="921" d="M0 393q0 30 15.5 97.5t54 162.5t100.5 195q-42 12 -64 12q-6 0 -28 -4t-52 -4v118q56 -8 100 -10t94 -3t81 -5q-14 -38 -60.5 -118t-66 -117.5t-39 -100t-19.5 -132.5q0 -60 24 -145t89 -153.5t177 -68.5q60 0 111 29.5t81 80.5t30 111v502q0 24 -8 38t-28 38t-29 40h250 q-40 -40 -52.5 -70t-12.5 -67v-47q0 -32 -2 -125t-2 -153q0 -48 4 -180q0 -24 42 -93.5t88 -95.5q-23 -49 -41 -75q-19 -26 -49 -26q-27 0 -48.5 20t-59.5 60t-52 40t-41 -31.5t-50 -52.5t-73 -41.5t-124 -20.5q-56 0 -136.5 40t-142 129.5t-61.5 225.5z" />
<glyph unicode="v" horiz-adv-x="893" d="M10 936h250q-9 -28 -30 -57t-21 -72q0 -46 34.5 -176.5t87.5 -258.5t107 -186q36 35 105.5 168t124.5 273.5t55 204.5q0 50 -18 91t-60 41q-11 0 -67 -67q-24 43 -25 63q0 10 3.5 13.5t6.5 3.5q0 55 23 73q24 19 84 19q70 0 114 -63.5t44 -159.5q0 -82 -88 -267 t-196 -365q-106 -180 -138 -210q-84 110 -140.5 236t-99 261t-82 259t-74.5 176z" />
<glyph unicode="w" horiz-adv-x="1239" d="M18 968h236q-7 -10 -21.5 -27t-20 -29t-5.5 -26q34 -132 93.5 -339t92.5 -244q32 74 74.5 168.5t82.5 188t80 190.5q22 -64 61.5 -176l79 -224t61.5 -176q10 6 71.5 121t111.5 248t50 235q0 50 -19 91t-57 41q-26 0 -49 -56q-70 14 -70 68q0 40 39 70t91 30 q94 0 123.5 -62t33.5 -169q0 -76 -21.5 -153t-60.5 -162.5t-127 -260.5q-90 -175 -154 -305q-37 89 -91 238.5t-71.5 196.5t-43.5 97q-63 -143 -129.5 -293.5t-116.5 -258.5q-64 218 -130.5 457t-88 312t-45.5 123t-60 86z" />
<glyph unicode="x" horiz-adv-x="866" d="M0 -131q30 146 71 241.5t81.5 145.5t94 98t75.5 76q-4 6 -20 35t-70 128q-52 99 -166 316h157h91q-12 -18 -24 -35t-16.5 -24.5t-5.5 -11.5q-2 -2 -2 -6t6 -21q10 -25 30 -76.5t49.5 -100t74.5 -94.5q58 46 145 140.5t87 175.5q0 22 -20.5 50t-45.5 28q-10 0 -12 -2 t-10 -2q-25 0 -58 4q10 72 34 96t84 24q66 0 100 -47t34 -112q0 -60 -34 -122.5t-82 -118.5t-112 -118t-75 -75q38 -49 104.5 -136t133.5 -174t104 -137q-40 -18 -117 -18q-22 0 -70 2t-76 2q6 14 9 20q3 4 4 6h-1q0 -2 -1 -2q-4 0 -4 29q0 42 -36.5 109.5t-82.5 127.5 q-48 60 -68 74q-76 -76 -126 -153t-50 -131q0 -20 8 -32t38 -38q-32 -7 -126 -72.5t-104 -68.5z" />
<glyph unicode="y" horiz-adv-x="903" d="M16 416q0 84 18.5 143t54 135.5t44.5 114.5q-12 8 -35 18.5t-63 34.5q102 48 231 78q-4 -56 -46.5 -144t-64.5 -154t-22 -188q0 -86 34.5 -165t97.5 -128t145 -49q64 0 118 35.5t85.5 94t31.5 120.5v474q0 22 -8.5 39t-21.5 33t-33 40q148 16 149 16q33 0 113 -16 q-31 -42 -58.5 -76t-27.5 -40q0 -3 5 -13.5t9 -26.5t4 -48q2 -98 2 -244q0 -182 -2 -308q-3 -210 -54 -337t-145.5 -182.5t-232.5 -55.5q-55 0 -100.5 27.5t-45.5 77.5q0 22 36 44t90 34q8 -58 16 -80.5t25 -30t57 -7.5q86 0 129 46t94 149v235l-6 14q-3 8 -6 14 q-32 -22 -70.5 -53t-61.5 -45t-61 -23t-96 -9q-90 0 -165.5 48t-119 140t-43.5 218z" />
<glyph unicode="z" horiz-adv-x="884" d="M8 -33q97 242 157 360t91.5 157.5t133.5 155.5q104 114 192 238h-154q-94 -8 -140 -25t-112 -51q-64 -34 -116 -46q10 32 44 110q33 80 68 132q78 -52 114 -52q12 0 27 6t25 6h471q-24 -26 -98.5 -108t-175.5 -205t-187 -251q-84 -129 -112 -224q43 -9 118.5 -24.5 t151.5 -31t118 -24.5q34 6 84 28q50 20 50 64q0 18 -21.5 42t-46.5 24q-6 0 -14 -11.5t-27 -23t-63 -19.5v105q39 39 53.5 47t50.5 8q119 0 119 -133q0 -104 -71.5 -157.5t-203.5 -53.5q-52 0 -94 9t-112 26t-94 17q-42 0 -62 -10t-72.5 -43t-91.5 -42z" />
<glyph unicode="&#xad;" d="M20 638q14 80 50.5 110t93.5 30q36 0 108.5 -14t104.5 -14q18 0 34 5t46.5 20t34.5 15q0 -80 -44 -120t-110 -40q2 0 -19.5 8t-55 13.5t-79.5 5.5q-80 -1 -164 -19z" />
<glyph unicode="&#x2000;" horiz-adv-x="770" />
<glyph unicode="&#x2001;" horiz-adv-x="1540" />
<glyph unicode="&#x2002;" horiz-adv-x="770" />
<glyph unicode="&#x2003;" horiz-adv-x="1540" />
<glyph unicode="&#x2004;" horiz-adv-x="513" />
<glyph unicode="&#x2005;" horiz-adv-x="385" />
<glyph unicode="&#x2006;" horiz-adv-x="256" />
<glyph unicode="&#x2007;" horiz-adv-x="256" />
<glyph unicode="&#x2008;" horiz-adv-x="192" />
<glyph unicode="&#x2009;" horiz-adv-x="308" />
<glyph unicode="&#x200a;" horiz-adv-x="85" />
<glyph unicode="&#x2010;" d="M20 638q14 80 50.5 110t93.5 30q36 0 108.5 -14t104.5 -14q18 0 34 5t46.5 20t34.5 15q0 -80 -44 -120t-110 -40q2 0 -19.5 8t-55 13.5t-79.5 5.5q-80 -1 -164 -19z" />
<glyph unicode="&#x2011;" d="M20 638q14 80 50.5 110t93.5 30q36 0 108.5 -14t104.5 -14q18 0 34 5t46.5 20t34.5 15q0 -80 -44 -120t-110 -40q2 0 -19.5 8t-55 13.5t-79.5 5.5q-80 -1 -164 -19z" />
<glyph unicode="&#x2012;" d="M20 638q14 80 50.5 110t93.5 30q36 0 108.5 -14t104.5 -14q18 0 34 5t46.5 20t34.5 15q0 -80 -44 -120t-110 -40q2 0 -19.5 8t-55 13.5t-79.5 5.5q-80 -1 -164 -19z" />
<glyph unicode="&#x2013;" horiz-adv-x="1137" d="M20 638q30 80 109.5 110t202.5 30q79 0 236 -14t227 -14q39 0 73.5 5t100.5 20t75 15q0 -80 -95.5 -120t-238.5 -40q4 0 -42.5 8t-119 13.5t-172.5 5.5q-174 -1 -356 -19z" />
<glyph unicode="&#x2014;" horiz-adv-x="2161" d="M20 638q61 80 219 110t406 30q156 0 470.5 -14t453.5 -14q78 0 147.5 5t202 20t149.5 15q0 -80 -191 -120t-477 -40q8 0 -85 8t-238.5 13.5t-344.5 5.5q-348 -1 -712 -19z" />
<glyph unicode="&#x202f;" horiz-adv-x="308" />
<glyph unicode="&#x205f;" horiz-adv-x="385" />
<glyph unicode="&#xe000;" horiz-adv-x="1055" d="M0 0v1055h1055v-1055h-1055z" />
</font>
</defs>
</svg>
