<?xml version="1.0" standalone="no"?>
<!DOCTYPE svg PUBLIC "-//W3C//DTD SVG 1.1//EN" "http://www.w3.org/Graphics/SVG/1.1/DTD/svg11.dtd" >
<svg xmlns="http://www.w3.org/2000/svg">
<metadata></metadata>
<defs>
<font id="waiting_for_the_sunriseRg" horiz-adv-x="1017" >
<font-face units-per-em="2048" ascent="1638" descent="-410" />
<missing-glyph horiz-adv-x="1024" />
<glyph horiz-adv-x="2048" />
<glyph horiz-adv-x="2048" />
<glyph unicode="&#xd;" horiz-adv-x="1024" />
<glyph unicode=" "  horiz-adv-x="1024" />
<glyph unicode="&#x09;" horiz-adv-x="1024" />
<glyph unicode="&#xa0;" horiz-adv-x="1024" />
<glyph unicode="!" horiz-adv-x="270" d="M-2 1909q0 20 9 35.5t32 15.5q25 0 39 -29q16 -162 33.5 -337t33 -355t25.5 -358.5t10 -343.5q0 -49 -53 -50q-23 0 -38 9.5t-11 44.5q0 23 1 70.5t1 109t1 129.5t0 129t-2 109.5t-1 70.5q-2 18 -7 73.5t-13.5 130.5t-17.5 158t-17.5 157.5t-14.5 129t-8 72.5 q0 2 -1 13.5t-1 15.5zM102 90q0 23 16.5 32t35.5 9q35 0 45 -17.5t10 -50.5q0 -20 -6 -42.5t-35 -22.5q-14 0 -25.5 10t-20.5 24.5t-14.5 31t-5.5 26.5z" />
<glyph unicode="&#x22;" horiz-adv-x="387" d="M39 1559v16q0 14 3.5 20.5t23.5 16.5q6 6 20 -17.5t28.5 -60.5t27 -83t15.5 -85t-5.5 -65.5t-34.5 -26.5q-16 0 -30.5 3t-20.5 26zM172 1589q10 23 35 23q33 0 55.5 -36t36.5 -82t19.5 -91t5.5 -64q0 -23 -17.5 -32t-38.5 -9q-31 0 -45 15z" />
<glyph unicode="#" horiz-adv-x="1712" d="M39 721q0 10 10 40t17 38q20 4 71 14t108.5 22.5t109 23.5t71.5 18q6 2 17.5 5t23.5 7t21.5 7t13.5 5q6 4 16 13.5t10 13.5l52 411q0 2 4 4.5t6 2.5q20 0 30.5 -24t10.5 -34v-356q25 0 68.5 4t97 10t109 13.5t100.5 15.5t73.5 16t28.5 15v368l14 -1q15 -1 32 -4t30.5 -10 t13.5 -20v-333q20 0 71.5 4t109 8t108.5 7t72 5h30q29 0 55.5 -13t43.5 -38q-33 -43 -69 -61.5t-87 -18.5q-25 0 -40 4t-27.5 10.5t-28 10.5t-41.5 4q-12 0 -45 -1t-67 -3t-59.5 -8.5t-25.5 -14.5v-209q12 0 46 3t77 6.5t90 5.5t86 -1.5t64.5 -12.5t25.5 -27q0 -10 -5 -22.5 t-21 -16.5q-10 -2 -64.5 -8.5t-118 -12.5t-118 -11t-62.5 -3q-2 -23 -5 -81t-8 -125t-8 -125t-6 -81q0 -18 1.5 -44.5t-4 -51.5t-22 -41t-50.5 -16q-31 27 -42.5 58.5t-9 65t16.5 67.5t35 65q0 18 -1 61t-3 92t-4.5 92t-2.5 62q-4 0 -8 2t-8 0q-31 -6 -94.5 -17.5 t-129 -23.5t-119.5 -22.5t-69 -12.5q-76 -16 -111.5 -73.5t-50 -131t-14.5 -151.5t-4 -133q-20 -16 -39.5 -23.5t-44.5 -7.5q0 111 14.5 218t14.5 218q-57 0 -109.5 -10t-107.5 -10h-12q-6 4 -27 24.5t-25 26.5q18 53 52 68.5t74 15.5t82 -4t77 11t56.5 61.5t21.5 144.5 q0 4 -1 19.5t-1 19.5q-51 -6 -101.5 -23.5t-99.5 -36t-98 -33t-101 -14.5h-15t-21.5 2t-18.5 8.5t-8 18.5zM573 590q12 0 56.5 6t103 17.5t122 23.5t117.5 23.5t89 21.5t35 14v189q-113 0 -237 -18.5t-228 -41.5q-25 -10 -36 -40.5t-16.5 -67.5t-5.5 -73v-54z" />
<glyph unicode="$" horiz-adv-x="876" d="M49 1057q0 23 5 39t24 37q12 14 45 46.5t69.5 69.5t69.5 71t47 46q49 12 91 29.5t85 34t88 28.5t99 12q33 0 59.5 -2t46 -12t29.5 -32.5t10 -61.5q-41 0 -72.5 15.5t-72.5 15.5q-78 0 -148.5 -34t-136.5 -71v-20.5t-1 -30.5t-1 -30.5v-20.5q0 -57 1 -103.5t4 -91.5t8 -97 t14 -122q27 -39 70.5 -63.5t84.5 -38.5v592q0 16 13.5 22t23.5 6q25 0 39 -28q0 -23 -1 -81.5t-1 -125t1 -125t1 -80.5q4 -88 18.5 -144.5t35 -94.5t44 -64.5t43 -55t31.5 -65.5t12 -94q0 -82 -43 -144.5t-108.5 -104.5t-143 -63.5t-147.5 -21.5q-37 0 -81 8t-86 24.5 t-78.5 41t-61.5 57.5q0 4 -1 17.5t-2 27.5t-1 26.5v18.5q0 18 1 48t9 57.5t25.5 48t48.5 20.5q0 -39 -15.5 -74.5t-15.5 -74.5q0 -37 17.5 -62.5t45 -42t59.5 -23.5t60 -7v587q-35 31 -80 70t-85 84t-67.5 97t-27.5 110zM154 1042q0 -37 14 -66.5t36.5 -56t50.5 -50 t54 -44.5v103v73.5t-3 64.5t-8 65.5t-15 78.5q0 2 -5.5 2h-7.5q-25 0 -46 -18t-36.5 -44t-24.5 -55.5t-9 -52.5zM404.5 336q-1.5 -37 2 -78t11.5 -76t25.5 -57.5t45.5 -22.5q45 0 87 17.5t42 66.5q0 84 -3 154t-21.5 127t-60 100t-121.5 76q0 -12 -1 -41t-1 -61.5v-61.5v-41 q0 -8 -2 -36.5t-3.5 -65.5zM690 322.5q-4 -54.5 10 -95.5q0 2 3.5 18.5t8.5 36t8 35t3 19.5q0 29 -2 53.5t-27 48.5v-26q0 -35 -4 -89.5z" />
<glyph unicode="%" horiz-adv-x="1261" d="M37 1188q0 39 38 75.5t90 65.5t106.5 46.5t88.5 17.5q51 0 89 -25t66 -54.5t46.5 -54t30.5 -24.5q4 0 8 1t6 1l258 129h72l-279 -1339q-4 -16 -15 -22.5t-24 -6.5q-16 0 -25 8t-12 20.5t-3 26v25.5q0 6 1 25.5t1 25.5q8 27 22 83t32.5 128t38 149.5t37 149.5t31 128 t19.5 83q16 70 21 108.5t5 69.5t-3 69t-3 109q-68 0 -110.5 -30.5t-73.5 -75.5t-56.5 -98.5t-56 -98.5t-71.5 -75.5t-105 -30.5q-41 0 -64.5 22.5t-35.5 54t-20.5 67.5t-18.5 65q-12 31 -34.5 46t-44 30.5t-37 38t-15.5 67.5zM141 1171q0 -23 17.5 -32t38.5 -9q6 0 13 1.5 t9 1.5l78 129q-2 0 -6 1t-8 1q-12 0 -36 -7.5t-47.5 -19.5t-41 -30t-17.5 -36zM276 897q33 0 65 13.5t59.5 35t48 50t28.5 61.5h-26q-82 0 -128.5 -37t-46.5 -123zM342 1128q23 0 47.5 5.5t45 15.5t33.5 27.5t13 42.5q0 23 -7 47t-36 24q-23 0 -40 -18.5t-29.5 -45 t-19.5 -53t-7 -45.5zM887 193q0 129 49 230t133 195q2 0 6 1.5t6 1.5q47 0 72 -30t36 -72t12 -86t1 -73q0 -41 -8 -99t-29.5 -111.5t-60.5 -90t-98 -36.5q-33 0 -55.5 16t-37 40.5t-20.5 54.5t-6 59zM990 161q1 -11 7.5 -20.5t20.5 -11.5q39 27 61.5 56.5t31.5 64.5t11 73.5 t2 82.5q0 16 -1 47.5t-3 35.5l-24 27q-45 -74 -75 -150.5t-30 -162.5q0 -8 -1 -19.5t0 -22.5z" />
<glyph unicode="&#x26;" horiz-adv-x="1042" d="M37 1030q0 4 1 13.5t1 13.5q37 39 93 100.5t121.5 119.5t136.5 99t138 41q6 0 16.5 -10t10.5 -16v-115q0 -123 -14.5 -242t-14.5 -241v-43t2 -29l207 -205q0 -2 8.5 -3t12.5 -1q29 0 51 13.5t42.5 28.5t42 28.5t48.5 13.5q55 0 55 -55q0 -31 -19.5 -45.5t-45 -24.5 t-52 -22.5t-40.5 -36.5l180 -181q4 -4 -6.5 -22.5t-20.5 -28.5q0 -2 -4 -2h-8h-7t-5 2q-10 8 -36 30.5t-54.5 47.5t-54 47.5t-36.5 30.5q-4 4 -24.5 13t-26.5 11q-31 -23 -88 -82t-117.5 -121.5t-115 -110.5t-80.5 -48h-8q-2 0 -4 2q-2 4 -6.5 14.5t-8.5 22.5t-7 23.5 t-3 17.5q12 55 30.5 125.5t35 147.5t27.5 156t11 150q0 49 -26.5 84t-67.5 62.5t-88 49t-88 47.5t-67.5 56.5t-26.5 73.5zM193 1030q53 -59 111 -109.5t122 -95.5q2 20 9 75.5t15.5 117t15.5 116t11 76.5v15q0 20 -7 42.5t-30 22.5q-35 0 -78 -27.5t-80.5 -67.5t-63 -85 t-25.5 -80zM424 244q0 -4 1 -18.5t1 -18.5l256 231l-180 180q-31 -37 -46.5 -81.5t-22.5 -95t-8 -101.5t-1 -96z" />
<glyph unicode="'" horiz-adv-x="219" d="M49 1321q18 0 45 -5t35 -28q8 -57 14.5 -101t8.5 -85t3 -83t1 -93v-24.5t-1 -39t-1 -39v-24.5q-14 -29 -39 -29q-20 0 -27.5 15t-9.5 38q-2 27 -5 92.5t-8.5 140t-8.5 140.5t-5 92q0 2 -1 15.5t-1 17.5z" />
<glyph unicode="(" horiz-adv-x="425" d="M47 761q2 165 33 310.5t87 255t136 152.5v-27v-25q-25 -94 -54.5 -181t-56 -174t-45 -176t-18.5 -185q0 -86 3 -150.5t12.5 -116t26.5 -94.5t46 -89t71 -98t101 -120q0 -2 1 -6t1 -8q0 -2 -1 -6.5t-1 -6.5q-6 -10 -26.5 -29.5t-24.5 -21.5q-102 70 -168 197t-95.5 280.5 t-27.5 318.5z" />
<glyph unicode=")" horiz-adv-x="477" d="M-76 1411q70 2 137.5 -59.5t126 -159.5t106.5 -219t80 -238t46 -217t6 -158q0 -123 -52 -242.5t-157 -193.5q-20 6 -23.5 21.5t-3.5 31.5q0 37 25 78t54.5 89.5t54 102.5t24.5 115q0 72 -17.5 177.5t-46 214t-67.5 206t-82 152.5q-20 25 -55 59.5t-70 74.5t-60.5 82 t-25.5 83z" />
<glyph unicode="*" horiz-adv-x="888" d="M37 801q0 39 32.5 44t71.5 1t72 -3t33 31q0 37 -21.5 67t-46 60.5t-46 64.5t-21.5 75q39 0 66.5 -34t50 -74t47 -73.5t61.5 -33.5h12q6 16 23.5 57t38 86t40 85t27.5 56q4 6 22.5 25.5t28.5 26.5h4q2 0 4.5 1t4.5 1q16 0 28.5 -12.5t12.5 -28.5q0 -39 -19.5 -76t-44 -76 t-44 -80t-19.5 -86q88 0 173 10.5t173 10.5q16 0 27.5 -11.5t11.5 -27.5q0 -10 -23.5 -19.5t-60.5 -17.5t-83 -15.5t-89 -13.5t-79 -11t-54 -11q53 -63 121.5 -112.5t154.5 -49.5q0 -33 -14.5 -64.5t-55.5 -31.5q-47 0 -80.5 23.5t-65.5 54t-63.5 60.5t-72.5 42 q-4 -14 -15.5 -57t-31 -89.5t-49 -83t-68.5 -36.5q0 39 8 74.5t18.5 71.5t18.5 72t8 72h-198q-23 0 -26 21.5t-3 34.5z" />
<glyph unicode="+" horiz-adv-x="940" d="M37 631q0 12 4 38.5t25 26.5h231q2 0 11 14.5t14 22.5v10q0 104 -13.5 205t-13.5 205q27 0 45 -24.5t29.5 -62.5t19.5 -86t13.5 -94t10.5 -87t13 -66h25q113 0 221 17.5t225 17.5q0 -61 -55.5 -80.5t-132 -24t-155.5 -6.5t-128 -26q14 -82 22.5 -166t8.5 -168h-82l-4 23 q-4 24 -8.5 57t-8.5 67.5t-6 57.5q-2 14 -2 32.5t-3 35t-12.5 26.5t-29.5 10q-55 0 -107.5 -14t-105.5 -14q-51 0 -51 53z" />
<glyph unicode="," horiz-adv-x="372" d="M37 270q0 51 22.5 59.5t69.5 8.5q61 0 99 -42t59.5 -101.5t29 -126t7.5 -115.5q0 -47 -6.5 -116.5t-26 -134t-57 -111t-99.5 -46.5q0 49 13.5 94.5t30 90.5t29.5 92t13 102q0 90 -13 143.5t-33.5 83t-45.5 41t-45.5 20.5t-33.5 19.5t-13 38.5z" />
<glyph unicode="-" horiz-adv-x="1126" d="M80 909q0 18 4 47t29 37q51 8 117.5 13.5t137 9.5t138 7t119.5 7q4 0 31.5 1t62.5 2t69.5 1h55.5h44t66.5 -1t65.5 -2t43 -1q8 -4 18.5 -22.5t8.5 -28.5t-21.5 -29.5t-30.5 -21.5q-27 2 -81 3t-122.5 1h-144.5h-144.5t-122.5 -1t-81 -3q-43 -4 -89 -6t-89 -7 q-4 0 -16.5 -1t-25.5 -2t-25.5 -2t-16.5 -1z" />
<glyph unicode="." horiz-adv-x="270" d="M49 92q0 35 19.5 62.5t58.5 27.5q35 0 58.5 -13t23.5 -52q0 -45 -29.5 -83t-77.5 -38q-18 0 -29.5 9t-16.5 23.5t-6 32t-1 31.5z" />
<glyph unicode="/" horiz-adv-x="552" d="M25 57v6q0 18 8 34t20 32l361 1186q4 12 28.5 34.5t46.5 22.5v-84q-12 -41 -38.5 -128t-59.5 -196.5t-69.5 -229.5t-69.5 -229.5t-58.5 -196.5t-37.5 -128q-6 -23 -9.5 -49.5t-8.5 -51t-18.5 -46t-41.5 -33.5q-6 4 -26.5 24.5t-24.5 26.5q-2 4 -2 6z" />
<glyph unicode="0" horiz-adv-x="901" d="M61 539q0 145 7.5 265t47.5 205t127 131t246 46q174 0 273.5 -87t99.5 -274q0 -76 -12 -167t-39 -182t-69 -178t-101 -153.5t-139 -106.5t-180 -40q-66 0 -111 27.5t-73.5 73.5t-44 104.5t-23 119t-8.5 117t-1 99.5zM139 514q0 -49 3 -120.5t21.5 -136t57.5 -111 t109 -46.5q121 0 207 66.5t141 166t81.5 215.5t26.5 214q0 80 -11 143.5t-43 109.5t-87 70.5t-143 24.5q-131 0 -204 -52t-108.5 -137t-43 -191.5t-7.5 -215.5z" />
<glyph unicode="1" horiz-adv-x="258" d="M37 1227q29 0 55.5 -16.5t24.5 -51.5q4 -39 12 -122t17.5 -187.5t21.5 -219t21.5 -219t17.5 -187.5t12 -122v-14q0 -10 -5 -25.5t-13 -30t-20.5 -24.5t-24.5 -10q-25 0 -39 29q-2 31 -6.5 97t-9.5 150t-11 176.5t-11 176.5t-8 150.5t-5 99.5q-6 88 -17.5 175t-11.5 175z " />
<glyph unicode="2" horiz-adv-x="1056" d="M39 952q41 66 82 123.5t90 99.5t110.5 66.5t145.5 24.5q82 0 110.5 -53.5t28.5 -131.5q0 -109 -32.5 -229.5t-80 -240t-100.5 -231.5t-96 -200v-26l643 206q2 0 12.5 1t14.5 1q14 0 30.5 -3t20.5 -23q2 -10 4 -26.5t4 -30.5q2 -18 2 -35h-242l-598 -238q0 90 24 175 t59.5 168t76.5 166t77 167t59.5 170t23.5 178q0 8 -1 26.5t-2 39t-2 39t-1 24.5q-6 23 -19.5 25t-29.5 2q-70 0 -114 -45t-79 -98.5t-70.5 -98.5t-89.5 -45q-10 0 -22 1t-22.5 5t-15.5 15.5t-1 31.5z" />
<glyph unicode="3" horiz-adv-x="862" d="M37 1157q0 31 36 58.5t91 51t122.5 42t130 32t114 20.5t75.5 7q16 0 45 -1t31 -1q6 -2 16.5 -12.5t10.5 -14.5q0 -2 -10.5 -21.5t-16.5 -29.5q-8 -14 -36 -58t-65.5 -101.5t-78.5 -124t-79 -124t-65.5 -101.5t-35.5 -58q-4 -6 -13.5 -25.5t-11.5 -25.5q43 20 77 30.5 t64.5 15.5t63.5 6t73 1q109 0 174.5 -45t65.5 -160q0 -94 -35 -187t-97 -167t-148.5 -119t-186.5 -45q-20 0 -30.5 8t-15.5 20.5t-6 29t-1 32.5q0 41 9 84t56 57v-122q12 -2 25 -5q10 -2 21.5 -3t19.5 1q68 12 121 50t90 92.5t56.5 118t19.5 126.5v20.5t-1 31t-2 31t-1 20.5 q-23 35 -57 44t-70 9q-74 0 -139.5 -29.5t-124 -66.5t-108.5 -66.5t-93 -29.5v114q12 20 38.5 62.5t59.5 95.5t70 111.5t69.5 113t58 96t38.5 62.5q6 8 17 29.5t23.5 46t22.5 46t14 32.5q-6 2 -25.5 3t-25.5 1q-53 0 -100 -24.5t-93 -55.5t-90 -55.5t-92 -24.5q-27 0 -46 11 t-19 40z" />
<glyph unicode="4" d="M25 322q0 2 1 7t1 7q258 344 411 745q-10 41 -1 74t57 33q23 0 34 -9.5t15 -45.5l51 -566q4 -55 9 -67.5t36 -12.5q37 0 73 8.5t70.5 19.5t68.5 19.5t67 8.5q29 0 47 -24.5t18 -53.5q0 -16 -4 -30.5t-25 -22.5q-78 6 -168 3t-168 -28v-14q0 -70 14.5 -137.5t14.5 -137.5 q0 -12 1 -28.5t-2 -33t-11 -27.5t-29 -11q-25 0 -39 29q0 12 -4 44.5t-8 69.5t-7 71t-5 46q-6 35 -7 55.5t-4.5 31.5t-13.5 14t-35 3q-51 0 -101 -16t-99.5 -36.5t-97.5 -37t-95 -16.5q-25 0 -45 21.5t-20 44.5zM207 406q27 0 79 6t104 17t90 26.5t36 33.5l-51 412 l-258 -463v-32z" />
<glyph unicode="5" horiz-adv-x="888" d="M39 1030v31q0 16 2 27.5t25 19.5q51 6 111.5 13t120.5 19.5t119.5 30t110.5 39.5q2 2 14.5 9.5t25 16.5t23.5 16.5t15 9.5q10 6 29.5 16t21.5 10q41 0 47.5 -17.5t6.5 -43.5q0 -16 -2 -39t-27 -29l-514 -135v-268q61 0 135 1t148.5 -5.5t144.5 -23.5t124 -55t87 -99.5 t33 -155.5q0 -86 -35 -162t-94.5 -133t-137 -91t-161.5 -34q-25 0 -50.5 3t-45 12.5t-33 27.5t-13.5 47q0 35 11.5 66.5t40.5 52.5q6 -35 14 -55.5t20.5 -31.5t33 -15.5t50.5 -4.5q55 0 111.5 25t103.5 66.5t77 95t30 112.5q0 78 -35 134.5t-91 93.5t-125 54t-136 17 q-35 0 -68 -8t-64.5 -19.5t-63.5 -19.5t-64 -8q-16 0 -29.5 2t-19.5 25q-2 20 -5.5 71.5t-8.5 108.5t-8 108.5t-5 71.5z" />
<glyph unicode="6" horiz-adv-x="874" d="M61 616q0 147 17.5 287.5t62.5 282.5h6q2 0 3.5 1t3.5 1q23 0 38 -18.5t25 -36.5q-43 -127 -60.5 -261.5t-17.5 -267.5q0 -51 8.5 -136t34 -167t74.5 -141.5t129 -59.5q4 0 19.5 1t19.5 1q25 80 50.5 160t58 152.5t79.5 135t115 107.5q59 0 88 -49t29 -121.5t-29 -157.5 t-83 -158t-132 -122t-176 -49q-76 0 -133.5 29.5t-97 79t-65.5 114t-41 133t-20.5 136t-5.5 124.5zM578 231q0 -20 8 -36.5t30 -16.5q4 0 8.5 1t6.5 1q39 47 71.5 99.5t51 100.5t18.5 85t-27 53q-31 0 -60.5 -36t-54 -83t-38.5 -95t-14 -73z" />
<glyph unicode="7" horiz-adv-x="991" d="M27 1159q-2 10 8 28.5t18 22.5q92 -10 182.5 1.5t179.5 28.5t179 33.5t182 16.5q51 0 51 -53q-43 -135 -50 -281.5t5 -296.5q8 0 24.5 2.5t36 4.5t36 4t24.5 0q4 -2 14.5 -11.5t10.5 -15.5q-2 -4 -11.5 -13t-13.5 -12q-8 -4 -30.5 -11t-47 -15t-47 -15.5t-30.5 -9.5 l-78 -540q-2 -12 -13.5 -19.5t-26 -10.5t-27.5 -4t-17 -1q0 70 8 137.5t19.5 136t19.5 136t8 137.5q-37 0 -74 -8.5t-73.5 -17.5t-73.5 -17.5t-76 -8.5q-41 0 -53 33t-12 68q16 0 52 1t80 5t91 11t85 19.5t61.5 30t21.5 41.5q2 27 5 92.5t8 139t8 139.5t5 92q0 4 -1 11.5 t-1 11.5q-72 0 -142.5 -12.5t-141 -26t-142 -25.5t-143.5 -12q-31 0 -59.5 5t-38.5 48z" />
<glyph unicode="8" horiz-adv-x="811" d="M49 838q-2 20 0 73.5t15.5 118t42 131t77.5 115.5t124 69.5t181 -6.5q45 0 71 -28.5t39 -68.5t17.5 -82t4.5 -70q0 -35 -8.5 -64t-19.5 -57.5t-19.5 -57t-8.5 -61.5q0 -4 1 -13.5t1 -11.5q102 -78 141.5 -171t39.5 -218q0 -78 -39 -155.5t-101.5 -140t-141.5 -101.5 t-157 -39q-49 0 -75.5 21.5t-39 55.5t-14.5 72.5t-2 73.5q0 113 29 216.5t76 203.5q-66 -16 -110 -8t-71.5 34.5t-40 69.5t-12.5 99zM127 862q0 -25 3 -49.5t13.5 -44.5t27.5 -33.5t48 -13.5q61 0 119.5 38t104.5 94t74 121.5t28 121.5v18t-1 26.5t-2 27t-1 18.5 q-41 51 -82 65.5t-105 14.5q-66 0 -108.5 -43t-69 -106.5t-38 -133.5t-11.5 -121zM254 221q0 -25 1 -47t8 -38.5t22.5 -26t44.5 -9.5q63 0 124.5 32t109.5 82t78 113.5t30 125.5q0 25 -8.5 69.5t-25.5 89.5t-45 78t-65 33h-9t-5 -2q-51 -49 -99 -98.5t-86 -105.5t-58.5 -128 t-16.5 -168z" />
<glyph unicode="9" horiz-adv-x="966" d="M25 578q0 57 29.5 125.5t78.5 136t112.5 131t131 113t134.5 78t122 28.5q35 0 82 -14.5t89 -41t70.5 -62.5t28.5 -81v-12q-4 -10 -13 -39t-13 -39l-103 -850l-51 -51q-14 2 -20.5 13.5t-8.5 25.5t-1 27.5t1 19.5q0 74 8.5 146.5t19.5 145.5t19.5 145.5t8.5 146.5 q0 10 -1 38.5t-1 39.5q-20 -18 -75 -59.5t-116 -86.5t-116.5 -85t-78.5 -54q-53 -35 -91 -44t-89 -9q-82 0 -119.5 45t-37.5 123zM104 567q0 -8 10.5 -27.5t14.5 -23.5q8 -2 32.5 -3t33.5 -1q49 0 109.5 19.5t122.5 52t120.5 79t103.5 97.5t73 107.5t28 111.5q0 10 -1 39 t-3 39q-25 25 -54.5 26.5t-60.5 1.5q-82 0 -175 -48t-171 -123.5t-130.5 -167t-52.5 -179.5z" />
<glyph unicode=":" horiz-adv-x="399" d="M57 836q0 35 12.5 69.5t35 62t54 45t68.5 17.5q23 0 36 -10t20.5 -26.5t9.5 -35t2 -32.5q0 -31 -13.5 -58.5t-36 -49t-51 -35t-59.5 -13.5q-29 0 -53.5 17.5t-24.5 48.5zM86 326q0 23 7 54.5t22.5 61t37 50t52.5 20.5q25 0 46 -11.5t37.5 -28.5t27 -39.5t10.5 -43.5 q2 -25 -14.5 -54.5t-42 -55t-53.5 -42t-46 -14.5q-47 0 -65.5 32t-18.5 71z" />
<glyph unicode=";" horiz-adv-x="401" d="M49 -174q0 27 6 63.5t21.5 68.5t41 54.5t62.5 22.5q43 0 81 -38t65.5 -91t44 -110.5t16.5 -96.5q0 -23 -5 -58.5t-16.5 -69.5t-32 -57.5t-50.5 -23.5q-16 0 -31 3t-21 26q20 23 30.5 42t16 37.5t6.5 39t1 45.5q0 41 -7.5 79.5t-46.5 65.5q-23 -47 -49 -64.5t-67 -17.5 q-39 0 -52.5 22.5t-13.5 57.5zM49 549q0 20 10.5 47t27.5 51.5t37.5 41t41.5 16.5q41 0 66.5 -27t25.5 -64q0 -29 -5 -58.5t-18.5 -55t-36 -42t-55.5 -16.5q-45 0 -69.5 30t-24.5 77z" />
<glyph unicode="&#x3c;" horiz-adv-x="862" d="M47 324q0 37 22.5 81t57.5 94t75 105t74.5 114.5t58 122t23.5 128.5q2 0 6.5 1t6.5 1q16 0 25.5 -8.5t12.5 -19.5t3 -24.5v-25.5q0 -41 -3 -65.5t-24 -65.5q-12 -23 -41 -78t-61.5 -116.5t-62.5 -116t-42 -74.5q6 -2 20.5 -6t31 -8.5t30.5 -8.5t21 -4q29 -4 102.5 -15 t155.5 -23.5t155.5 -24t102.5 -15.5q23 -6 25.5 -20t2.5 -31q0 -53 -53 -53q-25 0 -41 5t-39 24l-616 75q-23 4 -26 21.5t-3 30.5z" />
<glyph unicode="=" horiz-adv-x="862" d="M61 362q0 23 9.5 36.5t44.5 13.5h669q16 0 21.5 -14.5t5.5 -24.5q0 -25 -19.5 -45.5t-46.5 -20.5q-25 0 -38 29h-115q-123 0 -241 -13.5t-240 -13.5q-50 0 -50 53zM88 709v6q0 2 2 6q123 12 226.5 19.5t218.5 7.5h50.5t66.5 -5.5t58.5 -18.5t24.5 -42q0 -23 -15 -31 t-36 -8q-80 0 -145.5 6t-130 12.5t-135 9.5t-158.5 -1q-27 12 -27 39z" />
<glyph unicode="&#x3e;" horiz-adv-x="681" d="M18 952h78l28 -20q28 -21 73 -54.5t100 -75.5t112.5 -85t109.5 -83t91 -69q16 -12 22.5 -17t6.5 -22q0 -2 -1 -3t-1 -3v-6q-4 -8 -13.5 -27.5t-13.5 -23.5l-334 -387q-4 -2 -6 -2h-6q-29 0 -36 21t-7 44q0 6 1 20.5t3 18.5q12 12 45 46t70 71t70.5 69.5t46.5 47.5l15 20 t17.5 24.5t13.5 21.5l5 9z" />
<glyph unicode="?" horiz-adv-x="811" d="M37 1018q0 68 52 119t124 84.5t147.5 51t124.5 17.5q141 0 209 -65.5t68 -206.5q0 -92 -33 -175t-76 -162t-87 -158t-64 -163q-4 -16 -19.5 -23t-34 -9t-35 -2h-22.5q0 68 21.5 128t54.5 116.5t70.5 110.5t70.5 110.5t54.5 117.5t21.5 133q0 82 -59.5 126t-132.5 44 q-72 0 -123.5 -16t-94.5 -47t-79.5 -74t-77.5 -96q-4 0 -13.5 -1t-13.5 -1q-18 0 -35.5 9t-17.5 32zM476 82.5q5 11.5 16.5 16.5t23.5 6t23 1q23 0 45 -6t22 -37q0 -10 -9 -21t-21.5 -21.5t-25.5 -16.5t-22 -4q-10 2 -29.5 21.5t-21.5 29.5q-6 20 -1 31.5z" />
<glyph unicode="@" horiz-adv-x="1095" d="M49 346q0 82 24.5 177t69.5 191.5t107.5 185.5t137.5 158.5t159 110.5t174 41q78 0 132 -49t89 -126t54.5 -171t28.5 -185t11 -170t2 -122h-86q-4 20 -5 49t-4 57.5t-11 53t-27 41.5q-12 -27 -38.5 -67t-61.5 -85t-75 -91t-79 -82t-74.5 -59.5t-62.5 -23.5 q-41 0 -69.5 21.5t-47 54.5t-28 72t-9.5 71q6 90 48.5 195.5t109 191.5t152.5 136.5t180 29.5q6 0 16.5 10.5t10.5 16.5q0 29 -15.5 52.5t-40 41t-52.5 27.5t-52 10q-123 0 -230.5 -76t-187.5 -189.5t-126 -243.5t-46 -241q-6 -90 31 -149t98 -89t137 -29t148 36q6 0 16 -10 t10 -17q-37 -49 -98 -75.5t-121 -26.5q-74 0 -129 29.5t-93 78t-57.5 110.5t-19.5 128zM461 381q0 -12 1 -26.5t1 -28v-17.5q12 -27 39 -26q37 0 78 29.5t79.5 76.5t73.5 106.5t61.5 117t42 107.5t15.5 81q0 33 -22.5 55.5t-57.5 22.5q-70 0 -127 -54.5t-98 -131.5 t-63.5 -158.5t-22.5 -135.5v-18z" />
<glyph unicode="A" horiz-adv-x="1198" d="M12 -30q2 18 2 30l387 1649q4 18 19.5 42.5t32.5 34.5q6 -20 18 -41.5t33 -35.5l618 -1416q2 -2 2 -11v-13q0 -23 -9 -39t-32 -16q-27 0 -39 26l-153 361q-2 2 -29.5 5t-44.5 3q-8 0 -24.5 -1t-34 -2t-31.5 -3t-16 -2q-51 -8 -133 -23.5t-160 -32t-135.5 -30t-61.5 -17.5 l-129 -514q-4 -16 -15.5 -22t-23.5 -6q-18 0 -27.5 11t-12.5 27q-2 10 -2 21q0 8 1 15zM246 559q33 0 88 5t118.5 13.5t128 21.5t118 27.5t86 32t32.5 35.5q0 4 -1 14.5t-3 14.5l-360 772q-4 -10 -13.5 -39t-13.5 -39q-14 -57 -32.5 -138t-38 -171l-39 -180t-36 -166 t-25.5 -131.5t-9 -71.5z" />
<glyph unicode="B" horiz-adv-x="1185" d="M49 1534v6q0 2 2 6l129 129h14q15 0 35.5 1t41 1h32.5q70 0 160 -4t171 -27.5t136 -76.5t55 -152q0 -74 -31.5 -145.5t-77.5 -138t-101.5 -125t-100.5 -107.5q100 -8 206.5 -30.5t193.5 -71.5t142.5 -130t55.5 -206q0 -100 -50 -185t-128 -147.5t-176.5 -97.5t-192.5 -35 q-47 0 -89 34t-42 81q0 18 3 39.5t26 27.5q8 -20 20.5 -42.5t30.5 -35.5h18.5t26.5 -1t27.5 -1h17.5q76 0 153 26t138 74t99 115.5t38 151.5q0 86 -44 148.5t-111.5 104.5t-147.5 61.5t-151 19.5q-8 0 -43 -2t-74 -8.5t-70 -16.5t-31 -26v-439q0 -16 -14 -21t-24 -5 q-16 0 -28.5 29.5t-23 75.5t-16.5 101.5t-11 106.5t-7.5 92t-4.5 60v41.5v73.5v74v42q-2 27 -8 92.5t-14 139t-16.5 139t-12.5 92.5q4 27 -3 38t-22.5 14t-34 1t-33.5 -1t-26.5 9t-11.5 31zM258 1520l76 -619q66 23 138.5 79t134 129t101.5 153.5t40 154.5q0 61 -43 94 t-100.5 46.5t-117 15.5t-92.5 2h-30.5t-36 -1t-30.5 -2t-15 -1z" />
<glyph unicode="C" horiz-adv-x="966" d="M37 555q0 43 6 123t21.5 173t42 191.5t65.5 177t92 130t123 51.5q0 -35 -11 -56.5t-28.5 -42t-38 -41t-39.5 -51.5q-86 -147 -120.5 -324t-34.5 -345q0 -57 4 -123t22.5 -127.5t55 -111.5t100.5 -77h27.5t42 -1t43 -1h28.5q27 0 89.5 4.5t126 18.5t111.5 43t48 78 q0 29 -15.5 51t-15.5 53q23 0 47.5 -9t44 -25.5t33 -37t13.5 -45.5q0 -41 -30 -73.5t-78 -59t-106.5 -45t-117 -31t-109.5 -18.5t-82 -6q-115 0 -185.5 53t-109.5 134t-52 179.5t-13 190.5z" />
<glyph unicode="D" horiz-adv-x="1107" d="M49 1378q0 12 20.5 33t48 40t52.5 32.5t35 13.5q35 0 42 -15.5t7 -37t2 -44t27 -34.5q117 -66 252 -142.5t251.5 -174t194.5 -219t78 -277.5q0 -98 -53.5 -197.5t-136.5 -178.5t-184 -129t-198 -50q-27 0 -52 18t-25 47q0 8 42 23.5t106.5 41.5t138 64.5t138 92 t106.5 123t42 159.5q0 63 -37 139t-98.5 153t-139 148.5t-157.5 127t-157 89t-134 33.5q0 -131 12.5 -262t25.5 -261t25.5 -260t12.5 -261q0 -31 -6 -49.5t-47 -34.5l-25 25l-104 1134q-4 2 -20.5 11.5t-35 22.5t-34 27.5t-15.5 28.5z" />
<glyph unicode="E" horiz-adv-x="1042" d="M90 1108v283q4 2 19.5 3t19.5 1q23 0 32 -9.5t13 -19.5t9 -19.5t22 -9.5q37 0 91 14.5t113.5 32t118 35t103.5 23.5h14q29 0 48.5 -11.5t19.5 -39.5q0 -4 -1 -12.5t-3 -12.5q-57 -4 -131 -12t-148 -28.5t-137.5 -53.5t-99.5 -86v-96.5t1 -161.5t7 -169t18 -116l567 234 q47 -4 63.5 -11.5t14.5 -17.5t-18.5 -23.5t-34.5 -25.5q-20 -10 -64.5 -29.5t-100.5 -45.5t-117.5 -53.5t-118 -53t-100.5 -46t-64 -30.5q-14 -2 -20.5 -13.5t-8.5 -26t-1 -27.5t1 -19q0 -66 15.5 -128.5t15.5 -127.5q0 -29 -19.5 -54.5t-66.5 -25.5zM227 16q0 53 11.5 77 t58.5 36l664 184l30 -82q-20 -4 -62 -16t-95.5 -27.5t-111.5 -32t-112.5 -31.5t-96.5 -27.5t-62 -18.5q-53 -16 -76 -27.5t-40.5 -19.5t-38 -11.5t-69.5 -3.5z" />
<glyph unicode="F" horiz-adv-x="798" d="M49 1262q0 29 6 51t23 53q33 -2 65.5 -2t64.5 2q64 4 128.5 10t130 12.5t131.5 6.5q16 0 40 1q12 0 24 0.5t24 -0.5q24 -1 47 -8.5t39 -21.5q2 0 2 -5v-9v-6.5t-2 -6.5q-16 0 -56 -4t-85 -8t-85 -7t-57 -5q-27 -4 -73.5 -10.5t-95 -18.5t-88 -30.5t-52.5 -45.5v-24.5 t-1 -39t-1 -38.5v-27q0 -70 1 -124t4 -107t8.5 -114.5t13.5 -143.5h26l490 174v-70l-516 -233q-2 -16 -2 -31v-49q0 -82 14 -161t14 -161v-10q-4 -6 -24.5 -26.5t-26.5 -24.5q-25 12 -38 48t-13 54l-51 1108q-23 8 -26 21.5t-3 30.5z" />
<glyph unicode="G" horiz-adv-x="1146" d="M43 504q0 117 19.5 262t65.5 285.5t121 262.5t185 193q4 0 12.5 1t12.5 1q20 0 36.5 -9t16.5 -32q0 -4 -1 -8t-1 -6q-98 -88 -172 -196.5t-121 -229.5t-70.5 -252t-23.5 -262q0 -92 23.5 -170t71.5 -135t119 -89t165 -32q23 0 66.5 8t97 24.5t107.5 40t99.5 52.5t74 62.5 t28.5 72.5v424q-8 0 -30.5 2t-47.5 5t-47.5 5t-30.5 0q-12 -2 -70.5 -14t-132 -28.5t-146.5 -33t-114 -26.5q-4 0 -15 -4t-23.5 -8t-24.5 -8.5t-14 -4.5q-4 -2 -7 -2h-8q-23 0 -31 23.5t-8 42.5q0 12 6.5 23.5t22.5 15.5l670 129q4 0 31.5 1t41.5 1q10 0 27.5 1t35 -1 t31 -11.5t13.5 -29.5v-12q-2 -8 -5 -26.5t-8.5 -39t-8.5 -39t-5 -24.5v-893q-66 0 -78 67q-2 18 -6 61.5t-8 92.5t-7 93.5t-3 62.5q-61 -47 -119.5 -82t-119 -57.5t-126 -34t-141.5 -11.5q-111 0 -190.5 38t-132 104.5t-78 157.5t-25.5 196z" />
<glyph unicode="H" horiz-adv-x="927" d="M27 551q0 31 15 47t50 29v774h78v-766q6 0 18.5 -2t26.5 -3t27.5 -2t17.5 -1q20 4 71.5 14t109 22.5t108.5 23.5t72 18q0 4 1 19t1 19q0 92 -8.5 185.5t-19.5 185.5t-19.5 185.5t-8.5 185.5q16 0 44 -5t36 -28q2 -174 17.5 -362.5t60.5 -358.5q37 2 45 -12t8 -37 q0 -25 -5 -42t-23 -38q6 -18 21 -66.5t31.5 -101.5t31 -101t20.5 -67v-24q0 -20 -8 -37t-31 -17q-27 0 -39 27q-4 14 -15 51t-23.5 78t-24 78t-15.5 51q-4 12 -12 33.5t-16 42t-14.5 36t-8.5 17.5q-2 0 -18.5 2t-24.5 2q-106 0 -221 -22.5t-201 -85.5v-27.5t-1 -42t-1 -43 v-29.5q0 -74 2 -136t27 -134q2 6 7 26.5t13.5 44t19.5 42t23 18.5h8.5t6.5 -2q0 -12 -4 -46t-8.5 -71t-8.5 -69.5t-6 -44.5q-2 -10 -7 -23.5t-14.5 -26t-19.5 -21.5t-22 -9q-27 0 -44.5 29.5t-27.5 66.5t-14.5 70.5t-4.5 42.5q-2 20 -6 71.5t-8 108.5t-8 108.5t-4 71.5 q-31 16 -42 32.5t-11 45.5z" />
<glyph unicode="I" horiz-adv-x="270" d="M25 1278v22v18.5t1 27t1 27.5v18q6 23 20 25.5t31 2.5q4 0 13 -1t13 -1l103 -1237q2 -6 6 -20.5t8 -30.5t7 -30.5t5 -20.5v-15q0 -10 -9 -21t-21.5 -20.5t-25.5 -15.5t-21 -6q-6 0 -16.5 10.5t-10.5 16.5q-4 45 -12 137t-18.5 208.5t-21.5 246t-21.5 246t-18.5 208.5 t-10 137v13.5t-1 26t-1 28.5z" />
<glyph unicode="J" horiz-adv-x="901" d="M12 283q0 41 18.5 88t59.5 67q-4 -27 -4 -53q0 -44 10 -84q17 -65 55.5 -115.5t97 -81t136.5 -30.5q96 0 167 47t117 119.5t68.5 160.5t22.5 170v47l-129 721q-4 8 -5 26.5t7 35t25 23.5q6 3 14 3q15 0 37 -10q2 -2 11 -42t21.5 -100.5t26.5 -136t27.5 -152.5 t24.5 -146.5t18 -118.5q5 -48 5 -99q0 -31 -2 -64q-5 -85 -24.5 -165t-56.5 -151.5t-91.5 -126t-128 -86t-169.5 -31.5q-55 0 -118 21.5t-116 60.5t-89 90.5t-36 112.5z" />
<glyph unicode="K" horiz-adv-x="1040" d="M49 1052v68v53t1 82t2 82t1 54q12 26 35 26h2h14l78 -995l361 608q10 20 25.5 36.5t37.5 16.5q16 0 28.5 -12t12.5 -29q0 -2 -1 -6t-1 -6l-387 -670q8 0 32.5 -1t33.5 -1q96 0 192 9.5t192.5 20.5t192.5 20.5t193 9.5q0 -35 -14.5 -63.5t-47.5 -45.5q-12 2 -46 2h-70.5 h-70.5t-46 -2q-43 -4 -104.5 -11t-127 -15.5t-130 -16.5t-116 -15t-83 -12.5t-31.5 -7.5v-180q0 -4 -20.5 -23.5t-30.5 -27.5q-4 -2 -6 -2h-7q-25 0 -39 29q-2 31 -7 95t-10 145t-10 171t-10.5 171t-9.5 145.5t-4 95.5q0 6 -1 39t-2 76t-1 87z" />
<glyph unicode="L" horiz-adv-x="1081" d="M63 51q2 16 6.5 56t8.5 86.5t8 86t4 56.5q0 35 1 109.5t1 168v197.5v198.5t-1 168t-1 110.5q8 16 15.5 21.5t21.5 5.5h14q8 -4 23.5 -14.5t15.5 -12.5v-1153q6 0 22.5 -1t35 -3t35 -2h22.5q23 2 71 8t109.5 13.5t129 15.5t129 16t109.5 14.5t70 10.5q31 14 54.5 20 t52.5 6t39 -19t10 -46q0 -18 -7 -32.5t-20 -33.5q-51 5 -102 5q-64 0 -126 -8q-114 -15 -226.5 -36.5t-224 -42t-222.5 -20.5q-16 0 -42 18.5t-36 32.5z" />
<glyph unicode="M" horiz-adv-x="1441" d="M29 1333v8q0 2 2 7l12 18t16.5 24.5t14.5 22.5t8 10q14 8 41 17q12 4 24 4v-123l373 -721l27 27q6 20 23.5 75.5t37 117t39 116.5t27.5 76q6 14 32.5 71.5t57.5 122t58.5 121.5t33.5 72q6 12 9 38.5t11.5 52.5t23.5 45t44 19q4 0 8 -1t6 -1q10 -4 30 -13t22 -11 l309 -1288q2 -6 10 -20.5t16.5 -31t15.5 -31t9 -20.5q0 -2 1 -6t1 -8q0 -27 -12 -47.5t-41 -20.5q-23 0 -38 10.5t-13 45.5q-8 39 -25.5 119.5t-40 182t-48.5 214t-48.5 214t-42 181.5t-27.5 119q-4 14 -14 47t-22.5 69.5t-23.5 69.5t-18 45q-143 -211 -236 -458.5 t-151 -493.5q-4 -2 -19 -3t-20 -1q-35 0 -59 36.5t-40.5 84t-27 89.5t-14.5 52q-12 27 -45 92.5t-69.5 139t-69.5 140t-47 91.5v-25v-26q4 -41 11 -128.5t17.5 -197t21.5 -229t21.5 -229t18.5 -196.5t12 -128q12 -37 19.5 -66t6.5 -63q0 -20 -8 -37t-30 -17q-25 0 -37 23.5 t-18.5 51.5t-8.5 52.5t-2 28.5q-33 307 -50 607t-52 605q-2 14 -10.5 37t-17.5 46.5t-17 45t-8 37.5z" />
<glyph unicode="N" horiz-adv-x="1275" d="M23 1296q0 14 7 39t19 51.5t26.5 48t26.5 27.5q6 -2 21.5 -42t31 -90t30 -95t20.5 -55q14 -20 46 -63.5t71.5 -97.5t85 -112.5t86.5 -112t73.5 -95.5t48.5 -60q6 -8 45 -44t88.5 -81t98.5 -90t78 -70q4 -4 23.5 -21.5t42 -37t42 -36.5t23.5 -19q6 28 7 60v32v34 q-1 34 -4 66.5t-3 61.5q0 104 -13.5 207.5t-29 206t-27.5 206t-12 207.5v23.5t1 36t1 35v22.5q12 26 37 26h2q27 0 37 -22.5t10 -50t-4 -53t-4 -29.5l129 -1108q0 -29 -14.5 -48.5t-35 -30.5t-43 -16.5t-36.5 -7.5q-2 -2 -6 -2h-9q-14 0 -28.5 11.5t-26.5 29t-20.5 34.5 t-12.5 30l-74 74t-109 112.5t-128 133t-128 134t-108.5 114.5t-70.5 75q-12 12 -38 45t-54.5 69.5t-54 70.5t-33.5 48v-78t-1 -116.5t-1 -116.5v-76q0 -186 13 -368.5t13 -368.5v-10q-4 -6 -23.5 -26.5t-27.5 -25.5l-39 27v1106q0 39 -10 74t-22.5 66.5t-22.5 64.5t-10 67z " />
<glyph unicode="O" d="M39 594v24q10 88 19.5 184.5t25.5 188.5t44 175t78 144.5t125 98.5t187 37q92 0 161 -39t119 -102.5t82.5 -146.5t52 -171t27 -174t7.5 -158q0 -117 -37 -234.5t-106.5 -211.5t-172 -152.5t-231.5 -58.5q-111 0 -184.5 60.5t-116.5 149.5t-61.5 193.5t-18.5 192.5z M113 598q0 -80 15 -171t53 -169t103.5 -130t166.5 -52q117 0 199.5 59.5t137 150.5t80 197.5t25.5 198.5q0 57 -6 131t-21.5 150.5t-42 149.5t-69.5 129t-103.5 91t-142.5 35q-84 0 -145.5 -40t-105.5 -105.5t-72.5 -148.5t-44 -168t-21.5 -166t-6 -142z" />
<glyph unicode="P" d="M49 1444q0 12 13.5 42t31 61.5t33.5 55t23 23.5q137 0 283.5 -36t268 -112.5t200.5 -196.5t79 -286q0 -104 -48 -209.5t-128 -191.5t-182.5 -140.5t-210.5 -54.5v103q90 0 178 46t157.5 117.5t112.5 162t43 178.5q0 94 -47 182t-120.5 156.5t-166 110.5t-182.5 42 q-45 0 -80 -3t-76 -26v-33.5t-1 -50t-1 -50v-34.5q0 -121 3.5 -233.5t10.5 -224t17 -230t23 -252.5q0 -10 8 -52t17 -89t16.5 -89t9.5 -52q0 -2 1 -7t1 -8q0 -2 -1 -4t-1 -4v-4q-4 -6 -23.5 -26.5t-27.5 -24.5l-25 27q-4 2 -11 35.5t-15.5 78.5t-16.5 92.5t-10 75.5 q-4 39 -10.5 122t-14.5 186.5t-16 219t-15.5 220t-12.5 186.5t-7 123q-23 -14 -38 -9t-24.5 19.5t-13.5 34t-4 33.5z" />
<glyph unicode="Q" horiz-adv-x="1210" d="M39 516q0 23 3 84.5t7 131t8 132t9 88.5q0 10 6 45t14 76t16.5 80t14.5 57q8 31 21.5 79t36 94.5t55 80t79.5 33.5q12 0 24.5 -1t24 -6t16.5 -16.5t1 -31.5q-92 -72 -144.5 -167t-78 -202.5t-31.5 -221.5t-6 -220q0 -92 11 -186.5t46 -171t99.5 -125t172.5 -48.5 q20 0 68.5 10.5t97.5 29t87 42t38 49.5v27q-12 6 -41.5 23.5t-62.5 38t-62.5 40t-40.5 27.5q-6 4 -20 17.5t-30.5 31t-31 32.5t-20.5 21q-2 2 -2 5v8q0 23 17.5 32t35.5 9q39 0 73 -29t69.5 -64.5t76.5 -64.5t92 -29q29 0 47.5 25t30 62.5t16.5 83.5t7 89t2 77v50 q0 90 -20.5 191.5t-66.5 186.5t-122 140.5t-184 55.5q-31 0 -50.5 -9.5t-35 -21.5t-30.5 -21.5t-42 -9.5q0 78 26.5 120t108.5 42q139 0 233.5 -67.5t153 -172t83 -228.5t24.5 -236q0 -109 -19.5 -205t-60.5 -199q14 -6 47 -20.5t69.5 -30.5t69.5 -30.5t45 -20.5 q23 -10 26 -21.5t3 -31.5q0 -53 -53 -54q-35 0 -66 16.5t-59.5 37t-58 37t-62.5 16.5q-18 0 -63.5 -33t-103.5 -70.5t-122.5 -70.5t-122.5 -33q-106 0 -182 45t-124 118t-70.5 165t-22.5 188z" />
<glyph unicode="R" horiz-adv-x="1155" d="M73 1380q0 16 -0.5 31t0.5 31q1 31 1 53v29.5t1 46t2 47t1 31.5q2 8 22 18q16 8 25 8h4q37 -10 43 -38.5t5 -60.5t0 -56.5t28 -24.5h309q49 0 80 -28.5t48 -70.5t23.5 -87t6.5 -76q0 -98 -32 -198.5t-80 -196t-102.5 -184.5t-97.5 -165v-40q102 0 173 8t134.5 19 t133 19.5t174.5 8.5h44t66.5 -1t65.5 -1h43q20 -8 24.5 -22.5t4.5 -30.5q0 -27 -10.5 -47.5t-43.5 -28.5q-115 44 -222 44h-21q-116 -5 -230 -27t-228 -42q-56 -10 -113 -10q-58 0 -117 10q0 -70 10 -136.5t10 -137.5q0 -23 -3 -49.5t-36 -26.5q-12 0 -23.5 6t-15.5 23 q-2 8 -6 32.5t-8 54t-7 55.5t-5 38q-2 39 -7.5 122t-10.5 186t-10 219t-10 219.5t-8.5 186.5t-5.5 122q-16 25 -22 55.5t-7 62.5zM180 1288q2 -31 6 -97.5t9.5 -150.5t10.5 -177t10 -177t9 -150.5t6 -97.5q53 82 117 178.5t118 200t91 211t37 209.5q0 86 -61.5 133 t-145.5 47q-20 0 -55 -4t-69 -15.5t-58.5 -30.5t-24.5 -50v-29z" />
<glyph unicode="S" horiz-adv-x="1042" d="M37 1030q-9 25 -9 49q0 38 22 77q36 63 104.5 119t156.5 103t171 80q84 34 150 48q42 9 67 9q15 1 24 -3q25 -8 -5 -44t-138 -104q-16 0 -30.5 2t-21.5 25q-49 -18 -115.5 -56.5t-128 -89.5t-103.5 -109.5t-42 -115.5q0 -68 37 -114t96.5 -78.5t136 -57.5t157.5 -48.5 t158 -51t136.5 -66.5t96 -95t36.5 -136q0 -90 -61.5 -160t-149.5 -117t-185 -71.5t-171 -24.5q-20 0 -44 15.5t-43.5 37t-31.5 46t-12 42.5q0 27 16.5 51.5t36.5 38.5q12 -131 137 -131q57 0 128 20.5t132.5 57.5t103.5 91.5t42 121.5q0 59 -37 101.5t-96.5 73t-136 55 t-157.5 49t-158 54.5t-136 71t-96 98t-37 137z" />
<glyph unicode="T" horiz-adv-x="1114" d="M25 1339q0 16 3 31.5t25 20.5l436 104q-2 15 -2 27q-1 28 9 38q14 16 43 15q37 0 63.5 -15.5t65.5 -15.5q100 0 198.5 17.5t195.5 38t194.5 38t195.5 17.5v-21.5t-2 -34t-10 -34t-23 -19.5q-23 -2 -71 -7t-109 -12t-128 -16.5t-128 -16.5t-110.5 -14t-71.5 -12 q-20 -4 -51 -11t-60 -15t-49.5 -15.5t-20.5 -9.5v-26l127 -1344v-16v-11q-2 -4 -10 -10q-7 -6 -21 -9q-7 -2 -14.5 -1.5t-16.5 1.5q-17 3 -40 19q-4 156 -9 323t-15.5 336t-28 336t-47.5 324q-8 37 -15.5 46.5t-33.5 9.5q-53 0 -103.5 -17.5t-99.5 -37t-98.5 -37 t-102.5 -17.5q-31 0 -48 9.5t-17 43.5z" />
<glyph unicode="U" horiz-adv-x="966" d="M49 1366h80q2 -29 5 -89t8 -137t10.5 -161t10.5 -161t10 -137t7 -89q6 -68 21.5 -154t49.5 -160.5t90 -126t142 -51.5q74 0 128.5 47.5t92 121t62.5 164.5t38 179t18 163t5 118q0 111 -15 208t-15 202q0 23 16 30.5t37 7.5q4 0 13 -1t14 -1q10 -47 16 -86t8 -74.5 t2 -73.5v-83q0 -63 -3 -164.5t-16.5 -215.5t-40 -228.5t-74.5 -206.5t-122 -150.5t-180 -58.5q-78 0 -137.5 39t-101.5 99.5t-67.5 133t-31.5 142.5q-4 33 -9 103.5t-13.5 159.5t-16.5 187.5t-16 187.5t-14.5 159.5t-8.5 105.5q0 4 -1 24.5t-1 26.5z" />
<glyph unicode="V" horiz-adv-x="1343" d="M27 1159v86q43 0 68.5 -11t43 -31.5t31.5 -51.5t37 -70l696 -850q12 -16 17.5 -21t21.5 -5q2 0 6 1t6 1q6 29 19.5 87t31 132t37 155t38 154.5t32.5 131t23 85.5q14 55 36.5 135t57.5 156t85 129t120 53q0 -45 -6.5 -63.5t-17.5 -32.5t-28.5 -31.5t-40.5 -60.5 q-8 -16 -27.5 -56t-40 -85t-37.5 -86t-24 -58q-6 -27 -19 -81t-28.5 -122.5t-32 -143.5t-32 -143.5t-27.5 -122.5t-16 -81q-2 -12 -6 -41t-8.5 -62.5t-7.5 -62.5t-3 -41q-14 -18 -28.5 -35.5t-36.5 -17.5q-16 0 -21.5 6t-17.5 23z" />
<glyph unicode="W" horiz-adv-x="2025" d="M20 1108h33l617 -901h26l6 47q7 47 15 112.5t16 135t15 116.5v25q4 27 15 92.5t23.5 140t23.5 140t15 92.5q6 25 26.5 27t37.5 2q25 0 38 -5.5t20 -16.5t13.5 -25.5t18.5 -32.5q59 -92 122.5 -194.5t131 -207t139.5 -206t150 -191.5q4 -6 24.5 -26.5t26.5 -24.5l24 51 q8 31 24.5 93.5t39 141t48.5 165.5t49.5 166t43 140.5t29.5 92.5q8 20 31.5 72.5t52.5 109.5t56.5 108.5t39.5 69.5q4 6 23.5 15.5t27.5 9.5q41 0 48.5 -17.5t7.5 -44.5q0 -43 -36 -96t-81 -112.5t-88 -122t-58 -121.5l-206 -850q-4 -23 -19.5 -25t-32.5 -2q-23 0 -28.5 2 t-22.5 25l-639 905l-30 -31q-4 -2 -11.5 -32.5t-14.5 -71.5t-15.5 -83t-10.5 -69q-2 -25 -7 -75t-10 -114.5t-11 -134t-10.5 -133t-8.5 -113.5t-4 -75q-14 -18 -28.5 -35.5t-36.5 -17.5q-14 0 -21.5 6t-17.5 23l-566 850q-31 47 -57.5 109.5t-26.5 121.5z" />
<glyph unicode="X" horiz-adv-x="1288" d="M37 1372v6q0 16 12 27.5t29 11.5q20 0 43.5 -26.5t45 -60.5t36 -62.5t16.5 -30.5q16 -18 50 -57t77 -88.5t91 -102.5t91 -101t78 -86t51 -54l25 24q10 25 34.5 78t55.5 119.5t64.5 139.5t63.5 138.5t54.5 117.5t36.5 77q25 49 48.5 74.5t80.5 25.5v-47 q-51 -90 -104 -188.5t-103.5 -200.5t-96.5 -205.5t-81 -204.5q0 -2 -1 -6t-1 -8q0 -2 1 -6t1 -6q4 -8 18.5 -26.5t31 -39t31.5 -39t22 -24.5q18 -18 65 -66.5t100.5 -102t101.5 -100.5t66 -65q12 27 39 26q4 0 8.5 -1t6.5 -1q2 -6 5 -20t7 -30.5t8 -31t4 -20.5q0 -2 1 -7 t1 -7q0 -25 -21.5 -45.5t-45.5 -20.5q-2 0 -6 1t-7 1l-489 516l-205 -540q-2 -6 -21.5 -16.5t-29.5 -10.5q-12 0 -18.5 8t-8.5 19.5t-2 23v17.5v19t2 15l222 525l-480 559q-4 4 -16 26.5t-28.5 51t-33 57.5t-24.5 45q-2 4 -2 6z" />
<glyph unicode="Y" horiz-adv-x="1306" d="M-10 1501v8q0 14 10 26.5t27 12.5q0 -2 2 -2h4h6l975 -528q43 -8 69.5 -23.5t26.5 -62.5q0 -18 -5 -39t-34 -21h-10q-6 4 -19.5 14.5t-29 22t-28.5 21.5t-17 16l-975 551q-2 0 -2 4zM1024 -184l170 1855q-12 23 -12 41q0 20 15 32q28 25 69 25v-122l-160 -1872z" />
<glyph unicode="Z" horiz-adv-x="1441" d="M35 1372q0 20 13 23t40 14q131 43 236.5 78t204 59.5t203 37.5t233.5 13l-129 -626v-35q20 0 43.5 5t43 4t32 -11t12.5 -41q0 -41 -27 -46t-59.5 -1t-61 3t-35.5 -32q-8 -23 -24.5 -69t-37 -105t-43 -122.5t-43 -123t-35.5 -105.5t-23 -69q-4 -41 -16 -75q-9 -26 -8 -56 q0 -11 1 -22q41 0 130 20.5t193.5 49t205 59t163.5 51.5q18 6 45 29.5t45 23.5q31 0 49.5 -24.5t18.5 -53.5q0 -16 -4 -30.5t-25 -22.5q-215 -35 -431 -97.5t-419 -133.5q-20 -3 -34 -3q-23 0 -31 8q-12 13 -12 42q0 39 8 84t18 75q6 23 22.5 72t37 110.5t43 128t42 128 t36 109.5t24.5 71v22q-43 0 -84 -12t-83 -25.5t-84 -25.5t-85 -12q-18 0 -34.5 8t-16.5 31v8q0 2 2 6q6 10 26.5 29.5t24.5 21.5l387 103l129 559q-59 0 -100 3t-76 4h-12q-30 0 -60 -4q-36 -5 -88 -22q-25 -8 -83 -29.5t-123.5 -46t-124 -47t-80.5 -30.5q-4 -2 -13.5 -3 t-13.5 -1q-29 0 -41 20t-12 49z" />
<glyph unicode="[" horiz-adv-x="772" d="M49 1753v58t1 89.5t1 89.5v58q2 4 35 11t82 16.5t107.5 18.5t111.5 16.5t95 12.5t61 5q35 0 56.5 -7t21.5 -46q0 -14 -3.5 -30.5t-25.5 -21.5l-412 -51l-26 -51v-144.5v-226.5t1 -280.5t3 -308t6 -311t9 -288t13.5 -238t18.5 -161.5q4 -12 13 -32.5t13 -20.5h498v-19.5 t-3 -33t-10 -32.5t-22 -18q-61 -10 -131.5 -20t-143.5 -17.5t-144.5 -11.5t-135.5 -4q-16 0 -27.5 13.5t-18.5 31t-11 35t-4 25.5q0 2 4 10t8 16.5t8 15.5t4 9v14.5t1 28.5t1 33.5v27.5q0 217 -8 434.5t-19 435.5t-19.5 435t-8.5 434z" />
<glyph unicode="\" horiz-adv-x="1222" d="M27 1546l71 56l959 -1319q10 -8 36.5 -33t54.5 -55.5t47 -62.5t17 -54q-2 -8 -11 -20.5t-21.5 -25t-24.5 -22.5t-20 -10q-14 8 -26.5 27.5t-24 40t-18.5 38t-9 23.5z" />
<glyph unicode="]" horiz-adv-x="1120" d="M-119 1976v60q20 2 71.5 5t109 8t108.5 8t72 5h26q12 2 65.5 9.5t114 16.5t113.5 16t68 10q2 0 13 1t15 1q23 0 37.5 -7.5t12.5 -46.5q-4 -96 0 -198.5t15 -226.5t28.5 -275.5t39 -343t46 -429t51.5 -536.5q31 -16 42 -32.5t11 -45.5q0 -25 -11 -46t-42 -31 q-6 -2 -24.5 -2t-40 1t-41 1h-23.5q-49 -4 -99.5 -20.5t-99.5 -35t-97 -34t-93 -15.5q-25 0 -45.5 9t-30.5 44q-2 10 8 30t18 22l426 108l-167 2005h-15q-172 0 -340 -17.5t-342 -17.5z" />
<glyph unicode="^" horiz-adv-x="1558" d="M37 543q0 29 5 61.5t18.5 59t37 44t58.5 17.5q4 0 18 -1t19 -3q-33 -53 -43.5 -104.5t-10.5 -114.5q0 -66 18.5 -129.5t55.5 -117.5t90 -94t123 -59q10 0 35.5 -1t54.5 -1t54.5 -1t35.5 -1q160 0 307.5 32t260 104.5t180 193.5t67.5 299q23 0 35 -20.5t18.5 -48t8.5 -54 t2 -37.5q0 -102 -46 -185t-123 -146.5t-175.5 -108.5t-201.5 -73.5t-204.5 -42t-181.5 -13.5q-113 0 -207 44t-162.5 117.5t-107.5 173t-39 210.5zM342 1292q0 16 1 44t3 30l51 51l27 -24q0 -12 4 -46t8 -71t7 -71t6 -46q0 -2 5 -13t9 -24.5t8 -25t4 -13.5q0 -16 -14.5 -22 t-24.5 -6q-37 0 -55.5 29.5t-27.5 69.5t-10 80t-1 58zM342 1292q0 16 1 44t3 30l51 51l27 -24q0 -12 4 -46t8 -71t7 -71t6 -46q0 -2 5 -13t9 -24.5t8 -25t4 -13.5q0 -16 -14.5 -22t-24.5 -6q-37 0 -55.5 29.5t-27.5 69.5t-10 80t-1 58zM821 1171q2 41 9.5 82.5t7.5 59.5 q0 16 1 43.5t3 29.5l51 52l27 -25q-18 -33 -20.5 -76t0.5 -87t9 -85t6 -67q0 -16 -14 -22.5t-24 -6.5q-37 0 -47.5 30.5t-8.5 71.5z" />
<glyph unicode="_" horiz-adv-x="1519" d="M25 63q0 25 28 39q156 -10 310.5 1.5t308 29t307.5 33.5t309 16h30.5h47.5t47.5 -1t30.5 -1q6 -4 15 -23.5t9 -27.5t-6 -21.5t-15 -25.5t-19.5 -21.5t-20.5 -9.5q-66 0 -130.5 13.5t-129.5 13.5q-115 0 -227.5 -12.5t-224 -27.5t-225.5 -27.5t-226 -12.5q-18 0 -54 -1 t-73 4t-64.5 18t-27.5 44z" />
<glyph unicode="`" horiz-adv-x="387" d="M27 1757q4 2 12 5t12 5q18 4 36.5 -2t35 -18t32 -26.5t25.5 -26.5q12 -14 32.5 -39t43.5 -52.5t43 -53t33 -42.5q4 -6 9 -24.5t7 -24.5q4 -16 11.5 -42.5t-17.5 -39.5l-33 19z" />
<glyph unicode="a" horiz-adv-x="905" d="M37 231q0 63 14.5 158.5t42 200t70.5 208t99 187.5t127 135t155 51q0 -33 -25.5 -62.5t-58.5 -57t-66 -53t-47 -46.5q-51 -72 -94 -153.5t-73.5 -170.5t-48 -180.5t-17.5 -179.5q0 -12 4 -40.5t12 -56.5t20.5 -49.5t28.5 -21.5h6q2 0 7 2q59 66 99 144t68.5 162t49 170 t41.5 170q5 23 5 61v13v16q0 40 4 80q5 48 22.5 82t64.5 34q8 0 20.5 -1t12.5 -3q82 -172 140 -290.5t98 -197.5t63.5 -123t37 -66.5t17.5 -31t4 -12.5q2 -8 4 -31.5t4 -49t3 -49t1 -32.5q-25 0 -50 3.5t-38 29.5l-284 592l-25 27q-6 -25 -24.5 -87.5t-39 -132t-39 -132 t-26.5 -87.5q-12 -33 -33.5 -93t-52.5 -120.5t-71 -104.5t-89 -44q-39 0 -66.5 25.5t-44 62.5t-24.5 76.5t-8 68.5z" />
<glyph unicode="b" horiz-adv-x="837" d="M51 1571v16q0 23 16.5 31t34.5 8q4 0 13.5 -2t13.5 -2l76 -979q14 55 34.5 103.5t53.5 83t78 55t106 20.5q76 0 136.5 -35.5t102.5 -92t63.5 -126t21.5 -139.5q0 -100 -50.5 -193.5t-130 -164t-179 -113.5t-197.5 -43q-39 0 -57.5 29.5t-24.5 68.5t-6 78t-2 57 q-12 180 -25.5 344t-27 324t-26 323.5t-24.5 348.5zM248 88q74 0 156.5 35t153.5 92t118 132t47 155q0 51 -19.5 107.5t-54.5 104.5t-83 79.5t-103 31.5t-93 -46t-62.5 -109.5t-36 -129t-13.5 -102.5q-2 -18 -4 -68.5t-3 -106.5t-2 -106.5t-1 -68.5z" />
<glyph unicode="c" horiz-adv-x="772" d="M37 322q0 20 6 82.5t19.5 142.5t34 167t50 159.5t69.5 119.5t89 47q-18 -61 -51 -145t-62 -177q-28 -92 -46 -188q-13 -69 -14 -133q0 -24 2 -47q7 -84 49 -150.5t134 -101.5q84 0 146.5 38t108.5 84t81 84t64 38q0 -84 -41 -148.5t-105.5 -107.5t-144.5 -65.5 t-156 -22.5q-66 0 -109.5 30.5t-71.5 79t-40 105t-12 109.5z" />
<glyph unicode="d" horiz-adv-x="849" d="M25 190q0 121 48 243t128 229.5t182 190.5t211 126q0 66 -7 130.5t-16.5 130t-17.5 132t-10 135.5q0 25 16 33t35 8q12 0 30.5 -3t20.5 -25l154 -1391q2 -4 -18.5 -23.5t-32.5 -27.5q0 -2 -5.5 -3t-7.5 -1q-27 18 -41 72.5t-22 120t-13.5 128t-13.5 94.5 q-4 -18 -18.5 -61t-40 -97.5t-63.5 -112.5t-90 -106.5t-117.5 -81t-145.5 -32.5q-41 0 -68.5 16.5t-45 43t-24.5 61t-7 71.5zM127 231q0 -10 3 -30.5t9 -42t16.5 -39t24.5 -17.5q49 4 105.5 44t111 99.5t101.5 133.5t78.5 149.5t43.5 145.5q6 32 6 61q0 34 -8 64 q-8 16 -15 21t-21 5q-98 0 -181.5 -60t-144.5 -149.5t-95 -194t-34 -190.5z" />
<glyph unicode="e" horiz-adv-x="747" d="M-61 487q0 43 28.5 58t65.5 24t72.5 21t50.5 53q14 45 25.5 107.5t31.5 120t57 96.5t105 39q37 0 92 -25t106.5 -60.5t88 -76.5t36.5 -72q0 -16 -3 -29.5t-23 -21.5l-439 -154l-1 -10t-2 -23.5t-2 -27.5t-1 -23q0 -43 7.5 -108.5t28 -127t59 -105.5t102.5 -44 q23 0 41 10.5t34.5 21.5t33 21.5t38.5 10.5q0 -33 -15 -62.5t-39.5 -52t-55.5 -36t-62 -13.5q-55 0 -96 27.5t-70.5 72.5t-48 101.5t-30 114t-16.5 110.5t-9 92q-53 -33 -105 -48q-16 -5 -31 -5q-32 0 -54 24zM254 688q35 0 79 5t86 17.5t75.5 34t48.5 54.5q-33 53 -62 80.5 t-82 27.5q-41 0 -68.5 -21.5t-44 -54t-24.5 -71.5t-8 -72z" />
<glyph unicode="f" horiz-adv-x="919" d="M25 686v6q0 2 2 4l335 103q4 73 4 145.5t-4 143.5q-4 68 -4 132q0 67 4 130q9 120 51 212.5t150 139.5q25 0 54.5 -7t55 -21.5t43 -37t17.5 -53.5q-96 0 -153.5 -33.5t-86 -90t-35.5 -130.5q-5 -52 -5 -107q0 -23 1 -48q3 -80 11 -162t8 -156q76 0 148.5 15.5t145.5 34 t145.5 33.5t146.5 15q53 0 53 -53q0 -20 -38 -34.5t-98.5 -28t-134 -24.5t-145 -24.5t-134 -30t-97.5 -38.5q-5 -44 -5 -88q0 -40 4 -79q9 -83 26.5 -166t34 -164t18.5 -161q0 -18 -8.5 -41.5t-30.5 -23.5q-16 0 -27.5 13.5t-19.5 29.5t-12.5 33.5t-6.5 27.5 q-16 82 -29.5 154t-22.5 141.5t-15 142t-9 156.5h-14q-35 0 -65.5 -12t-62.5 -27.5t-64.5 -28t-67.5 -12.5q-63 0 -63 70z" />
<glyph unicode="g" horiz-adv-x="915" d="M29 203q0 49 13 131t38.5 174t62.5 185t86.5 169t109.5 123t130 47q25 0 46.5 -10t43 -24.5t44 -27t46.5 -18.5q6 -31 21.5 -97.5t33 -150t37 -176t38 -176.5t31.5 -150.5t19 -99.5q2 -16 7.5 -53t9.5 -78t7 -76.5t3 -48.5q0 -63 -9 -150t-31.5 -179t-58.5 -181.5 t-89.5 -160t-125 -113.5t-163.5 -43q-55 0 -72.5 41t-17.5 90q0 20 4 41t13 26t23.5 -12.5t37.5 -72.5q109 0 186.5 65.5t127.5 162.5t73.5 207.5t23.5 201.5q0 231 -45 471.5t-135 455.5q-43 -98 -77 -203.5t-80 -200.5t-115.5 -173t-182.5 -121q-39 0 -61.5 21.5t-34.5 52 t-15 66.5t-3 65zM104 185.5q0 -21.5 4.5 -41t16.5 -33t35 -13.5q39 2 80 44t76.5 98.5t62.5 113t39 84.5q8 20 27.5 75.5t40 117t38 117t23.5 77.5v13q0 18 -13.5 30.5t-33 20.5t-40 11t-34.5 3q-49 0 -91 -46t-78 -116.5t-64.5 -154.5t-48 -160t-30 -133.5t-10.5 -71.5 v-35.5z" />
<glyph unicode="h" d="M35 1712l94 14l102 -1210q14 76 46 166t84.5 161.5t128.5 112.5q52 28 119 28q29 0 61 -5q72 -12 123 -56t89 -105.5t61.5 -136.5t36.5 -150.5t18.5 -147.5t5.5 -125q0 -47 -8.5 -63.5t-39.5 -16.5q-16 0 -32.5 3t-22.5 26q2 45 3 111v17q0 59 -6 125q-7 75 -24.5 148.5 t-50 134t-83 97.5t-122.5 37q-74 0 -128 -32t-91 -83t-59.5 -115.5t-30.5 -130.5q-4 -29 -9 -98.5t-9 -147t-6 -147.5t-2 -96q-6 -23 -20.5 -26t-31.5 -3q-4 0 -13 1t-13 1z" />
<glyph unicode="i" horiz-adv-x="321" d="M-12 1509q49 0 72.5 -12t23.5 -59q0 -16 -2 -38t-27 -28q-43 16 -55 57t-12 80zM27 928v84q12 0 29.5 -9.5t21.5 -23.5l155 -772q27 -41 39.5 -65.5t12.5 -63.5q0 -20 -6.5 -50t-32.5 -30h-7.5t-5.5 2q-10 6 -30.5 26.5t-22.5 24.5z" />
<glyph unicode="j" horiz-adv-x="620" d="M-176 -944q27 0 44 -26.5t34.5 -57.5t40 -57.5t61.5 -26.5q66 23 112 113t72.5 223t33.5 298q3 64 3 130q0 102 -7 208q-11 173 -38.5 342t-70.5 312v25q0 20 18 39.5t41 19.5q47 -158 81 -344t51 -376q15 -169 15 -331v-39q-2 -180 -29.5 -325.5t-84 -243.5t-144.5 -125 q-27 -18 -52 -18q-17 0 -34 8q-41 22 -72.5 66.5t-52 97.5t-22.5 88zM0 1127.5v27.5v25.5t3 25t12.5 19.5t25.5 8q18 0 27.5 -10.5t12.5 -24.5q2 -10 2 -22v-8q-1 -15 -1 -25q0 -12 1 -29v-8q0 -11 -2 -22q-3 -13 -12.5 -23t-27.5 -10q-16 0 -25.5 13t-12.5 29.5t-3 34z" />
<glyph unicode="k" horiz-adv-x="1024" d="M39 1597q36 23 58 23q9 0 17 -4q24 -14 27 -45l207 -1004q27 18 54.5 60.5t56 93.5t57.5 106.5t59.5 100.5t63.5 74.5t68 29.5q12 0 32.5 -3t20.5 -23q0 -16 -9.5 -30.5t-21.5 -28t-25.5 -26t-21.5 -20.5q-12 -16 -35.5 -47t-48.5 -63.5t-45.5 -59t-24.5 -35.5 q-14 -23 -36.5 -60.5t-43 -74.5t-35 -65.5t-14.5 -32.5v-43q104 0 187.5 8t160 18.5t158.5 18.5t187 8q18 0 33.5 -8t15.5 -31q0 -18 -7.5 -32.5t-19.5 -32.5q-44 6 -110 6q-24 0 -52 -1q-100 -3 -206.5 -15.5t-204 -32t-153.5 -43.5v-232l-40 -51q-43 82 -58.5 181.5 t-21.5 205t-14 210.5t-35 202q0 2 -1 9t-6 32.5t-16.5 77t-31 139.5t-50 220t-75.5 320z" />
<glyph unicode="l" horiz-adv-x="270" d="M27 1597v29q0 51 51 51q4 0 13 -1t13 -1q12 -195 23.5 -373t23 -353t24.5 -351t32 -367q25 -25 27 -57.5t2 -62.5q0 -16 -1.5 -36t-8.5 -37.5t-20 -28.5t-38 -11q-20 0 -27.5 15t-11.5 38q-4 57 -11 178t-17.5 273.5t-21.5 321.5t-21.5 321.5t-18.5 273.5t-12 178z" />
<glyph unicode="m" horiz-adv-x="1417" d="M39 979h78q4 -27 10 -49q4 -20 7 -43t7 -37v-25q2 -10 5.5 -35.5t8.5 -55t8 -55.5t5 -36q8 43 24.5 92t42 92t62.5 72t90 29h12q57 -47 98.5 -97.5t73 -107.5t57 -121.5t54.5 -138.5h27q10 63 31.5 148t60.5 162t96 130t137 53q43 0 83 -44t76 -112.5t65.5 -153.5 t50 -165t33 -147.5t12.5 -102.5q0 -20 -8.5 -36.5t-30.5 -16.5q-25 0 -39 29q-6 27 -23.5 92.5t-38 139t-40 140t-27.5 91.5q-6 20 -20.5 52t-35 60.5t-46 49t-54.5 20.5q-51 0 -89 -51t-62.5 -120t-38 -138.5t-15.5 -104.5q0 -16 -1 -56t-1 -86t1 -86t1 -56 q-14 -18 -28.5 -35t-36.5 -17q-27 0 -39 27q-2 16 -12.5 56t-22.5 85t-23.5 85t-17.5 57q-4 10 -20.5 48t-37 83t-41 88t-30.5 65q-23 43 -47 74t-74 31q-29 0 -49 -20.5t-34.5 -49.5t-20.5 -59.5t-6 -53.5v-567q0 -23 -10.5 -38t-28.5 -15q-10 0 -23.5 6t-15.5 23z" />
<glyph unicode="n" horiz-adv-x="1132" d="M61 825q0 14 1 33t5.5 35t15.5 27.5t32 11.5q4 0 13 -2t13 -2q2 -156 17.5 -324t58.5 -321q2 25 12.5 83t22.5 124.5t24.5 125t18.5 80.5q12 45 39.5 96.5t65.5 92.5t86.5 68.5t103.5 27.5q88 0 157.5 -40t123 -105.5t91 -149.5t62.5 -170t36 -167t11 -142v-25.5t-3 -26 t-12 -20.5t-26 -8q-27 0 -39 27q-4 53 -12 127.5t-25.5 155.5t-45 160t-68.5 141.5t-97.5 101.5t-132.5 39q-63 0 -108 -22.5t-76 -61.5t-50.5 -91.5t-29.5 -111.5q-4 -20 -10 -64.5t-14.5 -100.5t-16.5 -117.5t-15 -118t-12.5 -100.5t-7.5 -64q-8 -23 -24.5 -27t-32.5 -4 q-4 0 -12 1t-8 3l-130 772q0 4 -1 23.5t-1 29.5z" />
<glyph unicode="o" horiz-adv-x="720" d="M49 336q0 43 1 117.5t9.5 160.5t26.5 174.5t51 160t85 116.5t128 45q104 0 168 -58.5t98.5 -143.5t46 -182t11.5 -173q0 -86 -24.5 -184.5t-76 -180.5t-128 -136t-183.5 -54q-68 0 -109.5 31.5t-65.5 82t-31 110t-7 114.5zM125 362q0 -43 2 -89t14.5 -83.5t41 -63.5 t81.5 -26q98 0 161.5 45t100.5 115t52.5 154t15.5 161q0 49 -8 127t-33 151t-71 126t-122 53q-53 0 -92 -43t-65.5 -108.5t-42 -145.5t-23.5 -154.5t-10 -134t-2 -84.5z" />
<glyph unicode="p" horiz-adv-x="888" d="M43 1198q18 0 40.5 -5t41 -17.5t28 -33t1.5 -48.5q8 2 26.5 5t39 8t38.5 8t25 5h12q92 0 187.5 -29.5t172 -86t124.5 -136.5t48 -180q0 -111 -50 -203t-131 -158.5t-182.5 -104.5t-201.5 -38q0 -63 11.5 -125.5t25.5 -125t25.5 -123t11.5 -121.5q0 -16 -12.5 -27.5 t-28.5 -11.5q-20 0 -32.5 17.5t-18.5 40t-9.5 44t-3.5 29.5q-6 31 -16 97.5t-22.5 150.5t-26.5 177t-26.5 177t-23 149.5t-14.5 98.5zM152 878.5q0 -14.5 1 -27.5t1 -25.5v-14.5q4 -37 11 -91t15 -112.5t16.5 -118t15.5 -106.5t12 -79t7 -34q37 -10 74 -10q52 0 105 19 q92 32 165.5 96.5t121.5 151.5t53 178q0 82 -39 141t-99.5 98t-135.5 57.5t-146 18.5q-37 0 -69 -4t-56.5 -16.5t-38.5 -36t-14 -64.5v-20.5z" />
<glyph unicode="q" horiz-adv-x="825" d="M53 63q-8 22 -8 53q0 33 9 76q18 82 59 179.5t97 198t116.5 185.5t117 141t99.5 65q2 0 11 -6.5t17.5 -14.5t15.5 -15t7 -10q-78 -74 -158 -163.5t-145.5 -188t-106.5 -205t-41 -213.5q59 0 117.5 47.5t113 121t101.5 165.5t86 183.5t66.5 172t42.5 132.5q4 4 13 14 t13 10q8 0 21.5 -6t26 -15t21.5 -20.5t9 -21.5v-13q-14 -68 -24.5 -190.5t-20.5 -275t-18.5 -320.5t-15.5 -322.5t-13 -283.5t-12 -205q0 -27 4 -64q2 -19 2 -37.5t-2 -36.5q-4 -36 -22.5 -60.5t-63.5 -24.5q0 172 9 343t20.5 342t20.5 341t9 342v23.5t-1 36t-1 34.5v23 q-55 -80 -106.5 -174.5t-110.5 -175t-134 -136t-179 -57.5q-16 0 -37 2t-25 24z" />
<glyph unicode="r" horiz-adv-x="811" d="M33 850h57l129 -541h27q8 70 27.5 150t52 159.5t78 152.5t103.5 128t131 89t159 34q0 -53 -44 -92t-104.5 -78t-123 -81t-99.5 -101t-60.5 -138t-37 -164t-20.5 -168t-11 -149q-14 -18 -28.5 -35.5t-37.5 -17.5q-10 0 -22 6t-16 23z" />
<glyph unicode="s" horiz-adv-x="901" d="M49 817q0 70 24.5 120t82.5 93q25 18 86 62.5t130.5 93.5t133 93t88.5 60q4 0 12 1t12 1q55 0 56 -53q0 -25 -40 -52.5t-101.5 -60t-131 -71.5t-131 -84t-101.5 -97.5t-40 -111.5q0 -66 33 -93.5t96 -47.5q27 -8 92.5 -27.5t139 -40t140 -38t93.5 -23.5q57 -33 94 -68 t37 -100q0 -61 -33 -113.5t-85 -94.5t-118.5 -73t-136 -52.5t-136 -31.5t-116.5 -10q-49 0 -62 14.5t-13 63.5q0 25 4 44t14 27.5t24.5 1t36.5 -35.5q59 0 147.5 9t170.5 37.5t140.5 81t58.5 136.5q0 55 -52.5 81.5t-130.5 41t-168 28t-167.5 44t-130 87t-52.5 158.5z" />
<glyph unicode="t" horiz-adv-x="1079" d="M25 672q0 27 15 36t36.5 11t43 0t36.5 2q18 4 65 14t101.5 22.5t101.5 24t65 17.5q0 6 1.5 22.5t2.5 34.5t1 35.5v23.5q0 66 -8.5 130.5t-19.5 128t-19.5 128t-8.5 130.5q0 23 5.5 43t33.5 20q12 0 24.5 -5t14.5 -22l78 -643q2 -2 4 -2h6q23 0 69 11.5t104.5 28t124 34.5 t124.5 33q58 14 108 21q27 4 48 4q18 0 30 -3q8 -2 28 -21.5t24 -29.5q1 -3 1 -6q0 -20 -38 -37q-43 -20 -110.5 -38.5t-150.5 -35t-156 -29t-127 -21.5t-65 -13v-43t-1 -65.5t-1 -66.5v-44q0 -113 14.5 -220.5t14.5 -218.5q0 -12 -9 -23t-21.5 -18.5t-26 -13.5t-21.5 -8 q-16 96 -23 175t-11.5 157t-7.5 165t-9 199h-39q-49 0 -97 -12t-96 -27.5t-96.5 -28t-97.5 -12.5q-31 0 -48 10.5t-17 45.5z" />
<glyph unicode="u" horiz-adv-x="995" d="M62 417q-2 23 -1 41q0 20 2 31q0 23 3.5 69t5.5 104.5t5 123t5 123t4 104.5t4 68q4 0 6 2q2 0 3 1t3 1q23 0 38.5 -19t25.5 -36q0 -20 -1 -64t-1 -100.5v-118v-118t1 -101.5t1 -65q2 -27 10 -84t22.5 -115.5t38 -105.5t58.5 -56q92 0 155.5 69t104.5 173.5t66.5 226 t44 228t33 179.5t34.5 79l53 -13l125 -860q12 -6 21.5 -19t17.5 -29.5t11.5 -31t3.5 -22.5q-4 -16 -27 -32.5t-39 -20.5h-6q-2 0 -6 2q-4 4 -12.5 18t-16.5 30.5t-14 32t-8 21.5q-8 23 -14.5 69t-13.5 103t-13.5 120.5t-11.5 122t-11 104.5t-12 69q-10 -53 -30.5 -123 t-49.5 -146.5t-68 -152.5t-87 -138.5t-105 -106.5t-125 -54q-16 -6 -31 -6q-23 0 -45 14q-35 24 -62.5 70.5t-47 108t-31.5 121t-16 109.5z" />
<glyph unicode="v" horiz-adv-x="991" d="M39 928q27 39 51 39q6 1 10 -1q28 -10 41 -38q12 -25 38 -73t58.5 -109.5t69.5 -128t70 -128t59.5 -109.5t40.5 -71q6 -10 20.5 -30.5t31 -43t35 -40t32.5 -17.5h6t4 2l232 928l102 -51q-55 -106 -96 -231.5t-72 -255.5t-53.5 -256t-36.5 -236q-4 -18 -21.5 -49 t-42.5 -31q-23 0 -36 17.5t-27 35.5q-74 88 -150.5 208t-146.5 243t-127 236.5t-92 189.5z" />
<glyph unicode="w" horiz-adv-x="1636" d="M37 1147q0 10 5 24.5t24 14.5q4 0 15 -5t23.5 -13.5t22.5 -17.5t14 -17l434 -922l134 795q-6 16 -1 34.5t17 34t28.5 25.5t32.5 10t30.5 -3t21.5 -26q8 -20 28.5 -62t46 -96.5t53 -112.5t53 -111.5t46 -95.5t31.5 -62q14 -31 33.5 -67t43 -70.5t49 -66.5t54.5 -54 l205 927q6 23 12 39.5t27 16.5q29 0 35 -22.5t6 -43.5q-47 -133 -67.5 -274.5t-40 -282.5t-51.5 -278.5t-102 -262.5h-12q-23 0 -39 27l-463 823q-18 -49 -31.5 -139t-26.5 -196.5t-26.5 -216t-30 -198.5t-36 -146.5t-43.5 -57.5q-23 0 -37 29q-14 33 -46 103.5t-73 159.5 t-86 187t-86 187.5t-73.5 159t-49.5 104.5q-10 25 -28.5 50.5t-35 53t-28.5 56t-12 59.5z" />
<glyph unicode="x" horiz-adv-x="1081" d="M-6 954h31q18 -14 56 -42.5l86 -64.5t101.5 -75t101.5 -74.5t87 -63.5t57 -40q4 -4 24.5 -14.5t26.5 -12.5q8 25 29.5 87.5t46.5 132t46.5 132t31.5 87.5q6 16 13 37.5t19.5 41t30 32.5t41.5 13v-73q-16 -53 -45.5 -126t-59.5 -148.5t-52.5 -146.5t-24.5 -120v-27 q25 -16 64.5 -42.5t91 -61.5t111 -74t120.5 -78v-4q0 -7 -4 -17q-6 -13 -16.5 -26.5t-21.5 -22.5t-21 -9q-4 0 -8.5 1t-6.5 1q-12 12 -56 50t-95 79t-99.5 72.5t-70.5 31.5q-12 0 -23.5 -6t-15.5 -23l-129 -411l-51 -51q-23 6 -26 27.5t-3 37.5q0 6 1 20.5t3 16.5l129 387 q0 4 1 19.5t1 21.5q0 49 -39 91t-96 82t-126 79t-126 82t-96 90t-39 102z" />
<glyph unicode="y" horiz-adv-x="1120" d="M39 940l51 51q20 -18 66.5 -55t104.5 -83t123 -96t123 -96.5t105 -82t70 -52.5q25 -16 67 -42.5t82.5 -51t72.5 -42t36 -17.5h27v26q0 29 3 86.5t5 131t5 155.5t5 155.5t4 131t2 86.5q8 23 35 29t45 6q0 -195 -5 -388.5t-11 -388t-11 -389.5q-2 -102 -2 -206 q0 -91 2 -183q-10 -16 -26.5 -34.5t-38.5 -18.5q-23 0 -31 22.5t-8 40.5q0 125 13.5 249t13.5 249q0 53 -31 92t-72 70q-115 84 -223.5 156.5t-210.5 147.5t-199.5 157t-191.5 184z" />
<glyph unicode="z" horiz-adv-x="1171" d="M37 967q0 20 15.5 25t37.5 14l670 204q2 0 12 1t14 1q53 0 54 -55q0 -41 -21.5 -66.5t-58.5 -60.5l-490 -876h78l696 206q38 -58 38 -96q0 -6 -1 -12q-5 -27 -44 -28q-19 0 -46 7l-745 -204q-4 -2 -18.5 -3t-20.5 -1q-23 0 -44.5 6t-21.5 34v15l547 1014l-571 -191h-15 q-25 0 -45 20.5t-20 45.5z" />
<glyph unicode="{" horiz-adv-x="708" d="M27 1241q0 88 47 181.5t111.5 178.5t134 157.5t112.5 119.5q2 0 6 1t8 1q23 0 37 -33q-61 -82 -122.5 -151.5t-110.5 -140t-79 -151.5t-30 -183q74 0 140.5 12t138.5 12q8 0 32.5 -2t30.5 -2q8 -4 17.5 -25.5t7.5 -31.5q-6 -31 -26.5 -55.5t-43 -49t-40 -51.5t-17.5 -59 q0 -4 1 -9.5t1 -7.5q33 -2 64.5 -2t57 -8t41 -28.5t15.5 -61.5v-20.5t-2 -20.5q-53 -66 -107.5 -131.5t-98.5 -137t-71.5 -151.5t-27.5 -172v-26.5t1 -40t1 -40v-24.5q10 -35 25.5 -54.5t35 -27.5t42 -9t47.5 -1q35 0 63.5 3t54 13.5t52 27.5t59.5 48q2 -4 2 -15.5v-15.5 q0 -39 -27.5 -70.5t-65.5 -55t-80 -36t-69 -12.5q-63 0 -108 25.5t-75 70t-43 101.5t-13 123q0 88 26.5 170t67.5 157.5t90 145t92 135.5q-29 2 -59.5 5t-58 14.5t-45 32t-17.5 61.5q0 51 10 88t45 86q-37 -4 -85 -6t-92 10t-73.5 45t-29.5 94z" />
<glyph unicode="|" horiz-adv-x="335" d="M25 1315v27.5t3 35t11 29.5t24 12q12 0 24.5 -6t16.5 -22q27 -190 39.5 -386t36.5 -387q6 -35 14.5 -93t16.5 -115.5t14 -101.5t8 -50q0 -6 8.5 -28.5t17.5 -49t16.5 -49t9.5 -29.5q0 -2 1 -12t1 -14q0 -29 -9.5 -44.5t-44.5 -31.5q-27 12 -38 48t-15 54l-153 1160 q0 4 -1 23.5t-1 29.5z" />
<glyph unicode="}" horiz-adv-x="708" d="M39 1649q0 27 14.5 49t36 37.5t46 23.5t44.5 8q68 0 127.5 -14t103.5 -46t70.5 -86t26.5 -134q0 -16 -1 -45t-3 -31l-205 -352v-35h48t52.5 -7t41 -24.5t16.5 -50.5q0 -35 -13.5 -63.5t-29 -56t-28.5 -56.5t-13 -61q0 -4 1 -13.5t3 -13.5q125 -47 205 -136t80 -239 q0 -63 -31 -137t-79 -137.5t-107.5 -106.5t-118.5 -43q-12 0 -33 4t-21 29q0 27 23.5 52.5t57.5 52t75 56t75 67.5t57.5 87t23.5 113q0 68 -44 112t-103.5 71.5t-120 42t-95.5 22.5q-2 8 -3 29.5t-1 29.5q0 37 17.5 63.5t37 50t37 48.5t17.5 57q0 31 -15.5 41.5t-39 11.5 t-50 -3.5t-50.5 -1t-39 17.5t-15 53q0 4 1 8t1 6q10 12 35.5 45t54.5 71t54.5 73t35.5 49q2 4 15.5 26.5t29.5 50t32.5 55.5t24.5 42q14 25 20.5 39t6.5 37q0 31 -11 73t-40 58h-18.5t-28 1t-27.5 1h-18q-53 0 -103.5 -16.5t-103.5 -16.5q-23 0 -31 19.5t-8 42.5z" />
<glyph unicode="~" horiz-adv-x="1329" d="M76 1200q0 35 7 78t25.5 80t48 62.5t74.5 25.5q98 0 160 -36t105 -94.5t75.5 -133t73.5 -150.5q16 16 55 65.5t83 106t84 104.5t59 64q156 117 246 127t120.5 -56.5t6 -193.5t-98.5 -281.5t-191.5 -320.5t-273.5 -313h-8q-4 0 -6 2q-106 53 -220 146t-208 210t-155.5 248 t-61.5 260zM170 1223.5q0 -27.5 2 -49t8 -13.5q6 6 9.5 24.5t3.5 39t-3.5 39t-9.5 24.5q-6 8 -8 -14.5t-2 -50zM197 1340.5q0 -13.5 10 -13.5t10 13.5t-10 13.5t-10 -13.5zM334 1288q0 -16 7 -31.5t16.5 -30t17.5 -30.5t12 -35l51 25q-10 39 -43 72.5t-59 56.5 q0 -4 -1 -13.5t-1 -13.5zM350 966.5q0 -16.5 10 -12.5q12 4 12 13.5t-12 11.5q-10 4 -10 -12.5zM455 1160.5q0 -13.5 10 -13.5t10 13.5t-10 13.5t-10 -13.5zM479 838.5q0 -27.5 2 -50t8 -14.5q6 6 9.5 24.5t3.5 39t-3.5 39t-9.5 26.5q-6 6 -8 -15.5t-2 -49zM567 567h27 l-27 78v-78zM771 551q-3 -6 3 -8q10 -6 19.5 4t5.5 20q-2 6 -8.5 3t-11.5 -8t-8 -11zM850 1083h27v25zM864 683q0 -17 3 -29.5t10 -8.5q10 10 10 39t-10 39q-6 4 -9.5 -9.5t-3.5 -30.5zM952 1186q0 -16 2 -30.5t25 -20.5v102q-23 -6 -25 -20.5t-2 -30.5zM1006 825 q25 6 26.5 26.5t1.5 37.5q0 6 -1 20.5t-3 18.5zM1108 1006q4 8 11 30.5t15.5 47t15.5 46t9 31.5q2 2 3 11.5t1 13.5h-28q-8 0 -13.5 -17.5t-8.5 -41t-4 -47t-1 -36.5v-38zM1155 1341q0 -23 10.5 -43t20.5 -34v77h-31z" />
<glyph unicode="&#xa1;" horiz-adv-x="319" d="M54 -214q0 -17 9.5 -29.5t34.5 -12.5q28 0 43 24q17 133 36 277t36 292t28 295t11 282q0 41 -58 41q-25 0 -41.5 -7.5t-11.5 -36.5q0 -19 1 -58t1 -89.5t1 -106.5t0 -106t-2 -90t-1 -58q-2 -15 -7.5 -60.5t-15 -107.5t-19 -130t-19 -129.5t-16 -106.5t-8.5 -59 q0 -2 -1 -11.5t-1 -12.5zM167 1282q0 -19 18 -26.5t38 -7.5q39 0 49.5 14.5t10.5 41.5q0 17 -6.5 35.5t-37.5 18.5q-16 0 -28.5 -8.5t-22 -20.5t-15.5 -25.5t-6 -21.5z" />
<glyph unicode="&#xa2;" horiz-adv-x="772" d="M63 342q0 20 20.5 78.5t55.5 135.5t81 162t97 159l-32 272q0 4 -1 23.5t-1 29.5v27.5t3 35t11 30t25 12.5q12 0 24 -6.5t16 -22.5q12 -90 16.5 -165t8.5 -146q41 47 83 76.5t81 29.5q18 -12 12 -43t-29.5 -73t-59.5 -95t-77 -110q2 -31 6.5 -65t8.5 -69 q16 -129 42.5 -245.5t47.5 -212.5q39 27 69.5 58.5t56 59t47 46t42.5 18.5q0 -100 -55.5 -172t-141.5 -113q14 -86 5 -138t-58 -58q-16 8 -27.5 58t-17.5 99q-74 -20 -152 -20q-66 0 -105.5 34t-62 86t-31 111.5t-8.5 112.5zM169 329q-15 -79 15.5 -139.5t132.5 -91.5 q51 0 93 15l-68 559q-59 -86 -108.5 -175t-64.5 -168z" />
<glyph unicode="&#xa3;" horiz-adv-x="1417" d="M45 127q0 27 3 55.5t14.5 55t34 46t59.5 25.5l333 51q2 0 12.5 20.5t14.5 31.5q4 10 13.5 38.5t13.5 38.5q0 29 2 103t6 155.5t8 155.5t8 103q4 31 16.5 82t36 102t58.5 88t84 37q25 0 45 -24.5t36.5 -56.5t26 -64.5t9.5 -49.5q0 -25 -21.5 -46t-46.5 -21q-4 0 -8 1t-4 3 l-51 129q-39 -25 -60.5 -68t-31 -93t-11.5 -101.5t-2 -89.5q0 -2 -1 -16.5t0 -30t7 -27.5t21 -12h207l26 -27q-12 -31 -52 -41t-84 -15.5t-80 -12.5t-42 -34l-51 -258l24 -24q2 -2 33 -9.5t80 -16.5t111.5 -20t125 -22.5t120 -20.5t98.5 -16h10t18.5 -1t20.5 -1h16 q27 0 41.5 5.5t26.5 12.5t26.5 12t36.5 5q0 -51 -22.5 -94t-79.5 -43q-84 0 -164 17.5t-159.5 38t-160.5 38t-163 17.5q-47 0 -82 -17.5t-63.5 -44t-56.5 -58.5t-58.5 -58.5t-67.5 -44t-88 -17.5q-37 0 -68.5 5t-54 18.5t-36 39t-13.5 66.5zM125 129q0 -18 9 -29.5 t23.5 -16.5t31 -6t30.5 -1q35 0 71 15t66.5 42t52 58.5t29.5 66.5h-51q-31 0 -76 -3t-87 -15.5t-70.5 -39t-28.5 -71.5z" />
<glyph unicode="&#xa4;" horiz-adv-x="1095" d="M121 1214l31 -6q20 -23 69 -76t109 -116q35 66 91 107.5t148 41.5t151.5 -19.5t94.5 -55.5q10 16 17.5 27t11.5 20q8 14 19 34.5t26.5 37t35 26.5t44.5 6l-15 -74q-16 -31 -39.5 -69.5t-50.5 -81.5q16 -41 21.5 -90t5.5 -105q0 -76 -18.5 -158.5t-57.5 -160.5 q43 -41 92 -87t103 -93q0 -8 -8.5 -20.5t-19.5 -24t-24.5 -18.5t-23.5 -5q-4 0 -8 2t-6 2q-12 16 -54.5 68.5t-91.5 105.5q-51 -72 -123.5 -119t-171.5 -47h-12l-66 -125l-59 -41q-23 10 -21.5 32t5.5 38q0 6 4 20.5t6 14.5l45 84q-37 20 -59.5 56t-35 79t-16.5 90t-4 90 q0 61 4 148.5t27 173.5q-39 35 -74 70.5t-59.5 71.5t-36.5 73t-6 73zM347 631q7 -74 30.5 -137.5t57.5 -100.5t79 -39t96.5 48.5t106.5 161t110 298.5q-12 16 -34.5 50t-51 67t-64.5 57.5t-73 24.5q-80 0 -132 -39t-83 -101.5t-40 -139t-2 -150.5z" />
<glyph unicode="&#xa5;" horiz-adv-x="1001" d="M16 1901q33 47 60.5 37.5t42.5 -37.5q12 -23 37.5 -72t58.5 -110.5t70 -128t69.5 -128t59 -109.5t41.5 -71q6 -10 20 -30.5t30.5 -43t35 -40t32.5 -17.5h6.5t4.5 2l231 928l103 -51q-63 -115 -103.5 -249t-71 -272.5t-56 -271.5t-58.5 -246q2 -2 6 -41h31h51t66.5 -5 t58 -18.5t24.5 -41.5q0 -23 -15 -31t-36 -8q-49 0 -92 2t-84 6q2 -23 2 -47.5v-52.5l320 -4q16 0 21 -14.5t5 -24.5q0 -25 -19.5 -45.5t-45.5 -20.5q-25 0 -39 29h-115q-31 0 -61.5 -1t-65.5 -1q0 -115 -5 -273.5t-15 -371.5q-2 -16 -16.5 -21.5t-24.5 -3.5 q-25 2 -44.5 22.5t-17.5 47.5q2 23 31 37q0 6 1 22t2 34.5t2 35t1 22.5q0 20 2 65.5t4 106t3 131t1 142.5q-86 -4 -170 -7.5t-157 -3.5q-49 0 -50 54q0 23 9.5 36t44.5 13l321 -4q0 29 -1 55.5t-3 50.5q-70 6 -143.5 10.5t-169.5 -0.5q-27 12 -27 39v7q0 2 2 6q92 10 171 15 t159 9q-4 29 -8 48.5t-11 27.5q-74 88 -150.5 208t-146 242.5t-127 236.5t-92.5 190z" />
<glyph unicode="&#xa6;" horiz-adv-x="335" d="M25 1315v27.5t3 35t11 29.5t24 12q12 0 24.5 -6t16.5 -22q8 -53 15.5 -129t14.5 -157t13.5 -158t10.5 -132l-131 447q0 4 -1 23.5t-1 29.5zM98 678l72 8q8 -104 26.5 -212.5t36.5 -215.5q0 -6 8.5 -28.5t17.5 -49t16.5 -49t9.5 -29.5q0 -2 1 -12t1 -14q0 -29 -9.5 -44.5 t-44.5 -31.5q-27 12 -38 48t-15 54z" />
<glyph unicode="&#xa7;" horiz-adv-x="993" d="M119 1450q0 70 24.5 120t81.5 93q25 18 86.5 62t131 93.5t133 93.5t88.5 60q4 0 12 1t12 1q55 0 55 -53q0 -25 -39.5 -52.5t-101 -60t-131.5 -71.5t-131 -84t-101 -97.5t-40 -111.5q0 -66 32.5 -93.5t96.5 -47.5q4 -4 38.5 -15.5t85 -25t108.5 -28.5t108.5 -27.5 t85 -21.5t39.5 -11q57 -33 94 -68t37 -100q0 -61 -33 -113.5t-85 -94.5t-118.5 -73t-136.5 -52.5t-136.5 -31.5t-115.5 -10q-23 0 -44.5 1t-37.5 7q12 -35 43 -53.5t78 -32.5q27 -8 92.5 -27.5t139 -40t140 -38t93.5 -23.5q57 -33 94 -67.5t37 -100.5q0 -61 -33 -113.5 t-85 -94.5t-118.5 -72.5t-136 -52t-136.5 -32t-116 -10.5t-62.5 14.5t-13.5 63.5q0 25 4.5 44.5t14.5 27.5t24.5 1t36.5 -36q59 0 147.5 9t170.5 38t140 81t58 136q0 57 -52 83t-130 40t-168 27.5t-168 44t-130 87t-52 158.5q0 70 24.5 120t82.5 93q16 12 53 39t82 58.5 t95 67.5t95 67q-76 12 -153.5 27.5t-142 47t-105.5 86t-41 144.5zM233 782q35 -20 92.5 -27t123 -2t131 23.5t119 51t87 77.5t33.5 105q0 41 -30.5 65.5t-79.5 40.5q-41 -31 -109 -65.5t-138.5 -75.5t-134 -89t-94.5 -104z" />
<glyph unicode="&#xa8;" horiz-adv-x="696" d="M117 1456q0 35 19.5 62.5t58.5 27.5q35 0 58 -13t23 -52q0 -45 -29.5 -83t-76.5 -38q-18 0 -29.5 9t-16.5 23.5t-6 32t-1 31.5zM387 1456q0 35 19.5 62.5t58.5 27.5q35 0 58.5 -13t23.5 -52q0 -45 -30 -83t-77 -38q-18 0 -29.5 9t-16.5 23.5t-6 32t-1 31.5z" />
<glyph unicode="&#xa9;" horiz-adv-x="1208" d="M100 711v24q16 133 38 260t74 226.5t148.5 160t264.5 60.5q92 0 164.5 -34t129 -91t95.5 -131t64.5 -155t36.5 -162t11 -152q0 -117 -52 -226.5t-140 -192.5t-206 -133t-247 -50q-111 0 -184.5 60.5t-116.5 149.5t-61.5 193.5t-18.5 192.5zM174 715q0 -80 15.5 -171 t53.5 -169t103.5 -130t165.5 -52t187 37.5t156 101t116 142.5t67 163q-35 -59 -90 -109.5t-120.5 -87.5t-135 -57.5t-129.5 -20.5q-66 0 -109.5 40t-71.5 98.5t-40 124t-12 118.5q0 20 13 64.5t36.5 96.5t56.5 107.5t73 101.5t86 75t95 29q-27 -49 -73 -109.5t-92 -127.5 t-80.5 -138.5t-38 -140t35.5 -134t142 -118.5q76 0 146.5 41.5t131 96t108.5 106.5t83 73q-4 88 -28 192.5t-76 194.5t-134 150.5t-201 60.5q-127 0 -211 -67.5t-135 -166t-72.5 -211t-21.5 -204.5z" />
<glyph unicode="&#xaa;" horiz-adv-x="563" d="M28 366q0 24 7.5 61t21.5 77.5t36 80t50.5 72t65 52.5t79.5 20q0 -13 -13 -24.5t-30 -22t-34 -20.5t-24 -18q-26 -28 -48 -59t-37.5 -65.5t-24.5 -70t-9 -69.5q0 -4 2 -15t6 -22t10.5 -19t14.5 -8h3h4q30 26 50.5 56t35 62.5t25 65.5t21.5 65q3 11 2.5 29.5t2 36.5 t11.5 31.5t33 13.5q4 0 10.5 -0.5t6.5 -1.5q42 -66 72 -111.5t50.5 -76t32.5 -47.5t18.5 -26t9 -12t2.5 -5q1 -3 2 -12t2 -19t1.5 -19t0.5 -12q-13 0 -26 1t-19 11l-146 229l-13 10q-3 -9 -12.5 -33.5t-20 -51t-20 -51t-13.5 -33.5q-6 -13 -17 -36t-27 -46.5t-36.5 -40.5 t-45.5 -17q-20 0 -34 10t-22.5 24t-12.5 29.5t-4 26.5z" />
<glyph unicode="&#xab;" horiz-adv-x="1312" d="M114 634.5q1 18.5 5 31.5q14 53 79.5 109t143.5 121t148.5 140.5t97.5 169.5q2 0 6 -1t6 -1q33 -10 29 -36.5t-11 -49.5q-6 -20 -10 -34.5t-10 -27t-15.5 -25.5t-23.5 -32q-16 -18 -59 -64t-90.5 -96.5t-90.5 -95.5t-61 -61q4 -4 17.5 -12t28.5 -16.5t28.5 -15.5t17.5 -9 l94.5 -42t144.5 -64t144.5 -63.5t93.5 -39.5q20 -12 19.5 -26.5t-4.5 -31.5q-12 -53 -66 -36q-23 6 -37 15t-32 32l-574 235q-20 8 -19 26.5zM452 702.5q1 18.5 5 30.5q14 53 79.5 109.5t143.5 121t148.5 140.5t97.5 170q2 0 6 -1t6 -1q33 -10 29 -37t-11 -49 q-6 -20 -10 -34.5t-10 -27t-15.5 -26t-23.5 -31.5q-16 -18 -59 -64.5t-90.5 -96.5t-90.5 -95t-61 -61q4 -4 17.5 -12.5t28.5 -16.5t28.5 -15.5t17.5 -9.5q27 -12 94.5 -41.5t144.5 -63.5t144.5 -63.5t93.5 -40.5q20 -12 19.5 -26.5t-4.5 -30.5q-12 -53 -66 -37 q-23 6 -37 15.5t-33 31.5l-573 236q-20 8 -19 26.5z" />
<glyph unicode="&#xac;" horiz-adv-x="1269" d="M156 932l50 2t129 4t176 5t192.5 6t177.5 5t129 4q35 4 50 -19.5t15 -57.5l21 -484q-12 -8 -27 -14q-12 -4 -28.5 -4t-39.5 10q0 8 -1 43t-3 85t-4 105.5t-5 102.5t-5 78l-2 31l-823 -11z" />
<glyph unicode="&#xad;" horiz-adv-x="1126" d="M80 909q0 18 4 47t29 37q51 8 117.5 13.5t137 9.5t138 7t119.5 7q4 0 31.5 1t62.5 2t69.5 1h55.5h44t66.5 -1t65.5 -2t43 -1q8 -4 18.5 -22.5t8.5 -28.5t-21.5 -29.5t-30.5 -21.5q-27 2 -81 3t-122.5 1h-144.5h-144.5t-122.5 -1t-81 -3q-43 -4 -89 -6t-89 -7 q-4 0 -16.5 -1t-25.5 -2t-25.5 -2t-16.5 -1z" />
<glyph unicode="&#xae;" horiz-adv-x="1060" d="M39 594v24q10 88 19.5 184.5t25.5 188.5t44 175t78 144.5t125 98.5t187 37q92 0 161 -39t119 -103.5t82.5 -147.5t52 -172t27 -176t7.5 -161q2 -109 -35 -224.5t-107.5 -209.5t-173 -154.5t-231.5 -60.5q-111 0 -184.5 60.5t-116.5 149.5t-61.5 193.5t-18.5 192.5z M113 598q0 -80 15 -171t53 -169t103.5 -130t166.5 -52q98 0 173.5 44t129 114.5t86 158.5t45.5 174q-68 10 -133.5 12.5t-129 2.5t-127 1t-126.5 7q0 -27 6 -52.5t6 -54.5q0 -4 -4 -14t-10.5 -21.5t-14.5 -19.5t-18 -8q-20 0 -25 10q-4 8 -9 35t-7 35q-2 23 -9.5 87 t-14.5 136t-13 136.5t-8 86.5q-18 18 -17.5 45t0.5 45v30t2 30q2 4 14.5 7t18.5 3q23 -4 32 -15.5t14 -23.5t12.5 -22.5t23.5 -10.5q100 39 168 37t110 -25.5t60.5 -61.5t22.5 -69q4 -39 -21.5 -73.5t-64.5 -67.5t-80 -66.5t-68 -68.5q63 0 102 2t73 4t73 4t104 2 q8 0 25.5 -1t38.5 -1q0 10 1 17.5t1 15.5q0 57 -6 131t-21.5 150.5t-42 149.5t-69.5 129t-103.5 91t-142.5 35q-84 0 -145.5 -40t-105.5 -105.5t-72.5 -148.5t-44 -168t-21.5 -166t-6 -142zM332 954q2 -18 7 -65t9 -99.5t9 -99.5t8 -65q33 33 72.5 69.5t73.5 76.5t56.5 81 t22.5 82q0 33 -38 51.5t-91 18.5q-12 0 -33.5 -2.5t-43.5 -6.5t-37 -11t-15 -19v-11z" />
<glyph unicode="&#xaf;" horiz-adv-x="911" d="M106 1397q0 18 4 47t29 37q51 8 79 9t52.5 1t52 -1t78.5 3q4 0 32 1t62.5 2t69.5 1h56h43.5t66.5 -1t65.5 -2t43.5 -1q8 -4 18 -22.5t8 -28.5t-21.5 -29.5t-29.5 -21.5q-39 2 -99.5 7t-124 9t-123.5 7t-99 1q-43 -4 -89.5 -6t-89.5 -6q-4 0 -16 -1t-25.5 -2t-25.5 -2 t-17 -1z" />
<glyph unicode="&#xb0;" horiz-adv-x="696" d="M102 1051q0 29 3.5 86t22.5 113.5t63.5 98.5t125.5 42q74 0 119 -26t69.5 -62.5t33 -79.5t8.5 -78q0 -37 -12.5 -82t-41 -84t-77.5 -65.5t-125 -26.5q-49 0 -84 16.5t-58.5 41t-35 53t-11.5 53.5zM156 1061q39 -84 96 -102.5t111.5 5t94.5 77t45 111.5t-36 109.5 t-148 71.5q-57 0 -89.5 -35.5t-49 -83t-20.5 -92.5t-4 -61z" />
<glyph unicode="&#xb1;" horiz-adv-x="940" d="M37 631q0 12 4 38.5t25 26.5h231q2 0 11 14.5t14 22.5v10q0 104 -13.5 205t-13.5 205q27 0 45 -24.5t29.5 -62.5t19.5 -86t13.5 -94t10.5 -87t13 -66h25q55 0 101 9.5t88 17.5t81 10t82 -10q39 -12 36 -21.5t-35 -18.5t-82 -17.5t-105.5 -18.5t-106.5 -23.5t-84 -29.5 q6 -33 13 -79t13.5 -94t10.5 -94.5t4 -78.5q25 2 48.5 2h49.5h52t67 -5.5t57.5 -18.5t22.5 -42q0 -23 -16.5 -31t-36.5 -8q-80 0 -147.5 2t-135.5 3t-139.5 0t-159.5 -5q-27 14 -25 39v6q0 2 2 6q72 6 140.5 24.5t130.5 23.5q-2 18 -6 48.5t-8.5 64.5t-8.5 63.5t-6 44.5 q-2 14 -2 32.5t-3 35t-12 26.5t-30 10q-55 0 -107.5 -14t-105.5 -14q-51 0 -51 53z" />
<glyph unicode="&#xb2;" horiz-adv-x="681" d="M29 796q24 33 47.5 62t52 50t64 33.5t83.5 12.5q47 0 63.5 -27t16.5 -66q0 -55 -18.5 -116t-46 -121t-58 -116.5t-55.5 -100.5v-13l370 103q1 0 7.5 0.5t8.5 0.5q8 0 17.5 -1.5t11.5 -11.5q1 -5 2.5 -13t2.5 -15q1 -9 1 -18h-139l-345 -120q0 45 14 88t34.5 85t44 83.5 t44 84t34.5 86t14 89.5q0 4 -1 13.5t-1.5 20t-1 19.5t-0.5 12q-3 12 -11 13t-17 1q-40 0 -65.5 -23t-45.5 -49.5t-40.5 -49.5t-51.5 -23q-6 0 -13 0.5t-13 2.5t-9 8t-1 16z" />
<glyph unicode="&#xb3;" horiz-adv-x="569" d="M32 922q0 16 23 29.5t57.5 25.5t77 21.5t81.5 16t71.5 10t47.5 3.5q10 0 28.5 -0.5t19.5 -0.5q4 -1 10.5 -6t6.5 -7q0 -1 -6.5 -11t-10.5 -15q-5 -7 -22.5 -29t-41 -51t-49.5 -62.5t-50 -62t-41 -50.5t-22 -29q-3 -3 -9 -13t-7 -13q27 10 48.5 15.5t40.5 8t39.5 3 t46.5 0.5q68 0 109.5 -23t41.5 -80q0 -47 -22 -94t-61 -84t-93.5 -59.5t-117.5 -22.5q-13 0 -19.5 4t-9.5 10.5t-3.5 14.5t-0.5 16q0 21 5.5 42.5t34.5 28.5v-61q8 -1 16 -3q6 -1 13.5 -1.5t12.5 0.5q43 6 76 25t56.5 46.5t35.5 59.5t12 63v10.5t-0.5 15.5t-1 15.5 t-0.5 10.5q-15 17 -36 21.5t-44 4.5q-46 0 -87.5 -14.5t-78 -33t-68 -33.5t-58.5 -15v57q7 10 23.5 31.5t37.5 48t44.5 56t43.5 57t36 48t25 31.5q3 4 10 14.5t15 23t14.5 23t8.5 16.5q-4 1 -16 1.5t-16 0.5q-33 0 -62.5 -12.5t-58.5 -28t-57 -27.5t-58 -12q-17 0 -29 5.5 t-12 19.5z" />
<glyph unicode="&#xb4;" horiz-adv-x="507" d="M110.5 1402q6.5 28 10.5 44q2 8 6 26.5t8 24.5q12 16 30.5 43t39 55.5t39 54t30.5 40.5q8 12 22.5 27.5t30 27.5t32 19.5t32.5 2.5q4 -2 11.5 -5t11.5 -5l-258 -377l-29 -18q-23 12 -16.5 40z" />
<glyph unicode="&#xb5;" horiz-adv-x="903" d="M35 1059l108 4q20 -6 35 -81t33 -183.5t43 -232.5t66.5 -229.5t104 -176t155.5 -70.5q35 8 58.5 55.5t37.5 107.5t20 117.5t11 86.5q0 23 1 67.5t1 102v120v120t-1 102.5t-1 65q10 18 25.5 38t37.5 20q0 -2 2 -2h4q2 -2 6 -3q0 -23 3 -69.5t5.5 -106t5.5 -126t5 -126 t5 -106.5t3 -70q4 -47 14.5 -107.5t20.5 -120.5t17 -115.5t7 -92.5t-10 -50t-35 9q-6 6 -15 37t-17.5 63.5t-15.5 57t-9 18.5q-14 -47 -33.5 -88t-43 -68.5t-51 -39.5t-58.5 0q-68 10 -125.5 54t-105.5 108.5t-86 141.5t-66.5 154.5t-49 149.5t-30.5 125q-4 -104 0 -213 t10 -235t10 -277.5t0 -343.5q-23 -4 -47 -7t-33 17z" />
<glyph unicode="&#xb6;" horiz-adv-x="972" d="M70 862q0 176 94 252t262 76q27 0 71 -1t93 -6t94 -13.5t76 -20.5q29 0 55.5 -16.5t24.5 -51.5q4 -39 2 -115.5t-6.5 -172t-10.5 -200t-10 -199.5t-6 -173t2 -117v-14q0 -10 -5 -25.5t-13.5 -30t-20.5 -24.5t-24 -10q-25 0 -39 29q-6 111 1 236.5t17 257.5t21.5 261 t13.5 246q-12 -10 -28.5 -10t-33.5 4q-18 4 -38 12q-2 -4 2 -44t1 -149.5t-19.5 -308t-57.5 -522.5l-72 -12q-14 2 -17 17.5t-2 34t5 34.5t4 23q0 74 6 143.5t12 137t12.5 137t6.5 143.5q0 10 -1 38.5t-1 39.5q-47 -12 -84 -22.5t-73 -17t-74 -10.5t-83 -4q-82 0 -119.5 45 t-37.5 123z" />
<glyph unicode="&#xb7;" horiz-adv-x="509" d="M111 549q0 55 34.5 97t102.5 42q63 0 104 -20.5t41 -79.5q0 -35 -14 -69t-39 -59.5t-59.5 -42t-75.5 -16.5q-35 0 -53.5 14.5t-27.5 37t-11 48t-2 48.5z" />
<glyph unicode="&#xb8;" horiz-adv-x="759" d="M256 55q-6 70 5 86.5t23.5 4t18.5 -43t-8 -51.5q0 -53 16.5 -75.5t46.5 -38.5q14 -8 47 -23.5t70 -33t71 -32t46 -18.5q29 -27 47 -55.5t18 -81.5q0 -76 -34.5 -133.5t-84 -95t-103.5 -57t-91 -19.5q-25 0 -31 11t-6 52q0 20 2 36.5t7.5 23t13.5 0t18 -28.5q29 0 73 7 t85 30.5t69.5 65.5t28.5 110q0 47 -25.5 68.5t-64.5 34t-84 22.5t-84 34.5t-64.5 70.5t-25.5 130z" />
<glyph unicode="&#xb9;" horiz-adv-x="258" d="M33 828q20 0 38.5 -7.5t17.5 -22.5q2 -16 7.5 -52t12.5 -81t15 -94t15 -94t12.5 -80.5t8.5 -52.5v-6q0 -4 -3.5 -11t-9.5 -13t-14.5 -10.5t-16.5 -4.5q-18 0 -27 13q-2 13 -5 41.5t-6.5 64.5t-7.5 75.5t-7.5 76t-6 65t-3.5 42.5q-4 38 -12 75.5t-8 75.5z" />
<glyph unicode="&#xba;" horiz-adv-x="696" d="M102 1051q0 29 3.5 86t22.5 113.5t63.5 98.5t125.5 42q74 0 119 -26t69.5 -62.5t33 -79.5t8.5 -78q0 -37 -12.5 -82t-41 -84t-77.5 -65.5t-125 -26.5q-49 0 -84 16.5t-58.5 41t-35 53t-11.5 53.5zM156 1061q39 -84 96 -102.5t111.5 5t94.5 77t45 111.5t-36 109.5 t-148 71.5q-57 0 -89.5 -35.5t-49 -83t-20.5 -92.5t-4 -61z" />
<glyph unicode="&#xbb;" horiz-adv-x="1114" d="M18 952h78l28 -20q28 -21 73 -54.5t100 -75.5t112.5 -85t109.5 -83t91 -69q16 -12 22.5 -17t6.5 -22q0 -2 -1 -3t-1 -3v-6q-4 -8 -13.5 -27.5t-13.5 -23.5l-334 -387q-4 -2 -6 -2h-6q-29 0 -36 21t-7 44q0 6 1 20.5t3 18.5q12 12 45 46t70 71t70.5 69.5t46.5 47.5l15 20 t17.5 24.5t13.5 21.5l5 9zM340 975h78l28 -21q27 -20 72 -54t100.5 -76t112.5 -85t109.5 -83t91.5 -68q16 -12 22.5 -17.5t6.5 -21.5q0 -2 -1.5 -3t-1.5 -3v-6q-4 -8 -13 -28t-13 -24l-334 -387q-4 -2 -6 -2h-6q-29 0 -36 21.5t-7 44.5q0 6 1 20.5t3 18.5q12 12 45 46 t69.5 70.5t70.5 69.5t46 47q6 8 15.5 20.5t17.5 25t13 21.5l5 9z" />
<glyph unicode="&#xbc;" horiz-adv-x="1259" d="M37 1227q27 0 53.5 -8.5t24.5 -24.5q6 -27 20.5 -95.5t29.5 -145t29.5 -145.5t20.5 -95v-6q0 -10 -18.5 -25.5t-44.5 -15.5q-25 0 -37 12q-4 20 -11.5 75.5t-15.5 118t-15 116.5t-10 77q-6 41 -16 81t-10 81zM170 39v6q0 18 8 33.5t21 32.5l360 1185q4 12 28.5 35 t47.5 23v-84q-12 -41 -39 -128t-59.5 -196.5t-69.5 -229.5t-69.5 -229.5t-58.5 -196.5t-38 -128q-6 -23 -9 -49.5t-8 -51t-18.5 -46t-42.5 -33.5q-6 4 -26.5 24.5t-24.5 26.5q-2 4 -2 6zM483 289v10q94 109 169 226.5t132 244.5q-8 29 -0.5 48.5t41.5 19.5q16 0 24.5 -6.5 t10.5 -28.5l37 -359q4 -35 7 -42t26 -7q53 0 104 17.5t99 17.5q23 0 36 -16.5t13 -32.5q0 -10 -3 -20.5t-18 -14.5q-59 4 -123.5 3t-122.5 -17v-10q0 -43 10.5 -86t10.5 -89v-38.5t-29 -24.5q-20 0 -28 18q0 8 -3.5 30t-6.5 44.5t-5 44t-4 29.5q-4 23 -4 36t-3 19t-10 8 t-26 2q-37 0 -73.5 -10t-72.5 -23.5t-71 -23.5t-70 -10q-18 0 -32.5 13t-14.5 28zM616 342q18 0 57.5 4t77 11.5t65.5 17.5t26 20l-39 262l-187 -292v-23z" />
<glyph unicode="&#xbd;" horiz-adv-x="1501" d="M37 1227q25 0 48.5 -8.5t23.5 -26.5q4 -31 17 -108.5t27.5 -165t28 -166t17.5 -109.5v-8q0 -10 -16.5 -28.5t-41.5 -18.5q-20 0 -32 16q-4 25 -10.5 87.5t-14.5 133t-14.5 134t-8.5 88.5q-4 45 -14 90t-10 90zM223 31v6q0 18 8.5 33.5t20.5 31.5l360 1186q4 12 29 35 t47 23v-84q-12 -41 -38.5 -128t-59.5 -197t-70 -229.5t-69.5 -229t-58 -196.5t-38.5 -128q-6 -23 -9 -49.5t-8 -51t-18.5 -46t-42.5 -34.5q-6 4 -26.5 24.5t-24.5 27.5q-2 4 -2 6zM645 563q31 37 61.5 70t67.5 56.5t83 37.5t108 14q59 0 80.5 -29.5t21.5 -74.5 q0 -61 -23.5 -130t-59.5 -136.5t-76 -130t-70 -111.5v-16l477 116q2 0 9 1t11 1q10 0 22.5 -2t16.5 -12q2 -6 2 -15t2 -18q0 -10 2 -20h-178l-446 -133q0 76 36.5 146.5t82 140t82 141t36.5 149.5q0 8 -1 36t-3 36q-4 12 -13 14t-24 2q-51 0 -83.5 -25.5t-58.5 -55 t-53.5 -55t-66.5 -25.5q-16 0 -33.5 3t-11.5 25z" />
<glyph unicode="&#xbe;" horiz-adv-x="1632" d="M32 1003q0 17 23.5 33t59.5 29.5t80 24.5t85 18.5t74.5 11.5t49.5 4q10 0 29 -0.5t20 -0.5q4 -1 11 -7t7 -8q0 -1 -7 -12.5t-11 -17.5q-5 -8 -23.5 -33.5t-43 -58.5t-51 -71.5t-51.5 -71.5t-43 -58.5t-23 -33.5q-2 -4 -8.5 -15t-7.5 -15q28 12 50 18t42 9t41.5 3.5 t47.5 0.5q71 0 114 -26t43 -93q0 -54 -23 -107.5t-63.5 -96.5t-97 -69t-121.5 -26q-13 0 -20 4.5t-10 12t-3.5 17t-0.5 18.5q0 24 5.5 48.5t36.5 32.5v-70q8 -1 16 -3q7 -1 14.5 -1.5t12.5 0.5q44 7 79 29t59 53.5t36.5 68t12.5 73.5v11.5t-0.5 18t-1 18t-0.5 11.5 q-15 20 -37.5 25.5t-45.5 5.5q-48 0 -91 -17t-81 -38.5t-71 -38.5t-61 -17v66q8 11 25.5 35.5t39 55.5t45.5 64.5t45.5 65t38 55.5t24.5 36q4 5 11.5 17.5t15.5 26.5t14.5 26.5t9.5 18.5q-4 1 -17 2t-17 1q-34 0 -65 -14.5t-61 -32.5t-58.5 -32t-59.5 -14q-18 0 -30.5 6.5 t-12.5 23.5zM463 75v6q0 18 8 34t20 32l361 1186q4 12 28.5 34.5t46.5 22.5v-84q-12 -41 -38.5 -128t-59.5 -196.5t-69.5 -229.5t-69.5 -229.5t-58.5 -196.5t-37.5 -128q-6 -23 -9.5 -49.5t-8.5 -51t-18.5 -46t-41.5 -33.5q-6 4 -26.5 24.5t-24.5 26.5q-2 4 -2 6zM612 222 q0 1 0.5 4.5t0.5 4.5q183 220 292 477q-7 26 -1 47.5t40 21.5q17 0 24.5 -6.5t10.5 -29.5l36 -362q3 -35 6.5 -43t25.5 -8q27 0 52.5 5.5t50 12.5t48.5 12.5t47 5.5q21 0 33.5 -16t12.5 -34q0 -11 -2.5 -20t-17.5 -14q-56 4 -119.5 2t-119.5 -18v-9q0 -45 10.5 -88t10.5 -88 q0 -8 0.5 -18.5t-1.5 -21t-7.5 -17.5t-20.5 -7q-18 0 -28 18q0 8 -2.5 29t-5.5 44.5t-5 45.5t-4 29q-4 23 -4.5 36t-3 20t-10 9t-24.5 2q-37 0 -72 -10.5t-70.5 -23.5t-69.5 -23.5t-67 -10.5q-18 0 -32 13.5t-14 28.5zM741 276q19 0 56 4t74 11t63.5 17t25.5 21l-36 264 l-183 -297v-20z" />
<glyph unicode="&#xbf;" horiz-adv-x="856" d="M17 371q0 -71 58.5 -124.5t140 -88.5t167 -53.5t140.5 -18.5q159 0 236 68.5t77 216.5q0 96 -37.5 183t-86 170t-98 165.5t-72.5 170.5q-4 17 -21.5 24t-38.5 9.5t-39.5 2.5h-25.5q0 -72 24 -134.5t61.5 -122t80 -116t79.5 -115.5t61.5 -123t24.5 -139q0 -86 -67.5 -132 t-149.5 -46q-81 0 -139.5 16.5t-107 49t-89.5 77.5t-88 101q-4 0 -15 1t-15 1q-21 0 -40.5 -9.5t-19.5 -33.5zM513 1351q6 -12 18.5 -17.5t26.5 -6.5t26 -1q26 0 51 6.5t25 38.5q0 10 -10.5 22t-24.5 23t-28.5 17t-24.5 4q-12 -2 -34 -22.5t-24 -30.5q-7 -21 -1 -33z" />
<glyph unicode="&#xc0;" horiz-adv-x="1198" d="M12 -30.5q2 18.5 2 30.5l387 1649q4 18 19.5 42.5t32.5 34.5q6 -20 18 -41.5t33 -35.5l618 -1416q2 -2 2 -11v-13q0 -23 -9 -39t-32 -16q-27 0 -39 26l-153 361q-2 2 -29.5 5t-44.5 3q-8 0 -24.5 -1t-34 -2t-31.5 -3t-16 -2q-51 -8 -133 -23.5t-160 -32t-135.5 -30 t-61.5 -17.5l-129 -514q-4 -16 -15.5 -22t-23.5 -6q-18 0 -27.5 11t-12.5 27.5t-1 35zM246 559q33 0 88 5t118.5 13.5t128 21.5t118 27.5t86 32t32.5 35.5q0 4 -1 14.5t-3 14.5l-360 772q-4 -10 -13.5 -39t-13.5 -39q-14 -57 -32.5 -138t-38 -171l-39 -180t-36 -166 t-25.5 -131.5t-9 -71.5zM424 2167q4 2 12 5t12 5q18 4 36.5 -2t35 -18t32 -26.5t25.5 -26.5q12 -14 32.5 -39t43.5 -52.5t43 -53t33 -42.5q4 -6 9 -24.5t7 -24.5q4 -16 11.5 -42.5t-17.5 -39.5l-33 19z" />
<glyph unicode="&#xc1;" horiz-adv-x="1198" d="M12 -30.5q2 18.5 2 30.5l387 1649q4 18 19.5 42.5t32.5 34.5q6 -20 18 -41.5t33 -35.5l618 -1416q2 -2 2 -11v-13q0 -23 -9 -39t-32 -16q-27 0 -39 26l-153 361q-2 2 -29.5 5t-44.5 3q-8 0 -24.5 -1t-34 -2t-31.5 -3t-16 -2q-51 -8 -133 -23.5t-160 -32t-135.5 -30 t-61.5 -17.5l-129 -514q-4 -16 -15.5 -22t-23.5 -6q-18 0 -27.5 11t-12.5 27.5t-1 35zM246 559q33 0 88 5t118.5 13.5t128 21.5t118 27.5t86 32t32.5 35.5q0 4 -1 14.5t-3 14.5l-360 772q-4 -10 -13.5 -39t-13.5 -39q-14 -57 -32.5 -138t-38 -171l-39 -180t-36 -166 t-25.5 -131.5t-9 -71.5zM268.5 1834q6.5 28 10.5 44q2 8 6 26.5t8 24.5q12 16 30.5 43t39 55.5t39 54t30.5 40.5q8 12 22.5 27.5t30 27.5t32 19.5t32.5 2.5q4 -2 11.5 -5t11.5 -5l-258 -377l-29 -18q-23 12 -16.5 40z" />
<glyph unicode="&#xc2;" horiz-adv-x="1198" d="M12 -30.5q2 18.5 2 30.5l387 1649q4 18 19.5 42.5t32.5 34.5q6 -20 18 -41.5t33 -35.5l618 -1416q2 -2 2 -11v-13q0 -23 -9 -39t-32 -16q-27 0 -39 26l-153 361q-2 2 -29.5 5t-44.5 3q-8 0 -24.5 -1t-34 -2t-31.5 -3t-16 -2q-51 -8 -133 -23.5t-160 -32t-135.5 -30 t-61.5 -17.5l-129 -514q-4 -16 -15.5 -22t-23.5 -6q-18 0 -27.5 11t-12.5 27.5t-1 35zM231 2009q14 31 39 86.5t49.5 116t47 116.5t36.5 89q8 20 11 44t9.5 43.5t18.5 31.5t41 12h12t10 -2l287 -350q51 14 66.5 -8.5t15.5 -53.5q0 -29 -16.5 -61.5t-53.5 -32.5 q-49 31 -85.5 72t-66.5 86t-53.5 89t-41.5 79q-6 6 -26.5 16t-25.5 10q-4 0 -13 -10t-11 -16l-199 -383q0 -2 -4 -2h-8q-27 -1 -39 28zM246 559q33 0 88 5t118.5 13.5t128 21.5t118 27.5t86 32t32.5 35.5q0 4 -1 14.5t-3 14.5l-360 772q-4 -10 -13.5 -39t-13.5 -39 q-14 -57 -32.5 -138t-38 -171l-39 -180t-36 -166t-25.5 -131.5t-9 -71.5z" />
<glyph unicode="&#xc3;" horiz-adv-x="1198" d="M12 -30.5q2 18.5 2 30.5l387 1649q4 18 19.5 42.5t32.5 34.5q6 -20 18 -41.5t33 -35.5l618 -1416q2 -2 2 -11v-13q0 -23 -9 -39t-32 -16q-27 0 -39 26l-153 361q-2 2 -29.5 5t-44.5 3q-8 0 -24.5 -1t-34 -2t-31.5 -3t-16 -2q-51 -8 -133 -23.5t-160 -32t-135.5 -30 t-61.5 -17.5l-129 -514q-4 -16 -15.5 -22t-23.5 -6q-18 0 -27.5 11t-12.5 27.5t-1 35zM96 1902q-6 59 9.5 118t49.5 104t85 70.5t117 19.5q57 0 103 -36t89 -78t90 -78t111 -36q53 0 87 26t57.5 55.5t42 55t42.5 25.5q0 -127 -68.5 -181t-173.5 -54q-74 0 -125 32.5 t-92 70.5t-82 71t-92 33q-43 0 -71.5 -26t-47 -64.5t-27.5 -83t-13 -80.5q-12 -10 -25.5 -18.5t-30.5 -8.5q-20 0 -27.5 22.5t-7.5 40.5zM246 559q33 0 88 5t118.5 13.5t128 21.5t118 27.5t86 32t32.5 35.5q0 4 -1 14.5t-3 14.5l-360 772q-4 -10 -13.5 -39t-13.5 -39 q-14 -57 -32.5 -138t-38 -171l-39 -180t-36 -166t-25.5 -131.5t-9 -71.5z" />
<glyph unicode="&#xc4;" horiz-adv-x="1198" d="M12 -30.5q2 18.5 2 30.5l387 1649q4 18 19.5 42.5t32.5 34.5q6 -20 18 -41.5t33 -35.5l618 -1416q2 -2 2 -11v-13q0 -23 -9 -39t-32 -16q-27 0 -39 26l-153 361q-2 2 -29.5 5t-44.5 3q-8 0 -24.5 -1t-34 -2t-31.5 -3t-16 -2q-51 -8 -133 -23.5t-160 -32t-135.5 -30 t-61.5 -17.5l-129 -514q-4 -16 -15.5 -22t-23.5 -6q-18 0 -27.5 11t-12.5 27.5t-1 35zM215 1964q0 35 19.5 62.5t58.5 27.5q35 0 58 -13t23 -52q0 -45 -29.5 -83t-76.5 -38q-18 0 -29.5 9t-16.5 23.5t-6 32t-1 31.5zM246 559q33 0 88 5t118.5 13.5t128 21.5t118 27.5t86 32 t32.5 35.5q0 4 -1 14.5t-3 14.5l-360 772q-4 -10 -13.5 -39t-13.5 -39q-14 -57 -32.5 -138t-38 -171l-39 -180t-36 -166t-25.5 -131.5t-9 -71.5zM485 1964q0 35 19.5 62.5t58.5 27.5q35 0 58.5 -13t23.5 -52q0 -45 -30 -83t-77 -38q-18 0 -29.5 9t-16.5 23.5t-6 32t-1 31.5z " />
<glyph unicode="&#xc5;" horiz-adv-x="1198" d="M12 -30.5q2 18.5 2 30.5l387 1649q4 18 19.5 42.5t32.5 34.5q6 -20 18 -41.5t33 -35.5l618 -1416q2 -2 2 -11v-13q0 -23 -9 -39t-32 -16q-27 0 -39 26l-153 361q-2 2 -29.5 5t-44.5 3q-8 0 -24.5 -1t-34 -2t-31.5 -3t-16 -2q-51 -8 -133 -23.5t-160 -32t-135.5 -30 t-61.5 -17.5l-129 -514q-4 -16 -15.5 -22t-23.5 -6q-18 0 -27.5 11t-12.5 27.5t-1 35zM246 559q33 0 88 5t118.5 13.5t128 21.5t118 27.5t86 32t32.5 35.5q0 4 -1 14.5t-3 14.5l-360 772q-4 -10 -13.5 -39t-13.5 -39q-14 -57 -32.5 -138t-38 -171l-39 -180t-36 -166 t-25.5 -131.5t-9 -71.5zM248 1847q0 29 3 86t22.5 113.5t63.5 98.5t126 42q74 0 119 -25.5t69.5 -62.5t32.5 -80t8 -78q0 -37 -12 -82t-40.5 -84t-78 -65.5t-125.5 -26.5q-49 0 -83.5 16.5t-58 41t-35 53t-11.5 53.5zM301 1857q39 -84 96.5 -102.5t111.5 5.5t94 77 t45.5 111.5t-35.5 109.5t-148 72q-57 0 -90 -36t-49.5 -83t-20.5 -92.5t-4 -61.5z" />
<glyph unicode="&#xc6;" horiz-adv-x="1851" d="M56.5 61.5q-3.5 14.5 0.5 29.5t13.5 30.5t15.5 28.5l858 1435q20 31 37.5 39t30 -1t19.5 -30.5t7 -50.5l-6 -219q39 4 91.5 18.5t107.5 32t108.5 32.5t94.5 21h14q29 0 48.5 -11t19.5 -40q0 -4 -1.5 -12t-3.5 -12q-51 -4 -116.5 -11.5t-132 -22.5t-128 -42t-104.5 -66 l-14 -567l6 -14l567 233q47 -4 63.5 -11t14.5 -17.5t-18.5 -23.5t-34.5 -26q-20 -10 -64.5 -29.5t-100.5 -45t-117.5 -53t-118 -53t-100.5 -46t-64 -31.5q-14 -2 -20.5 -13t-8.5 -25.5t-1 -28t1 -19.5q0 -41 10 -88t15.5 -101t-2 -116.5t-42.5 -136.5q2 -2 -2 -11.5 t-6 -11.5q-10 -20 -24.5 -32.5t-34.5 -1.5q-25 12 -25 41l-4 450q0 -2 -32.5 3t-84 13.5t-112 16.5t-115.5 11t-97 -1t-54 -18l-285 -408q-10 -14 -23.5 -14t-25.5 4q-16 8 -19.5 22.5zM500 586q45 -18 117.5 -30.5t141 -14.5t119 5t50.5 25v43q-8 190 -12.5 321.5 t-5.5 217.5t1 135t4.5 76t5.5 37t5 22q-49 -76 -96.5 -165t-91.5 -178t-83 -173t-69.5 -151.5t-53 -112.5t-32.5 -57zM1030 2q0 53 11.5 76.5t58.5 36.5l663 184l31 -82q-20 -4 -62 -16.5t-95.5 -27.5t-112 -31.5t-112.5 -32t-96 -27.5t-63 -19q-53 -16 -75.5 -27t-40 -19.5 t-38 -11.5t-69.5 -3z" />
<glyph unicode="&#xc7;" horiz-adv-x="966" d="M37 555q0 43 6 123t21.5 173t42 191.5t65.5 177t92 130t123 51.5q0 -35 -11 -56.5t-28.5 -42t-38 -41t-39.5 -51.5q-86 -147 -120.5 -324t-34.5 -345q0 -57 4 -123t22.5 -127.5t55 -111.5t100.5 -77h27.5t42 -1t43 -1h28.5q27 0 89.5 4.5t126 18.5t111.5 43t48 78 q0 29 -15.5 51t-15.5 53q23 0 47.5 -9t44 -25.5t33 -37t13.5 -45.5q0 -41 -30 -73.5t-78 -59t-106.5 -45t-117 -31t-109.5 -18.5t-82 -6q-115 0 -185.5 53t-109.5 134t-52 179.5t-13 190.5zM332 -6q-6 70 5 86.5t23.5 4t18.5 -43t-8 -51.5q0 -53 16.5 -75.5t46.5 -38.5 q14 -8 47 -23.5t70 -33t71 -32t46 -18.5q29 -27 47 -55.5t18 -81.5q0 -76 -34.5 -133.5t-84 -95t-103.5 -57t-91 -19.5q-25 0 -31 11t-6 52q0 20 2 36.5t7.5 23t13.5 0t18 -28.5q29 0 73 7t85 30.5t69.5 65.5t28.5 110q0 47 -25.5 68.5t-64.5 34t-84 22.5t-84 34.5 t-64.5 70.5t-25.5 130z" />
<glyph unicode="&#xc8;" horiz-adv-x="1042" d="M90 1108v283q4 2 19.5 3t19.5 1q23 0 32 -9.5t13 -19.5t9 -19.5t22 -9.5q37 0 91 14.5t113.5 32t118 35t103.5 23.5h14q29 0 48.5 -11.5t19.5 -39.5q0 -4 -1 -12.5t-3 -12.5q-57 -4 -131 -12t-148 -28.5t-137.5 -53.5t-99.5 -86v-96.5t1 -161.5t7 -169t18 -116l567 234 q47 -4 63.5 -11.5t14.5 -17.5t-18.5 -23.5t-34.5 -25.5q-20 -10 -64.5 -29.5t-100.5 -45.5t-117.5 -53.5t-118 -53t-100.5 -46t-64 -30.5q-14 -2 -20.5 -13.5t-8.5 -26t-1 -27.5t1 -19q0 -66 15.5 -128.5t15.5 -127.5q0 -29 -19.5 -54.5t-66.5 -25.5zM227 16q0 53 11.5 77 t58.5 36l664 184l30 -82q-20 -4 -62 -16t-95.5 -27.5t-111.5 -32t-112.5 -31.5t-96.5 -27.5t-62 -18.5q-53 -16 -76 -27.5t-40.5 -19.5t-38 -11.5t-69.5 -3.5zM346 2167q4 2 12 5t12 5q18 4 36.5 -2t35 -18t32 -26.5t25.5 -26.5q12 -14 32.5 -39t43.5 -52.5t43 -53t33 -42.5 q4 -6 9 -24.5t7 -24.5q4 -16 11.5 -42.5t-17.5 -39.5l-33 19z" />
<glyph unicode="&#xc9;" horiz-adv-x="1042" d="M90 1108v283q4 2 19.5 3t19.5 1q23 0 32 -9.5t13 -19.5t9 -19.5t22 -9.5q37 0 91 14.5t113.5 32t118 35t103.5 23.5h14q29 0 48.5 -11.5t19.5 -39.5q0 -4 -1 -12.5t-3 -12.5q-57 -4 -131 -12t-148 -28.5t-137.5 -53.5t-99.5 -86v-96.5t1 -161.5t7 -169t18 -116l567 234 q47 -4 63.5 -11.5t14.5 -17.5t-18.5 -23.5t-34.5 -25.5q-20 -10 -64.5 -29.5t-100.5 -45.5t-117.5 -53.5t-118 -53t-100.5 -46t-64 -30.5q-14 -2 -20.5 -13.5t-8.5 -26t-1 -27.5t1 -19q0 -66 15.5 -128.5t15.5 -127.5q0 -29 -19.5 -54.5t-66.5 -25.5zM227 16q0 53 11.5 77 t58.5 36l664 184l30 -82q-20 -4 -62 -16t-95.5 -27.5t-111.5 -32t-112.5 -31.5t-96.5 -27.5t-62 -18.5q-53 -16 -76 -27.5t-40.5 -19.5t-38 -11.5t-69.5 -3.5zM376.5 1812q6.5 28 10.5 44q2 8 6 26.5t8 24.5q12 16 30.5 43t39 55.5t39 54t30.5 40.5q8 12 22.5 27.5t30 27.5 t32 19.5t32.5 2.5q4 -2 11.5 -5t11.5 -5l-258 -377l-29 -18q-23 12 -16.5 40z" />
<glyph unicode="&#xca;" horiz-adv-x="1042" d="M90 1108v283q4 2 19.5 3t19.5 1q23 0 32 -9.5t13 -19.5t9 -19.5t22 -9.5q37 0 91 14.5t113.5 32t118 35t103.5 23.5h14q29 0 48.5 -11.5t19.5 -39.5q0 -4 -1 -12.5t-3 -12.5q-57 -4 -131 -12t-148 -28.5t-137.5 -53.5t-99.5 -86v-96.5t1 -161.5t7 -169t18 -116l567 234 q47 -4 63.5 -11.5t14.5 -17.5t-18.5 -23.5t-34.5 -25.5q-20 -10 -64.5 -29.5t-100.5 -45.5t-117.5 -53.5t-118 -53t-100.5 -46t-64 -30.5q-14 -2 -20.5 -13.5t-8.5 -26t-1 -27.5t1 -19q0 -66 15.5 -128.5t15.5 -127.5q0 -29 -19.5 -54.5t-66.5 -25.5zM154 1800 q14 31 39 86.5t49.5 116t47 116.5t36.5 89q8 20 11 44t9.5 43.5t18.5 31.5t41 12h12t10 -2l287 -350q51 14 66.5 -8.5t15.5 -53.5q0 -29 -16.5 -61.5t-53.5 -32.5q-49 31 -85.5 72t-66.5 86t-53.5 89t-41.5 79q-6 6 -26.5 16t-25.5 10q-4 0 -13 -10t-11 -16l-199 -383 q0 -2 -4 -2h-8q-27 -1 -39 28zM227 16q0 53 11.5 77t58.5 36l664 184l30 -82q-20 -4 -62 -16t-95.5 -27.5t-111.5 -32t-112.5 -31.5t-96.5 -27.5t-62 -18.5q-53 -16 -76 -27.5t-40.5 -19.5t-38 -11.5t-69.5 -3.5z" />
<glyph unicode="&#xcb;" horiz-adv-x="1042" d="M90 1108v283q4 2 19.5 3t19.5 1q23 0 32 -9.5t13 -19.5t9 -19.5t22 -9.5q37 0 91 14.5t113.5 32t118 35t103.5 23.5h14q29 0 48.5 -11.5t19.5 -39.5q0 -4 -1 -12.5t-3 -12.5q-57 -4 -131 -12t-148 -28.5t-137.5 -53.5t-99.5 -86v-96.5t1 -161.5t7 -169t18 -116l567 234 q47 -4 63.5 -11.5t14.5 -17.5t-18.5 -23.5t-34.5 -25.5q-20 -10 -64.5 -29.5t-100.5 -45.5t-117.5 -53.5t-118 -53t-100.5 -46t-64 -30.5q-14 -2 -20.5 -13.5t-8.5 -26t-1 -27.5t1 -19q0 -66 15.5 -128.5t15.5 -127.5q0 -29 -19.5 -54.5t-66.5 -25.5zM227 16q0 53 11.5 77 t58.5 36l664 184l30 -82q-20 -4 -62 -16t-95.5 -27.5t-111.5 -32t-112.5 -31.5t-96.5 -27.5t-62 -18.5q-53 -16 -76 -27.5t-40.5 -19.5t-38 -11.5t-69.5 -3.5zM305 1866q0 35 19.5 62.5t58.5 27.5q35 0 58 -13t23 -52q0 -45 -29.5 -83t-76.5 -38q-18 0 -29.5 9t-16.5 23.5 t-6 32t-1 31.5zM575 1866q0 35 19.5 62.5t58.5 27.5q35 0 58.5 -13t23.5 -52q0 -45 -30 -83t-77 -38q-18 0 -29.5 9t-16.5 23.5t-6 32t-1 31.5z" />
<glyph unicode="&#xcc;" horiz-adv-x="270" d="M-36 2167q4 2 12 5t12 5q18 4 36.5 -2t35 -18t32 -26.5t25.5 -26.5q12 -14 32.5 -39t43.5 -52.5t43 -53t33 -42.5q4 -6 9 -24.5t7 -24.5q4 -16 11.5 -42.5t-17.5 -39.5l-33 19zM25 1278v22v18.5t1 27t1 27.5v18q6 23 20 25.5t31 2.5q4 0 13 -1t13 -1l103 -1237 q2 -6 6 -20.5t8 -30.5t7 -30.5t5 -20.5v-15q0 -10 -9 -21t-21.5 -20.5t-25.5 -15.5t-21 -6q-6 0 -16.5 10.5t-10.5 16.5q-4 45 -12 137t-18.5 208.5t-21.5 246t-21.5 246t-18.5 208.5t-10 137v13.5t-1 26t-1 28.5z" />
<glyph unicode="&#xcd;" horiz-adv-x="270" d="M-6.5 1812q6.5 28 10.5 44q2 8 6 26.5t8 24.5q12 16 30.5 43t39 55.5t39 54t30.5 40.5q8 12 22.5 27.5t30 27.5t32 19.5t32.5 2.5q4 -2 11.5 -5t11.5 -5l-258 -377l-29 -18q-23 12 -16.5 40zM25 1278v22v18.5t1 27t1 27.5v18q6 23 20 25.5t31 2.5q4 0 13 -1t13 -1 l103 -1237q2 -6 6 -20.5t8 -30.5t7 -30.5t5 -20.5v-15q0 -10 -9 -21t-21.5 -20.5t-25.5 -15.5t-21 -6q-6 0 -16.5 10.5t-10.5 16.5q-4 45 -12 137t-18.5 208.5t-21.5 246t-21.5 246t-18.5 208.5t-10 137v13.5t-1 26t-1 28.5z" />
<glyph unicode="&#xce;" horiz-adv-x="270" d="M-229 2009q14 31 39 86.5t49.5 116t47 116.5t36.5 89q8 20 11 44t9.5 43.5t18.5 31.5t41 12h12t10 -2l287 -350q51 14 66.5 -8.5t15.5 -53.5q0 -29 -16.5 -61.5t-53.5 -32.5q-49 31 -85.5 72t-66.5 86t-53.5 89t-41.5 79q-6 6 -26.5 16t-25.5 10q-4 0 -13 -10t-11 -16 l-199 -383q0 -2 -4 -2h-8q-27 -1 -39 28zM25 1278v22v18.5t1 27t1 27.5v18q6 23 20 25.5t31 2.5q4 0 13 -1t13 -1l103 -1237q2 -6 6 -20.5t8 -30.5t7 -30.5t5 -20.5v-15q0 -10 -9 -21t-21.5 -20.5t-25.5 -15.5t-21 -6q-6 0 -16.5 10.5t-10.5 16.5q-4 45 -12 137t-18.5 208.5 t-21.5 246t-21.5 246t-18.5 208.5t-10 137v13.5t-1 26t-1 28.5z" />
<glyph unicode="&#xcf;" horiz-adv-x="270" d="M-78 1866q0 35 19.5 62.5t58.5 27.5q35 0 58 -13t23 -52q0 -45 -29.5 -83t-76.5 -38q-18 0 -29.5 9t-16.5 23.5t-6 32t-1 31.5zM25 1278v22v18.5t1 27t1 27.5v18q6 23 20 25.5t31 2.5q4 0 13 -1t13 -1l103 -1237q2 -6 6 -20.5t8 -30.5t7 -30.5t5 -20.5v-15q0 -10 -9 -21 t-21.5 -20.5t-25.5 -15.5t-21 -6q-6 0 -16.5 10.5t-10.5 16.5q-4 45 -12 137t-18.5 208.5t-21.5 246t-21.5 246t-18.5 208.5t-10 137v13.5t-1 26t-1 28.5zM192 1866q0 35 19.5 62.5t58.5 27.5q35 0 58.5 -13t23.5 -52q0 -45 -30 -83t-77 -38q-18 0 -29.5 9t-16.5 23.5t-6 32 t-1 31.5z" />
<glyph unicode="&#xd0;" horiz-adv-x="1107" d="M33 714q-2 25 17.5 46.5t58 39t86.5 31.5l-41 457q-4 2 -20.5 11.5t-35 22.5t-34 27.5t-15.5 28.5q0 12 20.5 33t48 40t52.5 32.5t35 13.5q35 0 42 -15.5t7 -37t2 -44t27 -34.5q117 -66 252 -142.5t251.5 -174t194.5 -219t78 -277.5q0 -98 -53.5 -197.5t-136.5 -178.5 t-184 -129t-198 -50q-27 0 -52 18.5t-25 46.5q0 8 42 23.5t106.5 41.5t138 64.5t138 92t106.5 123t42 159.5q0 63 -37 139t-98.5 153t-139 148.5t-157.5 127t-157 89t-134 33.5q0 -102 7 -202.5t18 -200.5q55 12 110.5 18.5t95 7.5t60 -4.5t8.5 -16.5t-61 -29.5t-150 -43.5 q-23 -4 -55 -18q16 -141 29.5 -278.5t13.5 -276.5q0 -31 -6 -49.5t-47 -34.5l-25 25l-53 569q-41 -23 -78 -41t-57 -20q-35 27 -37 52z" />
<glyph unicode="&#xd1;" horiz-adv-x="1275" d="M23 1296q0 14 7 39t19 51.5t26.5 48t26.5 27.5q6 -2 21.5 -42t31 -90t30 -95t20.5 -55q14 -20 46 -63.5t71.5 -97.5t85 -112.5t86.5 -112t73.5 -95.5t48.5 -60q6 -8 45 -44t88.5 -81t98.5 -90t78 -70q4 -4 23.5 -21.5t42 -37t42 -36.5t23.5 -19q6 27 7 59.5t0 66t-4 66.5 t-3 62q0 104 -13.5 207.5t-29 206t-27.5 206t-12 207.5v23.5t1 36t1 35v22.5q12 27 39 26q27 0 37 -22.5t10 -50t-4 -53t-4 -29.5l129 -1108q0 -29 -14.5 -48.5t-35 -30.5t-43 -16.5t-36.5 -7.5q-2 -2 -6 -2h-9q-14 0 -28.5 11.5t-26.5 29t-20.5 34.5t-12.5 30l-74 74 t-109 112.5t-128 133t-128 134t-108.5 114.5t-70.5 75q-12 12 -38 45t-54.5 69.5t-54 70.5t-33.5 48v-78t-1 -116.5t-1 -116.5v-76q0 -186 13 -368.5t13 -368.5v-10q-4 -6 -23.5 -26.5t-27.5 -25.5l-39 27v1106q0 39 -10 74t-22.5 66.5t-22.5 64.5t-10 67zM202 1624 q-6 59 9.5 118t49.5 104t85 70.5t117 19.5q57 0 103 -36t89 -78t90 -78t111 -36q53 0 87 26t57.5 55.5t42 55t42.5 25.5q0 -127 -68.5 -181t-173.5 -54q-74 0 -125 32.5t-92 70.5t-82 71t-92 33q-43 0 -71.5 -26t-47 -64.5t-27.5 -83t-13 -80.5q-12 -10 -25.5 -18.5 t-30.5 -8.5q-20 0 -27.5 22.5t-7.5 40.5z" />
<glyph unicode="&#xd2;" d="M39 594v24q10 88 19.5 184.5t25.5 188.5t44 175t78 144.5t125 98.5t187 37q92 0 161 -39t119 -102.5t82.5 -146.5t52 -171t27 -174t7.5 -158q0 -117 -37 -234.5t-106.5 -211.5t-172 -152.5t-231.5 -58.5q-111 0 -184.5 60.5t-116.5 149.5t-61.5 193.5t-18.5 192.5z M113 598q0 -80 15 -171t53 -169t103.5 -130t166.5 -52q117 0 199.5 59.5t137 150.5t80 197.5t25.5 198.5q0 57 -6 131t-21.5 150.5t-42 149.5t-69.5 129t-103.5 91t-142.5 35q-84 0 -145.5 -40t-105.5 -105.5t-72.5 -148.5t-44 -168t-21.5 -166t-6 -142zM334 2167q4 2 12 5 t12 5q18 4 36.5 -2t35 -18t32 -26.5t25.5 -26.5q12 -14 32.5 -39t43.5 -52.5t43 -53t33 -42.5q4 -6 9 -24.5t7 -24.5q4 -16 11.5 -42.5t-17.5 -39.5l-33 19z" />
<glyph unicode="&#xd3;" d="M39 594v24q10 88 19.5 184.5t25.5 188.5t44 175t78 144.5t125 98.5t187 37q92 0 161 -39t119 -102.5t82.5 -146.5t52 -171t27 -174t7.5 -158q0 -117 -37 -234.5t-106.5 -211.5t-172 -152.5t-231.5 -58.5q-111 0 -184.5 60.5t-116.5 149.5t-61.5 193.5t-18.5 192.5z M113 598q0 -80 15 -171t53 -169t103.5 -130t166.5 -52q117 0 199.5 59.5t137 150.5t80 197.5t25.5 198.5q0 57 -6 131t-21.5 150.5t-42 149.5t-69.5 129t-103.5 91t-142.5 35q-84 0 -145.5 -40t-105.5 -105.5t-72.5 -148.5t-44 -168t-21.5 -166t-6 -142zM364.5 1812 q6.5 28 10.5 44q2 8 6 26.5t8 24.5q12 16 30.5 43t39 55.5t39 54t30.5 40.5q8 12 22.5 27.5t30 27.5t32 19.5t32.5 2.5q4 -2 11.5 -5t11.5 -5l-258 -377l-29 -18q-23 12 -16.5 40z" />
<glyph unicode="&#xd4;" d="M39 594v24q10 88 19.5 184.5t25.5 188.5t44 175t78 144.5t125 98.5t187 37q92 0 161 -39t119 -102.5t82.5 -146.5t52 -171t27 -174t7.5 -158q0 -117 -37 -234.5t-106.5 -211.5t-172 -152.5t-231.5 -58.5q-111 0 -184.5 60.5t-116.5 149.5t-61.5 193.5t-18.5 192.5z M113 598q0 -80 15 -171t53 -169t103.5 -130t166.5 -52q117 0 199.5 59.5t137 150.5t80 197.5t25.5 198.5q0 57 -6 131t-21.5 150.5t-42 149.5t-69.5 129t-103.5 91t-142.5 35q-84 0 -145.5 -40t-105.5 -105.5t-72.5 -148.5t-44 -168t-21.5 -166t-6 -142zM135 1701 q14 31 39 86.5t49.5 116t47 116.5t36.5 89q8 20 11 44t9.5 43.5t18.5 31.5t41 12h12t10 -2l287 -350q51 14 66.5 -8.5t15.5 -53.5q0 -29 -16.5 -61.5t-53.5 -32.5q-49 31 -85.5 72t-66.5 86t-53.5 89t-41.5 79q-6 6 -26.5 16t-25.5 10q-4 0 -13 -10t-11 -16l-199 -383 q0 -2 -4 -2h-8q-27 -1 -39 28z" />
<glyph unicode="&#xd5;" d="M39 594v24q10 88 19.5 184.5t25.5 188.5t44 175t78 144.5t125 98.5t187 37q92 0 161 -39t119 -102.5t82.5 -146.5t52 -171t27 -174t7.5 -158q0 -117 -37 -234.5t-106.5 -211.5t-172 -152.5t-231.5 -58.5q-111 0 -184.5 60.5t-116.5 149.5t-61.5 193.5t-18.5 192.5z M77 1624q-6 59 9.5 118t49.5 104t85 70.5t117 19.5q57 0 103 -36t89 -78t90 -78t111 -36q53 0 87 26t57.5 55.5t42 55t42.5 25.5q0 -127 -68.5 -181t-173.5 -54q-74 0 -125 32.5t-92 70.5t-82 71t-92 33q-43 0 -71.5 -26t-47 -64.5t-27.5 -83t-13 -80.5q-12 -10 -25.5 -18.5 t-30.5 -8.5q-20 0 -27.5 22.5t-7.5 40.5zM113 598q0 -80 15 -171t53 -169t103.5 -130t166.5 -52q117 0 199.5 59.5t137 150.5t80 197.5t25.5 198.5q0 57 -6 131t-21.5 150.5t-42 149.5t-69.5 129t-103.5 91t-142.5 35q-84 0 -145.5 -40t-105.5 -105.5t-72.5 -148.5t-44 -168 t-21.5 -166t-6 -142z" />
<glyph unicode="&#xd6;" d="M39 594v24q10 88 19.5 184.5t25.5 188.5t44 175t78 144.5t125 98.5t187 37q92 0 161 -39t119 -102.5t82.5 -146.5t52 -171t27 -174t7.5 -158q0 -117 -37 -234.5t-106.5 -211.5t-172 -152.5t-231.5 -58.5q-111 0 -184.5 60.5t-116.5 149.5t-61.5 193.5t-18.5 192.5z M113 598q0 -80 15 -171t53 -169t103.5 -130t166.5 -52q117 0 199.5 59.5t137 150.5t80 197.5t25.5 198.5q0 57 -6 131t-21.5 150.5t-42 149.5t-69.5 129t-103.5 91t-142.5 35q-84 0 -145.5 -40t-105.5 -105.5t-72.5 -148.5t-44 -168t-21.5 -166t-6 -142zM293 1866 q0 35 19.5 62.5t58.5 27.5q35 0 58 -13t23 -52q0 -45 -29.5 -83t-76.5 -38q-18 0 -29.5 9t-16.5 23.5t-6 32t-1 31.5zM563 1866q0 35 19.5 62.5t58.5 27.5q35 0 58.5 -13t23.5 -52q0 -45 -30 -83t-77 -38q-18 0 -29.5 9t-16.5 23.5t-6 32t-1 31.5z" />
<glyph unicode="&#xd8;" d="M39 594v24q10 88 19.5 184.5t25.5 188.5t44 175t78 144.5t125 98.5t187 37q92 0 161 -39t119 -102.5t82.5 -146.5t52 -171t27 -174t7.5 -158q0 -117 -37 -234.5t-106.5 -211.5t-172 -152.5t-231.5 -58.5q-111 0 -184.5 60.5t-116.5 149.5t-61.5 193.5t-18.5 192.5z M113 598q0 -80 15 -171t53 -169t103.5 -130t166.5 -52q117 0 199.5 59.5t137 150.5t80 197.5t25.5 198.5q0 57 -6 131t-21.5 150.5t-42 149.5t-69.5 129t-103.5 91t-142.5 35q-84 0 -145.5 -40t-105.5 -105.5t-72.5 -148.5t-44 -168t-21.5 -166t-6 -142zM271 -47 q0 21 10.5 40t25.5 38l473 1409q5 15 37 41.5t61 26.5v-100q-16 -49 -50.5 -152t-78 -233t-91 -273t-90.5 -273t-76.5 -233t-49.5 -152q-8 -27 -12.5 -58.5t-11 -61t-24 -55t-54.5 -39.5q-8 5 -34.5 29t-32.5 32q-2 4 -2 7v7z" />
<glyph unicode="&#xd9;" horiz-adv-x="966" d="M49 1366h80q2 -29 5 -89t8 -137t10.5 -161t10.5 -161t10 -137t7 -89q6 -68 21.5 -154t49.5 -160.5t90 -126t142 -51.5q74 0 128.5 47.5t92 121t62.5 164.5t38 179t18 163t5 118q0 111 -15 208t-15 202q0 23 16 30.5t37 7.5q4 0 13 -1t14 -1q10 -47 16 -86t8 -74.5 t2 -73.5v-83q0 -63 -3 -164.5t-16.5 -215.5t-40 -228.5t-74.5 -206.5t-122 -150.5t-180 -58.5q-78 0 -137.5 39t-101.5 99.5t-67.5 133t-31.5 142.5q-4 33 -9 103.5t-13.5 159.5t-16.5 187.5t-16 187.5t-14.5 159.5t-8.5 105.5q0 4 -1 24.5t-1 26.5zM310 2167q4 2 12 5t12 5 q18 4 36.5 -2t35 -18t32 -26.5t25.5 -26.5q12 -14 32.5 -39t43.5 -52.5t43 -53t33 -42.5q4 -6 9 -24.5t7 -24.5q4 -16 11.5 -42.5t-17.5 -39.5l-33 19z" />
<glyph unicode="&#xda;" horiz-adv-x="966" d="M49 1366h80q2 -29 5 -89t8 -137t10.5 -161t10.5 -161t10 -137t7 -89q6 -68 21.5 -154t49.5 -160.5t90 -126t142 -51.5q74 0 128.5 47.5t92 121t62.5 164.5t38 179t18 163t5 118q0 111 -15 208t-15 202q0 23 16 30.5t37 7.5q4 0 13 -1t14 -1q10 -47 16 -86t8 -74.5 t2 -73.5v-83q0 -63 -3 -164.5t-16.5 -215.5t-40 -228.5t-74.5 -206.5t-122 -150.5t-180 -58.5q-78 0 -137.5 39t-101.5 99.5t-67.5 133t-31.5 142.5q-4 33 -9 103.5t-13.5 159.5t-16.5 187.5t-16 187.5t-14.5 159.5t-8.5 105.5q0 4 -1 24.5t-1 26.5zM337.5 1812 q6.5 28 10.5 44q2 8 6 26.5t8 24.5q12 16 30.5 43t39 55.5t39 54t30.5 40.5q8 12 22.5 27.5t30 27.5t32 19.5t32.5 2.5q4 -2 11.5 -5t11.5 -5l-258 -377l-29 -18q-23 12 -16.5 40z" />
<glyph unicode="&#xdb;" horiz-adv-x="966" d="M49 1366h80q2 -29 5 -89t8 -137t10.5 -161t10.5 -161t10 -137t7 -89q6 -68 21.5 -154t49.5 -160.5t90 -126t142 -51.5q74 0 128.5 47.5t92 121t62.5 164.5t38 179t18 163t5 118q0 111 -15 208t-15 202q0 23 16 30.5t37 7.5q4 0 13 -1t14 -1q10 -47 16 -86t8 -74.5 t2 -73.5v-83q0 -63 -3 -164.5t-16.5 -215.5t-40 -228.5t-74.5 -206.5t-122 -150.5t-180 -58.5q-78 0 -137.5 39t-101.5 99.5t-67.5 133t-31.5 142.5q-4 33 -9 103.5t-13.5 159.5t-16.5 187.5t-16 187.5t-14.5 159.5t-8.5 105.5q0 4 -1 24.5t-1 26.5zM119 2009q14 31 39 86.5 t49.5 116t47 116.5t36.5 89q8 20 11 44t9.5 43.5t18.5 31.5t41 12h12t10 -2l287 -350q51 14 66.5 -8.5t15.5 -53.5q0 -29 -16.5 -61.5t-53.5 -32.5q-49 31 -85.5 72t-66.5 86t-53.5 89t-41.5 79q-6 6 -26.5 16t-25.5 10q-4 0 -13 -10t-11 -16l-199 -383q0 -2 -4 -2h-8 q-27 -1 -39 28z" />
<glyph unicode="&#xdc;" horiz-adv-x="966" d="M49 1366h80q2 -29 5 -89t8 -137t10.5 -161t10.5 -161t10 -137t7 -89q6 -68 21.5 -154t49.5 -160.5t90 -126t142 -51.5q74 0 128.5 47.5t92 121t62.5 164.5t38 179t18 163t5 118q0 111 -15 208t-15 202q0 23 16 30.5t37 7.5q4 0 13 -1t14 -1q10 -47 16 -86t8 -74.5 t2 -73.5v-83q0 -63 -3 -164.5t-16.5 -215.5t-40 -228.5t-74.5 -206.5t-122 -150.5t-180 -58.5q-78 0 -137.5 39t-101.5 99.5t-67.5 133t-31.5 142.5q-4 33 -9 103.5t-13.5 159.5t-16.5 187.5t-16 187.5t-14.5 159.5t-8.5 105.5q0 4 -1 24.5t-1 26.5zM269 1866 q0 35 19.5 62.5t58.5 27.5q35 0 58 -13t23 -52q0 -45 -29.5 -83t-76.5 -38q-18 0 -29.5 9t-16.5 23.5t-6 32t-1 31.5zM539 1866q0 35 19.5 62.5t58.5 27.5q35 0 58.5 -13t23.5 -52q0 -45 -30 -83t-77 -38q-18 0 -29.5 9t-16.5 23.5t-6 32t-1 31.5z" />
<glyph unicode="&#xdd;" horiz-adv-x="1306" d="M-10 1501v8q0 14 10 26.5t27 12.5q0 -2 2 -2h4h6l975 -528q43 -8 69.5 -23.5t26.5 -62.5q0 -18 -5 -39t-34 -21h-10q-6 4 -19.5 14.5t-29 22t-28.5 21.5t-17 16l-975 551q-2 0 -2 4zM507.5 1812q6.5 28 10.5 44q2 8 6 26.5t8 24.5q12 16 30.5 43t39 55.5t39 54t30.5 40.5 q8 12 22.5 27.5t30 27.5t32 19.5t32.5 2.5q4 -2 11.5 -5t11.5 -5l-258 -377l-29 -18q-23 12 -16.5 40zM1024 -184l170 1855q-25 49 3 73.5t69 24.5v-122l-160 -1872z" />
<glyph unicode="&#xde;" horiz-adv-x="837" d="M76 1724v17q0 23 16.5 31t34.5 8q4 0 13.5 -2t13.5 -2l57 -832q14 55 34.5 103.5t53.5 83t78 55t106 20.5q76 0 136.5 -35.5t102.5 -92t63.5 -126t21.5 -139.5q0 -100 -50 -193.5t-130 -164t-179.5 -113.5t-197.5 -43q0 -188 -4 -286.5t-16.5 -139.5t-33 -43t-51.5 2 q-8 121 -14 274.5t-11 322.5t-9.5 347t-9.5 348t-11 324t-14 276zM249 717q1 -60 2 -125.5t2 -124.5t1 -78q74 0 157 35t153.5 92t117.5 132t47 155q0 51 -19.5 107.5t-54 104.5t-83 79.5t-103.5 31.5t-96 -47t-67.5 -105.5t-40 -112.5t-15.5 -66q-2 -18 -1 -78z" />
<glyph unicode="&#xdf;" horiz-adv-x="1185" d="M155.5 1424.5q-8.5 72.5 2 129t44.5 90t101 33.5q70 0 160 -4t171 -27.5t136 -76.5t55 -152q0 -74 -31.5 -145.5t-77.5 -138t-101.5 -125t-100.5 -107.5q100 -8 206.5 -30.5t193.5 -71.5t142.5 -130t55.5 -206q0 -68 -42 -135.5t-109.5 -131t-154.5 -117.5t-176 -95 t-173 -64.5t-148 -23.5q-47 0 -89 33.5t-42 80.5q0 18 3 40t26 28q8 -20 20.5 -43t30.5 -35h18.5t26.5 -1t27.5 -1h17.5q51 0 122 19.5t146.5 53t150.5 79t133 97.5t95 108.5t37 111.5q0 86 -44 148.5t-111.5 104.5t-147.5 61.5t-151 19.5q-10 0 -52.5 7t-87.5 -7l-28 139 q63 31 123.5 84t107.5 117.5t77 136.5t30 139q0 61 -43 94t-100.5 46.5t-117 15.5t-92.5 2h-30.5t-36 -1t-30.5 -2t-15 -1l-25 -51l76 -619l26 -592q0 -16 -14 -21t-24 -5q-16 0 -28.5 29.5t-23 75.5t-16.5 101.5t-11 106.5t-7.5 92t-4.5 60v41.5v73.5v74v42q-6 63 -22 140 t-30.5 155t-23 150.5z" />
<glyph unicode="&#xe0;" horiz-adv-x="905" d="M37 231q0 63 14.5 158.5t42 200t70.5 208t99 187.5t127 135t155 51q0 -33 -25.5 -62.5t-58.5 -57t-66 -53t-47 -46.5q-51 -72 -94 -153.5t-73.5 -170.5t-48 -180.5t-17.5 -179.5q0 -12 4 -40.5t12 -56.5t20.5 -49.5t28.5 -21.5h6q2 0 7 2q59 66 99 144t68.5 162t49 170 t41.5 170q6 27 5 74.5t4 95t22.5 82t64.5 34.5q8 0 20.5 -1t12.5 -3q82 -172 140 -290.5t98 -197.5t63.5 -123t37 -66.5t17.5 -31t4 -12.5q2 -8 4 -31.5t4 -49t3 -49t1 -32.5q-25 0 -50 3.5t-38 29.5l-284 592l-25 27q-6 -25 -24.5 -87.5t-39 -132t-39 -132t-26.5 -87.5 q-12 -33 -33.5 -93t-52.5 -120.5t-71 -104.5t-89 -44q-39 0 -66.5 25.5t-44 62.5t-24.5 76.5t-8 68.5zM279 1757q4 2 12 5t12 5q18 4 36.5 -2t35 -18t32 -26.5t25.5 -26.5q12 -14 32.5 -39t43.5 -52.5t43 -53t33 -42.5q4 -6 9 -24.5t7 -24.5q4 -16 11.5 -42.5t-17.5 -39.5 l-33 19z" />
<glyph unicode="&#xe1;" horiz-adv-x="905" d="M37 231q0 63 14.5 158.5t42 200t70.5 208t99 187.5t127 135t155 51q0 -33 -25.5 -62.5t-58.5 -57t-66 -53t-47 -46.5q-51 -72 -94 -153.5t-73.5 -170.5t-48 -180.5t-17.5 -179.5q0 -12 4 -40.5t12 -56.5t20.5 -49.5t28.5 -21.5h6q2 0 7 2q59 66 99 144t68.5 162t49 170 t41.5 170q6 27 5 74.5t4 95t22.5 82t64.5 34.5q8 0 20.5 -1t12.5 -3q82 -172 140 -290.5t98 -197.5t63.5 -123t37 -66.5t17.5 -31t4 -12.5q2 -8 4 -31.5t4 -49t3 -49t1 -32.5q-25 0 -50 3.5t-38 29.5l-284 592l-25 27q-6 -25 -24.5 -87.5t-39 -132t-39 -132t-26.5 -87.5 q-12 -33 -33.5 -93t-52.5 -120.5t-71 -104.5t-89 -44q-39 0 -66.5 25.5t-44 62.5t-24.5 76.5t-8 68.5zM307.5 1402q6.5 28 10.5 44q2 8 6 26.5t8 24.5q12 16 30.5 43t39 55.5t39 54t30.5 40.5q8 12 22.5 27.5t30 27.5t32 19.5t32.5 2.5q4 -2 11.5 -5t11.5 -5l-258 -377 l-29 -18q-23 12 -16.5 40z" />
<glyph unicode="&#xe2;" horiz-adv-x="905" d="M37 231q0 63 14.5 158.5t42 200t70.5 208t99 187.5t127 135t155 51q0 -33 -25.5 -62.5t-58.5 -57t-66 -53t-47 -46.5q-51 -72 -94 -153.5t-73.5 -170.5t-48 -180.5t-17.5 -179.5q0 -12 4 -40.5t12 -56.5t20.5 -49.5t28.5 -21.5h6q2 0 7 2q59 66 99 144t68.5 162t49 170 t41.5 170q6 27 5 74.5t4 95t22.5 82t64.5 34.5q8 0 20.5 -1t12.5 -3q82 -172 140 -290.5t98 -197.5t63.5 -123t37 -66.5t17.5 -31t4 -12.5q2 -8 4 -31.5t4 -49t3 -49t1 -32.5q-25 0 -50 3.5t-38 29.5l-284 592l-25 27q-6 -25 -24.5 -87.5t-39 -132t-39 -132t-26.5 -87.5 q-12 -33 -33.5 -93t-52.5 -120.5t-71 -104.5t-89 -44q-39 0 -66.5 25.5t-44 62.5t-24.5 76.5t-8 68.5zM88 1599q14 31 39 86.5t49.5 116t47 116.5t36.5 89q8 20 11 44t9.5 43.5t18.5 31.5t41 12h12t10 -2l287 -350q51 14 66.5 -8.5t15.5 -53.5q0 -29 -16.5 -61.5 t-53.5 -32.5q-49 31 -85.5 72t-66.5 86t-53.5 89t-41.5 79q-6 6 -26.5 16t-25.5 10q-4 0 -13 -10t-11 -16l-199 -383q0 -2 -4 -2h-8q-27 -1 -39 28z" />
<glyph unicode="&#xe3;" horiz-adv-x="905" d="M20 1214q-6 59 9.5 118t49.5 104t85 70.5t117 19.5q57 0 103 -36t89 -78t90 -78t111 -36q53 0 87 26t57.5 55.5t42 55t42.5 25.5q0 -127 -68.5 -181t-173.5 -54q-74 0 -125 32.5t-92 70.5t-82 71t-92 33q-43 0 -71.5 -26t-47 -64.5t-27.5 -83t-13 -80.5 q-12 -10 -25.5 -18.5t-30.5 -8.5q-20 0 -27.5 22.5t-7.5 40.5zM37 231q0 63 14.5 158.5t42 200t70.5 208t99 187.5t127 135t155 51q0 -33 -25.5 -62.5t-58.5 -57t-66 -53t-47 -46.5q-51 -72 -94 -153.5t-73.5 -170.5t-48 -180.5t-17.5 -179.5q0 -12 4 -40.5t12 -56.5 t20.5 -49.5t28.5 -21.5h6q2 0 7 2q59 66 99 144t68.5 162t49 170t41.5 170q6 27 5 74.5t4 95t22.5 82t64.5 34.5q8 0 20.5 -1t12.5 -3q82 -172 140 -290.5t98 -197.5t63.5 -123t37 -66.5t17.5 -31t4 -12.5q2 -8 4 -31.5t4 -49t3 -49t1 -32.5q-25 0 -50 3.5t-38 29.5 l-284 592l-25 27q-6 -25 -24.5 -87.5t-39 -132t-39 -132t-26.5 -87.5q-12 -33 -33.5 -93t-52.5 -120.5t-71 -104.5t-89 -44q-39 0 -66.5 25.5t-44 62.5t-24.5 76.5t-8 68.5z" />
<glyph unicode="&#xe4;" horiz-adv-x="905" d="M37 231q0 63 14.5 158.5t42 200t70.5 208t99 187.5t127 135t155 51q0 -33 -25.5 -62.5t-58.5 -57t-66 -53t-47 -46.5q-51 -72 -94 -153.5t-73.5 -170.5t-48 -180.5t-17.5 -179.5q0 -12 4 -40.5t12 -56.5t20.5 -49.5t28.5 -21.5h6q2 0 7 2q59 66 99 144t68.5 162t49 170 t41.5 170q6 27 5 74.5t4 95t22.5 82t64.5 34.5q8 0 20.5 -1t12.5 -3q82 -172 140 -290.5t98 -197.5t63.5 -123t37 -66.5t17.5 -31t4 -12.5q2 -8 4 -31.5t4 -49t3 -49t1 -32.5q-25 0 -50 3.5t-38 29.5l-284 592l-25 27q-6 -25 -24.5 -87.5t-39 -132t-39 -132t-26.5 -87.5 q-12 -33 -33.5 -93t-52.5 -120.5t-71 -104.5t-89 -44q-39 0 -66.5 25.5t-44 62.5t-24.5 76.5t-8 68.5zM238 1456q0 35 19.5 62.5t58.5 27.5q35 0 58 -13t23 -52q0 -45 -29.5 -83t-76.5 -38q-18 0 -29.5 9t-16.5 23.5t-6 32t-1 31.5zM508 1456q0 35 19.5 62.5t58.5 27.5 q35 0 58.5 -13t23.5 -52q0 -45 -30 -83t-77 -38q-18 0 -29.5 9t-16.5 23.5t-6 32t-1 31.5z" />
<glyph unicode="&#xe5;" horiz-adv-x="905" d="M37 231q0 63 14.5 158.5t42 200t70.5 208t99 187.5t127 135t155 51q0 -33 -25.5 -62.5t-58.5 -57t-66 -53t-47 -46.5q-51 -72 -94 -153.5t-73.5 -170.5t-48 -180.5t-17.5 -179.5q0 -12 4 -40.5t12 -56.5t20.5 -49.5t28.5 -21.5h6q2 0 7 2q59 66 99 144t68.5 162t49 170 t41.5 170q6 27 5 74.5t4 95t22.5 82t64.5 34.5q8 0 20.5 -1t12.5 -3q82 -172 140 -290.5t98 -197.5t63.5 -123t37 -66.5t17.5 -31t4 -12.5q2 -8 4 -31.5t4 -49t3 -49t1 -32.5q-25 0 -50 3.5t-38 29.5l-284 592l-25 27q-6 -25 -24.5 -87.5t-39 -132t-39 -132t-26.5 -87.5 q-12 -33 -33.5 -93t-52.5 -120.5t-71 -104.5t-89 -44q-39 0 -66.5 25.5t-44 62.5t-24.5 76.5t-8 68.5zM209 1286q0 29 3 86t22.5 113.5t63.5 98.5t126 42q74 0 119 -25.5t69.5 -62.5t32.5 -80t8 -78q0 -37 -12 -82t-40.5 -84t-78 -65.5t-125.5 -26.5q-49 0 -83.5 16.5 t-58 41t-35 53t-11.5 53.5zM262 1296q39 -84 96.5 -102.5t111.5 5.5t94 77t45.5 111.5t-35.5 109.5t-148 72q-57 0 -90 -36t-49.5 -83t-20.5 -92.5t-4 -61.5z" />
<glyph unicode="&#xe6;" horiz-adv-x="1468" d="M53.5 205.5q4.5 39.5 12.5 68.5q18 61 59 147.5t98.5 178.5t128 179t148.5 150.5t159.5 93.5t163.5 5q-10 -31 -42.5 -52.5t-72.5 -38.5t-78 -31.5t-59 -31.5q-70 -53 -134 -119.5t-119.5 -142t-98.5 -158.5t-67 -167q-4 -12 -8.5 -40t-4.5 -57.5t5.5 -54t21.5 -29.5 q0 -2 2 -2h4h6q76 47 137.5 111t112.5 135.5t95 148t87 150.5q14 25 26.5 71t31 90t46 71.5t72.5 13.5q6 -2 18.5 -6t10.5 -6q14 -90 25.5 -165t21.5 -138q-2 59 4 125.5t32 122t77 92t139 36.5q37 0 92.5 -24.5t106.5 -60t88 -76.5t37 -72q0 -16 -3 -29.5t-24 -21.5 l-438 -154l-1 -10t-2 -23.5t-2 -28t-1 -22.5q0 -43 7 -108.5t27.5 -127t59.5 -105.5t102 -44q23 0 41.5 10.5t34.5 21.5t32.5 21.5t39.5 10.5q0 -33 -15.5 -63t-40 -52.5t-55.5 -35.5t-61 -13q-66 0 -112 37t-75 94q-2 -12 -7 -34.5t-9 -45.5t-9 -43t-7 -27 q-25 6 -48.5 16.5t-27.5 39.5l-119 682q-14 -23 -49 -77t-75 -115.5t-76 -116t-50 -74.5q-20 -29 -58 -81t-85 -100.5t-98.5 -79t-96.5 -16.5q-37 12 -56.5 45t-25.5 73t-1.5 79.5zM993 639q35 0 79 5t86 17.5t76 34t48 54.5q-33 53 -61.5 80.5t-81.5 27.5q-41 0 -69 -21.5 t-44 -54t-24.5 -71.5t-8.5 -72z" />
<glyph unicode="&#xe7;" horiz-adv-x="772" d="M37 322q0 20 6 82.5t19.5 142.5t34 167t50 159.5t69.5 119.5t89 47q-18 -61 -51 -145t-61.5 -177t-47 -188.5t-11.5 -179.5t49 -150.5t134 -101.5q84 0 146.5 38t108.5 84t81 84t64 38q0 -84 -41 -148.5t-105.5 -107.5t-144.5 -65.5t-156 -22.5q-66 0 -109.5 30.5 t-71.5 79t-40 105t-12 109.5zM262 -27q-6 70 5 86.5t23.5 4t18.5 -43t-8 -51.5q0 -53 16.5 -75.5t46.5 -38.5q14 -8 47 -23.5t70 -33t71 -32t46 -18.5q29 -27 47 -55.5t18 -81.5q0 -76 -34.5 -133.5t-84 -95t-103.5 -57t-91 -19.5q-25 0 -31 11t-6 52q0 20 2 36.5t7.5 23 t13.5 0t18 -28.5q29 0 73 7t85 30.5t69.5 65.5t28.5 110q0 47 -25.5 68.5t-64.5 34t-84 22.5t-84 34.5t-64.5 70.5t-25.5 130z" />
<glyph unicode="&#xe8;" horiz-adv-x="747" d="M-61 487q0 43 28.5 58.5t65.5 24t72.5 20.5t50.5 53q14 45 25.5 107.5t31.5 120t57 96.5t105 39q37 0 92 -25t106.5 -60.5t88 -76.5t36.5 -72q0 -16 -3 -29.5t-23 -21.5l-439 -154l-1 -10t-2 -23.5t-2 -27.5t-1 -23q0 -43 7.5 -108.5t28 -127t59 -105.5t102.5 -44 q23 0 41 10.5t34.5 21.5t33 21.5t38.5 10.5q0 -33 -15 -62.5t-39.5 -52t-55.5 -36t-62 -13.5q-55 0 -96 27.5t-70.5 72.5t-48 101.5t-30 114t-16.5 110.5t-9 92q-53 -33 -105.5 -48t-84.5 19zM199 1757q4 2 12 5t12 5q18 4 36.5 -2t35 -18t32 -26.5t25.5 -26.5 q12 -14 32.5 -39t43.5 -52.5t43 -53t33 -42.5q4 -6 9 -24.5t7 -24.5q4 -16 11.5 -42.5t-17.5 -39.5l-33 19zM254 688q35 0 79 5t86 17.5t75.5 34t48.5 54.5q-33 53 -62 80.5t-82 27.5q-41 0 -68.5 -21.5t-44 -54t-24.5 -71.5t-8 -72z" />
<glyph unicode="&#xe9;" horiz-adv-x="747" d="M-61 487q0 43 28.5 58.5t65.5 24t72.5 20.5t50.5 53q14 45 25.5 107.5t31.5 120t57 96.5t105 39q37 0 92 -25t106.5 -60.5t88 -76.5t36.5 -72q0 -16 -3 -29.5t-23 -21.5l-439 -154l-1 -10t-2 -23.5t-2 -27.5t-1 -23q0 -43 7.5 -108.5t28 -127t59 -105.5t102.5 -44 q23 0 41 10.5t34.5 21.5t33 21.5t38.5 10.5q0 -33 -15 -62.5t-39.5 -52t-55.5 -36t-62 -13.5q-55 0 -96 27.5t-70.5 72.5t-48 101.5t-30 114t-16.5 110.5t-9 92q-53 -33 -105.5 -48t-84.5 19zM229.5 1402q6.5 28 10.5 44q2 8 6 26.5t8 24.5q12 16 30.5 43t39 55.5t39 54 t30.5 40.5q8 12 22.5 27.5t30 27.5t32 19.5t32.5 2.5q4 -2 11.5 -5t11.5 -5l-258 -377l-29 -18q-23 12 -16.5 40zM254 688q35 0 79 5t86 17.5t75.5 34t48.5 54.5q-33 53 -62 80.5t-82 27.5q-41 0 -68.5 -21.5t-44 -54t-24.5 -71.5t-8 -72z" />
<glyph unicode="&#xea;" horiz-adv-x="747" d="M-61 487q0 43 28.5 58.5t65.5 24t72.5 20.5t50.5 53q14 45 25.5 107.5t31.5 120t57 96.5t105 39q37 0 92 -25t106.5 -60.5t88 -76.5t36.5 -72q0 -16 -3 -29.5t-23 -21.5l-439 -154l-1 -10t-2 -23.5t-2 -27.5t-1 -23q0 -43 7.5 -108.5t28 -127t59 -105.5t102.5 -44 q23 0 41 10.5t34.5 21.5t33 21.5t38.5 10.5q0 -33 -15 -62.5t-39.5 -52t-55.5 -36t-62 -13.5q-55 0 -96 27.5t-70.5 72.5t-48 101.5t-30 114t-16.5 110.5t-9 92q-53 -33 -105.5 -48t-84.5 19zM76 1177q14 31 39 86.5t49.5 116t47 116.5t36.5 89q8 20 11 44t9.5 43.5 t18.5 31.5t41 12h12t10 -2l287 -350q51 14 66.5 -8.5t15.5 -53.5q0 -29 -16.5 -61.5t-53.5 -32.5q-49 31 -85.5 72t-66.5 86t-53.5 89t-41.5 79q-6 6 -26.5 16t-25.5 10q-4 0 -13 -10t-11 -16l-199 -383q0 -2 -4 -2h-8q-27 -1 -39 28zM254 688q35 0 79 5t86 17.5t75.5 34 t48.5 54.5q-33 53 -62 80.5t-82 27.5q-41 0 -68.5 -21.5t-44 -54t-24.5 -71.5t-8 -72z" />
<glyph unicode="&#xeb;" horiz-adv-x="747" d="M-61 487q0 43 28.5 58.5t65.5 24t72.5 20.5t50.5 53q14 45 25.5 107.5t31.5 120t57 96.5t105 39q37 0 92 -25t106.5 -60.5t88 -76.5t36.5 -72q0 -16 -3 -29.5t-23 -21.5l-439 -154l-1 -10t-2 -23.5t-2 -27.5t-1 -23q0 -43 7.5 -108.5t28 -127t59 -105.5t102.5 -44 q23 0 41 10.5t34.5 21.5t33 21.5t38.5 10.5q0 -33 -15 -62.5t-39.5 -52t-55.5 -36t-62 -13.5q-55 0 -96 27.5t-70.5 72.5t-48 101.5t-30 114t-16.5 110.5t-9 92q-53 -33 -105.5 -48t-84.5 19zM158 1456q0 35 19.5 62.5t58.5 27.5q35 0 58 -13t23 -52q0 -45 -29.5 -83 t-76.5 -38q-18 0 -29.5 9t-16.5 23.5t-6 32t-1 31.5zM254 688q35 0 79 5t86 17.5t75.5 34t48.5 54.5q-33 53 -62 80.5t-82 27.5q-41 0 -68.5 -21.5t-44 -54t-24.5 -71.5t-8 -72zM428 1456q0 35 19.5 62.5t58.5 27.5q35 0 58.5 -13t23.5 -52q0 -45 -30 -83t-77 -38 q-18 0 -29.5 9t-16.5 23.5t-6 32t-1 31.5z" />
<glyph unicode="&#xec;" horiz-adv-x="321" d="M-12 1757q4 2 12 5t12 5q18 4 37 -2t35 -18t31.5 -26.5t25.5 -26.5q12 -14 33 -39t43.5 -52.5t43 -53t32.5 -42.5q4 -6 9 -24.5t7 -24.5q4 -16 11.5 -42.5t-17.5 -39.5l-33 19zM27 928v84q12 0 29.5 -9.5t21.5 -23.5l155 -772q27 -41 39.5 -65.5t12.5 -63.5 q0 -20 -6.5 -50t-32.5 -30h-7.5t-5.5 2q-10 6 -30.5 26.5t-22.5 24.5z" />
<glyph unicode="&#xed;" horiz-adv-x="321" d="M16.5 1402q6.5 28 10.5 44q2 8 6 26.5t8 24.5q12 16 30.5 43t39 55.5t39 54t30.5 40.5q8 12 22.5 27.5t30 27.5t32 19.5t32.5 2.5q4 -2 11 -5t11 -5l-258 -377l-28 -18q-23 12 -16.5 40zM27 928l153 -877q2 -4 22.5 -24.5t30.5 -26.5q0 -2 5.5 -2h7.5q27 0 33 29.5 t6 50.5q0 39 -12.5 63.5t-39.5 65.5l-155 772q-4 14 -21.5 23.5t-29.5 9.5v-84z" />
<glyph unicode="&#xee;" horiz-adv-x="321" d="M-160 1356q14 31 39 86t49.5 115.5t47 117t36.5 88.5q8 20 11.5 44t9.5 43.5t18 31.5t41 12h12.5t10.5 -2l286 -350q51 14 66.5 -8.5t15.5 -52.5q0 -29 -16 -62t-53 -33q-49 31 -86 72t-67 86t-53.5 89t-41.5 79q-6 6 -26.5 16.5t-24.5 10.5t-13.5 -10.5t-11.5 -16.5 l-199 -383q0 -2 -4 -2h-8q-27 0 -39 29zM27 928v84q12 0 29.5 -9.5t21.5 -23.5l155 -772q27 -41 39.5 -65.5t12.5 -63.5q0 -20 -6.5 -50t-32.5 -30h-7.5t-5.5 2q-10 6 -30.5 26.5t-22.5 24.5z" />
<glyph unicode="&#xef;" horiz-adv-x="321" d="M-53 1456q0 35 19.5 62.5t58.5 27.5q35 0 58 -13t23 -52q0 -45 -29.5 -83t-76.5 -38q-18 0 -29.5 9t-16.5 23.5t-6 32t-1 31.5zM27 928v84q12 0 29.5 -9.5t21.5 -23.5l155 -772q27 -41 39.5 -65.5t12.5 -63.5q0 -20 -6.5 -50t-32.5 -30h-7.5t-5.5 2q-10 6 -30.5 26.5 t-22.5 24.5zM217 1456q0 35 19.5 62.5t58.5 27.5q35 0 58.5 -13t23.5 -52q0 -45 -30 -83t-77 -38q-18 0 -29.5 9t-16.5 23.5t-6 32t-1 31.5z" />
<glyph unicode="&#xf0;" horiz-adv-x="966" d="M49 633q0 82 38 128t118 46q53 0 89 -10.5t89 -44.5q20 -10 59 -37t85 -64t94.5 -78t89.5 -78.5t67.5 -67.5t28.5 -42q4 31 -3 79t-21.5 101t-36 105.5t-44 93.5t-45 64.5t-41.5 17.5q-31 -10 -54 -22.5t-40 -12.5q-18 0 -35.5 20.5t-7.5 36.5q8 12 36 25.5t63 38.5 q16 12 -4.5 37.5t-51 53.5t-59.5 52.5t-29 34.5q0 14 16.5 15t45.5 5q39 -35 73.5 -70.5t67.5 -72.5l92 45l49 -55l-78 -59q82 -115 131.5 -226.5t74 -208t26.5 -170t-12 -112.5q0 -47 -29 -85t-71 -64.5t-88 -42t-81 -15.5q-55 0 -121.5 30.5t-133 81t-129 117t-110.5 137 t-78 141t-30 132.5zM129 643q0 -92 51 -187.5t129 -174t169 -129t173 -50.5q31 0 60.5 2t54.5 29q2 10 3 40t1 40q0 86 -58.5 173t-144.5 156.5t-181 113.5t-169 44q-8 0 -32.5 -1t-30.5 -3q-4 -4 -14.5 -24.5t-10.5 -28.5z" />
<glyph unicode="&#xf1;" horiz-adv-x="1132" d="M61 825q0 14 1 33t5.5 35t15.5 27.5t32 11.5q4 0 13 -2t13 -2q2 -156 17.5 -324t58.5 -321q2 25 12.5 83t22.5 124.5t24.5 125t18.5 80.5q12 45 39.5 96.5t65.5 92.5t86.5 68.5t103.5 27.5q88 0 157.5 -40t123 -105.5t91 -149.5t62.5 -170t36 -167t11 -142v-25.5t-3 -26 t-12 -20.5t-26 -8q-27 0 -39 27q-4 53 -12 127.5t-25.5 155.5t-45 160t-68.5 141.5t-97.5 101.5t-132.5 39q-63 0 -108 -22.5t-76 -61.5t-50.5 -91.5t-29.5 -111.5q-4 -20 -10 -64.5t-14.5 -100.5t-16.5 -117.5t-15 -118t-12.5 -100.5t-7.5 -64q-8 -23 -24.5 -27t-32.5 -4 q-4 0 -12 1t-8 3l-130 772q0 4 -1 23.5t-1 29.5zM135 1214q-6 59 9.5 118t49.5 104t85 70.5t117 19.5q57 0 103 -36t89 -78t90 -78t111 -36q53 0 87 26t57.5 55.5t42 55t42.5 25.5q0 -127 -68.5 -181t-173.5 -54q-74 0 -125 32.5t-92 70.5t-82 71t-92 33q-43 0 -71.5 -26 t-47 -64.5t-27.5 -83t-13 -80.5q-12 -10 -25.5 -18.5t-30.5 -8.5q-20 0 -27.5 22.5t-7.5 40.5z" />
<glyph unicode="&#xf2;" horiz-adv-x="720" d="M49 336q0 43 1 117.5t9.5 160.5t26.5 174.5t51 160t85 116.5t128 45q104 0 168 -58.5t98.5 -143.5t46 -182t11.5 -173q0 -86 -24.5 -184.5t-76 -180.5t-128 -136t-183.5 -54q-68 0 -109.5 31.5t-65.5 82t-31 110t-7 114.5zM125 362q0 -43 2 -89t14.5 -83.5t41 -63.5 t81.5 -26q98 0 161.5 45t100.5 115t52.5 154t15.5 161q0 49 -8 127t-33 151t-71 126t-122 53q-53 0 -92 -43t-65.5 -108.5t-42 -145.5t-23.5 -154.5t-10 -134t-2 -84.5zM187 1757q4 2 12 5t12 5q18 4 36.5 -2t35 -18t32 -26.5t25.5 -26.5q12 -14 32.5 -39t43.5 -52.5t43 -53 t33 -42.5q4 -6 9 -24.5t7 -24.5q4 -16 11.5 -42.5t-17.5 -39.5l-33 19z" />
<glyph unicode="&#xf3;" horiz-adv-x="720" d="M49 336q0 43 1 117.5t9.5 160.5t26.5 174.5t51 160t85 116.5t128 45q104 0 168 -58.5t98.5 -143.5t46 -182t11.5 -173q0 -86 -24.5 -184.5t-76 -180.5t-128 -136t-183.5 -54q-68 0 -109.5 31.5t-65.5 82t-31 110t-7 114.5zM125 362q0 -43 2 -89t14.5 -83.5t41 -63.5 t81.5 -26q98 0 161.5 45t100.5 115t52.5 154t15.5 161q0 49 -8 127t-33 151t-71 126t-122 53q-53 0 -92 -43t-65.5 -108.5t-42 -145.5t-23.5 -154.5t-10 -134t-2 -84.5zM214.5 1402q6.5 28 10.5 44q2 8 6 26.5t8 24.5q12 16 30.5 43t39 55.5t39 54t30.5 40.5q8 12 22.5 27.5 t30 27.5t32 19.5t32.5 2.5q4 -2 11.5 -5t11.5 -5l-258 -377l-29 -18q-23 12 -16.5 40z" />
<glyph unicode="&#xf4;" horiz-adv-x="720" d="M41 1239q14 31 39 86.5t49.5 116t47 116.5t36.5 89q8 20 11 44t9.5 43.5t18.5 31.5t41 12h12t10 -2l287 -350q51 14 66.5 -8.5t15.5 -53.5q0 -29 -16.5 -61.5t-53.5 -32.5q-49 31 -85.5 72t-66.5 86t-53.5 89t-41.5 79q-6 6 -26.5 16t-25.5 10q-4 0 -13 -10t-11 -16 l-199 -383q0 -2 -4 -2h-8q-27 -1 -39 28zM49 336q0 43 1 117.5t9.5 160.5t26.5 174.5t51 160t85 116.5t128 45q104 0 168 -58.5t98.5 -143.5t46 -182t11.5 -173q0 -86 -24.5 -184.5t-76 -180.5t-128 -136t-183.5 -54q-68 0 -109.5 31.5t-65.5 82t-31 110t-7 114.5zM125 362 q0 -43 2 -89t14.5 -83.5t41 -63.5t81.5 -26q98 0 161.5 45t100.5 115t52.5 154t15.5 161q0 49 -8 127t-33 151t-71 126t-122 53q-53 0 -92 -43t-65.5 -108.5t-42 -145.5t-23.5 -154.5t-10 -134t-2 -84.5z" />
<glyph unicode="&#xf5;" horiz-adv-x="720" d="M-72 1214q-6 59 9.5 118t49.5 104t85 70.5t117 19.5q57 0 103 -36t89 -78t90 -78t111 -36q53 0 87 26t57.5 55.5t42 55t42.5 25.5q0 -127 -68.5 -181t-173.5 -54q-74 0 -125 32.5t-92 70.5t-82 71t-92 33q-43 0 -71.5 -26t-47 -64.5t-27.5 -83t-13 -80.5 q-12 -10 -25.5 -18.5t-30.5 -8.5q-20 0 -27.5 22.5t-7.5 40.5zM49 336q0 43 1 117.5t9.5 160.5t26.5 174.5t51 160t85 116.5t128 45q104 0 168 -58.5t98.5 -143.5t46 -182t11.5 -173q0 -86 -24.5 -184.5t-76 -180.5t-128 -136t-183.5 -54q-68 0 -109.5 31.5t-65.5 82 t-31 110t-7 114.5zM125 362q0 -43 2 -89t14.5 -83.5t41 -63.5t81.5 -26q98 0 161.5 45t100.5 115t52.5 154t15.5 161q0 49 -8 127t-33 151t-71 126t-122 53q-53 0 -92 -43t-65.5 -108.5t-42 -145.5t-23.5 -154.5t-10 -134t-2 -84.5z" />
<glyph unicode="&#xf6;" horiz-adv-x="720" d="M49 336q0 43 1 117.5t9.5 160.5t26.5 174.5t51 160t85 116.5t128 45q104 0 168 -58.5t98.5 -143.5t46 -182t11.5 -173q0 -86 -24.5 -184.5t-76 -180.5t-128 -136t-183.5 -54q-68 0 -109.5 31.5t-65.5 82t-31 110t-7 114.5zM125 362q0 -43 2 -89t14.5 -83.5t41 -63.5 t81.5 -26q98 0 161.5 45t100.5 115t52.5 154t15.5 161q0 49 -8 127t-33 151t-71 126t-122 53q-53 0 -92 -43t-65.5 -108.5t-42 -145.5t-23.5 -154.5t-10 -134t-2 -84.5zM146 1456q0 35 19.5 62.5t58.5 27.5q35 0 58 -13t23 -52q0 -45 -29.5 -83t-76.5 -38q-18 0 -29.5 9 t-16.5 23.5t-6 32t-1 31.5zM416 1456q0 35 19.5 62.5t58.5 27.5q35 0 58.5 -13t23.5 -52q0 -45 -30 -83t-77 -38q-18 0 -29.5 9t-16.5 23.5t-6 32t-1 31.5z" />
<glyph unicode="&#xf7;" horiz-adv-x="1081" d="M56.5 705.5q15.5 23.5 66.5 35t127 12.5t153.5 -1t147.5 -5.5t108 1.5q18 0 77 2t122.5 -2.5t113.5 -16.5t50 -41q0 -23 -15.5 -31t-35.5 -8h-196t-239.5 -1t-243.5 -4t-208 -7q-43 43 -27.5 66.5zM410 899q0 35 12 70t34.5 62.5t54.5 45t69 17.5q23 0 36 -10.5t20 -27 t9 -34.5t2 -33q0 -31 -13 -58.5t-36 -49t-51.5 -34.5t-59.5 -13q-29 0 -53 17t-24 48zM438 389q0 23 7.5 54.5t22.5 61.5t36.5 50t52.5 20q25 0 46.5 -11t37.5 -28.5t26.5 -40t10.5 -42.5q2 -25 -14.5 -54.5t-42 -55.5t-53 -42t-46.5 -14q-47 0 -65.5 31.5t-18.5 70.5z" />
<glyph unicode="&#xf8;" horiz-adv-x="720" d="M49 336q0 43 1 117.5t9.5 160.5t26.5 174.5t51 160t85 116.5t128 45q104 0 168 -58.5t98.5 -143.5t46 -182t11.5 -173q0 -86 -24.5 -184.5t-76 -180.5t-128 -136t-183.5 -54q-68 0 -109.5 31.5t-65.5 82t-31 110t-7 114.5zM84 -39q0 18 8 34t20 32l361 1186 q4 12 28.5 34.5t46.5 22.5v-84q-12 -41 -38.5 -128t-59.5 -196.5t-69.5 -229.5t-69.5 -229.5t-58.5 -196.5t-37.5 -128q-6 -23 -9.5 -49.5t-8.5 -51t-18.5 -46t-41.5 -33.5q-6 4 -26.5 24.5t-24.5 26.5q-2 4 -2 6v6zM125 362q0 -43 2 -89t14.5 -83.5t41 -63.5t81.5 -26 q98 0 161.5 45t100.5 115t52.5 154t15.5 161q0 49 -8 127t-33 151t-71 126t-122 53q-53 0 -92 -43t-65.5 -108.5t-42 -145.5t-23.5 -154.5t-10 -134t-2 -84.5z" />
<glyph unicode="&#xf9;" horiz-adv-x="995" d="M62.5 417q-3.5 50 0.5 72q0 23 3.5 69t5.5 104.5t5 123t5 123t4 104.5t4 68q4 0 6 2q2 0 3 1t3 1q23 0 38.5 -19t25.5 -36q0 -20 -1 -64t-1 -100.5v-118v-118t1 -101.5t1 -65q2 -27 10 -84t22.5 -115.5t38 -105.5t58.5 -56q92 0 155.5 69t104.5 173.5t66.5 226t44 228 t33 179.5t34.5 79l53 -13l125 -860q12 -6 21.5 -19t17.5 -29.5t11.5 -31t3.5 -22.5q-4 -16 -27 -32.5t-39 -20.5h-6q-2 0 -6 2q-4 4 -12.5 18t-16.5 30.5t-14 32t-8 21.5q-8 23 -14.5 69t-13.5 103t-13.5 120.5t-11.5 122t-11 104.5t-12 69q-10 -53 -30.5 -123t-49.5 -146.5 t-68 -152.5t-87 -138.5t-105 -106.5t-125 -54q-41 -16 -76 8.5t-62.5 70.5t-47 107.5t-31.5 121t-15.5 109.5zM324 1757q4 2 12 5t12 5q18 4 36.5 -2t35 -18t32 -26.5t25.5 -26.5q12 -14 32.5 -39t43.5 -52.5t43 -53t33 -42.5q4 -6 9 -24.5t7 -24.5q4 -16 11.5 -42.5 t-17.5 -39.5l-33 19z" />
<glyph unicode="&#xfa;" horiz-adv-x="995" d="M62.5 417q-3.5 50 0.5 72q0 23 3.5 69t5.5 104.5t5 123t5 123t4 104.5t4 68q4 0 6 2q2 0 3 1t3 1q23 0 38.5 -19t25.5 -36q0 -20 -1 -64t-1 -100.5v-118v-118t1 -101.5t1 -65q2 -27 10 -84t22.5 -115.5t38 -105.5t58.5 -56q92 0 155.5 69t104.5 173.5t66.5 226t44 228 t33 179.5t34.5 79l53 -13l125 -860q12 -6 21.5 -19t17.5 -29.5t11.5 -31t3.5 -22.5q-4 -16 -27 -32.5t-39 -20.5h-6q-2 0 -6 2q-4 4 -12.5 18t-16.5 30.5t-14 32t-8 21.5q-8 23 -14.5 69t-13.5 103t-13.5 120.5t-11.5 122t-11 104.5t-12 69q-10 -53 -30.5 -123t-49.5 -146.5 t-68 -152.5t-87 -138.5t-105 -106.5t-125 -54q-41 -16 -76 8.5t-62.5 70.5t-47 107.5t-31.5 121t-15.5 109.5zM352.5 1402q6.5 28 10.5 44q2 8 6 26.5t8 24.5q12 16 30.5 43t39 55.5t39 54t30.5 40.5q8 12 22.5 27.5t30 27.5t32 19.5t32.5 2.5q4 -2 11.5 -5t11.5 -5 l-258 -377l-29 -18q-23 12 -16.5 40z" />
<glyph unicode="&#xfb;" horiz-adv-x="995" d="M62.5 417q-3.5 50 0.5 72q0 23 3.5 69t5.5 104.5t5 123t5 123t4 104.5t4 68q4 0 6 2q2 0 3 1t3 1q23 0 38.5 -19t25.5 -36q0 -20 -1 -64t-1 -100.5v-118v-118t1 -101.5t1 -65q2 -27 10 -84t22.5 -115.5t38 -105.5t58.5 -56q92 0 155.5 69t104.5 173.5t66.5 226t44 228 t33 179.5t34.5 79l53 -13l125 -860q12 -6 21.5 -19t17.5 -29.5t11.5 -31t3.5 -22.5q-4 -16 -27 -32.5t-39 -20.5h-6q-2 0 -6 2q-4 4 -12.5 18t-16.5 30.5t-14 32t-8 21.5q-8 23 -14.5 69t-13.5 103t-13.5 120.5t-11.5 122t-11 104.5t-12 69q-10 -53 -30.5 -123t-49.5 -146.5 t-68 -152.5t-87 -138.5t-105 -106.5t-125 -54q-41 -16 -76 8.5t-62.5 70.5t-47 107.5t-31.5 121t-15.5 109.5zM176 1308q14 31 39 86.5t49.5 116t47 116.5t36.5 89q8 20 11 44t9.5 43.5t18.5 31.5t41 12h12t10 -2l287 -350q51 14 66.5 -8.5t15.5 -53.5q0 -29 -16.5 -61.5 t-53.5 -32.5q-49 31 -85.5 72t-66.5 86t-53.5 89t-41.5 79q-6 6 -26.5 16t-25.5 10q-4 0 -13 -10t-11 -16l-199 -383q0 -2 -4 -2h-8q-27 -1 -39 28z" />
<glyph unicode="&#xfc;" horiz-adv-x="995" d="M62.5 417q-3.5 50 0.5 72q0 23 3.5 69t5.5 104.5t5 123t5 123t4 104.5t4 68q4 0 6 2q2 0 3 1t3 1q23 0 38.5 -19t25.5 -36q0 -20 -1 -64t-1 -100.5v-118v-118t1 -101.5t1 -65q2 -27 10 -84t22.5 -115.5t38 -105.5t58.5 -56q92 0 155.5 69t104.5 173.5t66.5 226t44 228 t33 179.5t34.5 79l53 -13l125 -860q12 -6 21.5 -19t17.5 -29.5t11.5 -31t3.5 -22.5q-4 -16 -27 -32.5t-39 -20.5h-6q-2 0 -6 2q-4 4 -12.5 18t-16.5 30.5t-14 32t-8 21.5q-8 23 -14.5 69t-13.5 103t-13.5 120.5t-11.5 122t-11 104.5t-12 69q-10 -53 -30.5 -123t-49.5 -146.5 t-68 -152.5t-87 -138.5t-105 -106.5t-125 -54q-41 -16 -76 8.5t-62.5 70.5t-47 107.5t-31.5 121t-15.5 109.5zM283 1456q0 35 19.5 62.5t58.5 27.5q35 0 58 -13t23 -52q0 -45 -29.5 -83t-76.5 -38q-18 0 -29.5 9t-16.5 23.5t-6 32t-1 31.5zM553 1456q0 35 19.5 62.5 t58.5 27.5q35 0 58.5 -13t23.5 -52q0 -45 -30 -83t-77 -38q-18 0 -29.5 9t-16.5 23.5t-6 32t-1 31.5z" />
<glyph unicode="&#xfd;" horiz-adv-x="1120" d="M39 940l51 51q20 -18 66.5 -55t104.5 -83t123 -96t123 -96.5t105 -82t70 -52.5q25 -16 67 -42.5t82.5 -51t72.5 -42t36 -17.5h27v26q0 29 3 86.5t5 131t5 155.5t5 155.5t4 131t2 86.5q8 23 35 29t45 6q0 -195 -5 -388.5t-11 -388t-10.5 -389t-0.5 -389.5 q-10 -16 -26.5 -34.5t-38.5 -18.5q-23 0 -31 22.5t-8 40.5q0 125 13.5 249t13.5 249q0 53 -31 92t-72 70q-115 84 -223.5 156.5t-210.5 147.5t-199.5 157t-191.5 184zM415.5 1402q6.5 28 10.5 44q2 8 6 26.5t8 24.5q12 16 30.5 43t39 55.5t39 54t30.5 40.5q8 12 22.5 27.5 t30 27.5t32 19.5t32.5 2.5q4 -2 11.5 -5t11.5 -5l-258 -377l-29 -18q-23 12 -16.5 40z" />
<glyph unicode="&#xfe;" horiz-adv-x="888" d="M29 1448q12 72 28.5 92.5t34 3t33.5 -64.5t28.5 -110.5t17.5 -136.5t-1 -138q8 2 23.5 5t33 8t33.5 8t23 5h12q92 0 187.5 -29.5t172 -86t124.5 -136.5t48 -180q0 -111 -50 -203t-131 -158.5t-182.5 -104.5t-201.5 -38q0 -63 11.5 -125.5t25.5 -125t25.5 -123 t11.5 -121.5q0 -16 -12.5 -27.5t-28.5 -11.5q-20 0 -32.5 17.5t-18.5 40t-9.5 44t-3.5 29.5q-6 31 -16 97.5t-22.5 150.5t-26.5 177t-26.5 177t-23 149.5t-14.5 98.5zM152 878.5q0 -14.5 1 -27.5t1 -25.5v-14.5q4 -37 11 -91t15 -112.5t16.5 -118t15.5 -106.5t12 -79t7 -34 q88 -23 179.5 9t165 96.5t121.5 151.5t53 178q0 82 -39 141t-99.5 98t-135.5 57.5t-146 18.5q-37 0 -69 -4t-56.5 -16.5t-38.5 -36t-14 -64.5v-20.5z" />
<glyph unicode="&#xff;" horiz-adv-x="1120" d="M39 940l51 51q20 -18 66.5 -55t104.5 -83t123 -96t123 -96.5t105 -82t70 -52.5q25 -16 67 -42.5t82.5 -51t72.5 -42t36 -17.5h27v26q0 29 3 86.5t5 131t5 155.5t5 155.5t4 131t2 86.5q8 23 35 29t45 6q0 -195 -5 -388.5t-11 -388t-10.5 -389t-0.5 -389.5 q-10 -16 -26.5 -34.5t-38.5 -18.5q-23 0 -31 22.5t-8 40.5q0 125 13.5 249t13.5 249q0 53 -31 92t-72 70q-115 84 -223.5 156.5t-210.5 147.5t-199.5 157t-191.5 184zM344 1456q0 35 19.5 62.5t58.5 27.5q35 0 58 -13t23 -52q0 -45 -29.5 -83t-76.5 -38q-18 0 -29.5 9 t-16.5 23.5t-6 32t-1 31.5zM614 1456q0 35 19.5 62.5t58.5 27.5q35 0 58.5 -13t23.5 -52q0 -45 -30 -83t-77 -38q-18 0 -29.5 9t-16.5 23.5t-6 32t-1 31.5z" />
<glyph unicode="&#x152;" horiz-adv-x="1816" d="M39 594v24q10 88 19.5 184.5t25.5 188.5t44 175t78 144.5t125 98.5t187 37q92 0 161 -39t119 -102.5t82.5 -146.5t52 -171t27 -174t7.5 -158q0 -117 -37 -234.5t-106.5 -211.5t-172 -152.5t-231.5 -58.5q-111 0 -184.5 60.5t-116.5 149.5t-61.5 193.5t-18.5 192.5z M113 598q0 -80 15 -171t53 -169t103.5 -130t166.5 -52q117 0 199.5 59.5t137 150.5t80 197.5t25.5 198.5q0 57 -6 131t-21.5 150.5t-42 149.5t-69.5 129t-103.5 91t-142.5 35q-84 0 -145.5 -40t-105.5 -105.5t-72.5 -148.5t-44 -168t-21.5 -166t-6 -142zM878 1122v283 q4 2 19.5 3t19.5 1q23 0 32 -9.5t13 -19.5t9 -19.5t22 -9.5q37 0 91 14.5t113.5 32t118 35t103.5 23.5h14q29 0 48.5 -11.5t19.5 -39.5q0 -4 -1 -12.5t-3 -12.5q-57 -4 -131 -12t-148 -28.5t-137.5 -53.5t-99.5 -86v-96.5t1 -161.5t7 -169t18 -116l567 234q47 -4 63.5 -11.5 t14.5 -17.5t-18.5 -23.5t-34.5 -25.5q-20 -10 -64.5 -29.5t-100.5 -45.5t-117.5 -53.5t-118 -53t-100.5 -46t-64 -30.5q-14 -2 -20.5 -13.5t-8.5 -26t-1 -27.5t1 -19q0 -66 15.5 -128.5t15.5 -127.5q0 -29 -19.5 -54.5t-66.5 -25.5zM1015 30q0 53 11.5 77t58.5 36l664 184 l30 -82q-20 -4 -62 -16t-95.5 -27.5t-111.5 -32t-112.5 -31.5t-96.5 -27.5t-62 -18.5q-53 -16 -76 -27.5t-40.5 -19.5t-38 -11.5t-69.5 -3.5z" />
<glyph unicode="&#x153;" horiz-adv-x="1212" d="M49 336q0 43 1 117.5t9.5 160.5t26.5 174.5t51 160t85 116.5t128 45q80 4 135.5 -20.5t92 -69.5t54 -106.5t21.5 -129.5q8 43 21.5 84t35 74t54.5 53.5t80 20.5q37 0 92 -24.5t106.5 -60.5t88 -77t36.5 -72q0 -16 -3 -29.5t-23 -21.5l-439 -153l-1 -10q-1 -11 -2 -24.5 t-2 -27.5t-1 -22q0 -43 7.5 -109t28 -127t59 -105t102.5 -44q23 0 41 10t34.5 21.5t33 21.5t38.5 10q0 -33 -15 -62.5t-39.5 -52t-55.5 -36t-62 -13.5q-55 0 -94 24.5t-67.5 65.5t-46 93.5t-29.5 107.5q-14 -61 -43 -116.5t-74 -97.5t-107.5 -65.5t-144.5 -21.5 q-68 0 -109.5 31.5t-65.5 82t-31 110t-7 114.5zM125 362q0 -43 2 -89t14.5 -83.5t41 -63.5t81.5 -26q90 0 150.5 39t99.5 99.5t56.5 136.5t21.5 149q-33 -6 -43 7.5t-6 35t17 45t30 35.5q-4 57 -16.5 124t-39 125t-68.5 97t-106 39q-53 0 -92 -43t-65.5 -108.5t-42 -145.5 t-23.5 -154.5t-10 -134t-2 -84.5zM723 698q35 0 79 5.5t86 17.5t75.5 33.5t48.5 54.5q-33 53 -62 81t-82 28q-41 0 -68.5 -22t-44 -54.5t-24.5 -71.5t-8 -72z" />
<glyph unicode="&#x178;" horiz-adv-x="1306" d="M-10 1501v8q0 14 10 26.5t27 12.5q0 -2 2 -2h4h6l975 -528q43 -8 69.5 -23.5t26.5 -62.5q0 -18 -5 -39t-34 -21h-10q-6 4 -19.5 14.5t-29 22t-28.5 21.5t-17 16l-975 551q-2 0 -2 4zM439 1866q0 35 19.5 62.5t58.5 27.5q35 0 58 -13t23 -52q0 -45 -29.5 -83t-76.5 -38 q-18 0 -29.5 9t-16.5 23.5t-6 32t-1 31.5zM709 1866q0 35 19.5 62.5t58.5 27.5q35 0 58.5 -13t23.5 -52q0 -45 -30 -83t-77 -38q-18 0 -29.5 9t-16.5 23.5t-6 32t-1 31.5zM1024 -184l170 1855q-25 49 3 73.5t69 24.5v-122l-160 -1872z" />
<glyph unicode="&#x2c6;" horiz-adv-x="978" d="M129 1599q14 31 39 86.5t49.5 116t47 116.5t36.5 89q8 20 11 44t9.5 43.5t18.5 31.5t41 12h12t10 -2l287 -350q51 14 66.5 -8.5t15.5 -53.5q0 -29 -16.5 -61.5t-53.5 -32.5q-49 31 -85.5 72t-66.5 86t-53.5 89t-41.5 79q-6 6 -26.5 16t-25.5 10q-4 0 -13 -10t-11 -16 l-199 -383q0 -2 -4 -2h-8q-27 -1 -39 28z" />
<glyph unicode="&#x2dc;" horiz-adv-x="1120" d="M145 1214q-6 59 9.5 118t49.5 104t85 70.5t117 19.5q57 0 103 -36t89 -78t90 -78t111 -36q53 0 87 26t57.5 55.5t42 55t42.5 25.5q0 -127 -68.5 -181t-173.5 -54q-74 0 -125 32.5t-92 70.5t-82 71t-92 33q-43 0 -71.5 -26t-47 -64.5t-27.5 -83t-13 -80.5 q-12 -10 -25.5 -18.5t-30.5 -8.5q-20 0 -27.5 22.5t-7.5 40.5z" />
<glyph unicode="&#x2000;" horiz-adv-x="1274" />
<glyph unicode="&#x2001;" horiz-adv-x="2548" />
<glyph unicode="&#x2002;" horiz-adv-x="1274" />
<glyph unicode="&#x2003;" horiz-adv-x="2548" />
<glyph unicode="&#x2004;" horiz-adv-x="849" />
<glyph unicode="&#x2005;" horiz-adv-x="637" />
<glyph unicode="&#x2006;" horiz-adv-x="424" />
<glyph unicode="&#x2007;" horiz-adv-x="424" />
<glyph unicode="&#x2008;" horiz-adv-x="318" />
<glyph unicode="&#x2009;" horiz-adv-x="509" />
<glyph unicode="&#x200a;" horiz-adv-x="141" />
<glyph unicode="&#x2010;" horiz-adv-x="1126" d="M80 909q0 18 4 47t29 37q51 8 117.5 13.5t137 9.5t138 7t119.5 7q4 0 31.5 1t62.5 2t69.5 1h55.5h44t66.5 -1t65.5 -2t43 -1q8 -4 18.5 -22.5t8.5 -28.5t-21.5 -29.5t-30.5 -21.5q-27 2 -81 3t-122.5 1h-144.5h-144.5t-122.5 -1t-81 -3q-43 -4 -89 -6t-89 -7 q-4 0 -16.5 -1t-25.5 -2t-25.5 -2t-16.5 -1z" />
<glyph unicode="&#x2011;" horiz-adv-x="1126" d="M80 909q0 18 4 47t29 37q51 8 117.5 13.5t137 9.5t138 7t119.5 7q4 0 31.5 1t62.5 2t69.5 1h55.5h44t66.5 -1t65.5 -2t43 -1q8 -4 18.5 -22.5t8.5 -28.5t-21.5 -29.5t-30.5 -21.5q-27 2 -81 3t-122.5 1h-144.5h-144.5t-122.5 -1t-81 -3q-43 -4 -89 -6t-89 -7 q-4 0 -16.5 -1t-25.5 -2t-25.5 -2t-16.5 -1z" />
<glyph unicode="&#x2012;" horiz-adv-x="1126" d="M80 909q0 18 4 47t29 37q51 8 117.5 13.5t137 9.5t138 7t119.5 7q4 0 31.5 1t62.5 2t69.5 1h55.5h44t66.5 -1t65.5 -2t43 -1q8 -4 18.5 -22.5t8.5 -28.5t-21.5 -29.5t-30.5 -21.5q-27 2 -81 3t-122.5 1h-144.5h-144.5t-122.5 -1t-81 -3q-43 -4 -89 -6t-89 -7 q-4 0 -16.5 -1t-25.5 -2t-25.5 -2t-16.5 -1z" />
<glyph unicode="&#x2013;" horiz-adv-x="1394" d="M98 918q0 18 4 46.5t29 36.5q33 6 93.5 9.5t134 5.5t153.5 4t153.5 3t133 3t94.5 4q4 0 31.5 1t62.5 2t70 1h55h44t66.5 -1t65.5 -2t43 -1q8 -4 18.5 -22.5t8.5 -28.5t-21.5 -29.5t-29.5 -21.5q-27 2 -81.5 3t-123 1h-144h-144.5t-123 -1t-81 -3q-14 -2 -48 -2h-76h-90 h-90h-75.5t-48.5 -2q-4 0 -16 -1t-25.5 -2t-26 -2t-16.5 -1z" />
<glyph unicode="&#x2014;" horiz-adv-x="1433" d="M80 909q0 18 4 47t29 37q51 8 117.5 13.5t137 9.5t138 7t119.5 7q2 0 38.5 2t91 5t119 6.5t122 6.5t100.5 5t57 2h44t66.5 -1t65.5 -2t43 -1q8 -4 18.5 -22.5t8.5 -29.5q-2 -10 -21.5 -29.5t-29.5 -21.5q-27 2 -104 1t-180 -3t-219 -5t-219.5 -6t-180 -5t-103.5 -4 q-43 -4 -89 -6t-89 -7q-4 0 -16.5 -1t-25.5 -2t-25.5 -2t-16.5 -1z" />
<glyph unicode="&#x2018;" horiz-adv-x="219" d="M49 1321q18 0 45 -5t35 -28q8 -57 14.5 -101t8.5 -85t3 -83t1 -93v-24.5t-1 -39t-1 -39v-24.5q-14 -29 -39 -29q-20 0 -27.5 15t-9.5 38q-2 27 -5 92.5t-8.5 140t-8.5 140.5t-5 92q0 2 -1 15.5t-1 17.5z" />
<glyph unicode="&#x2019;" horiz-adv-x="219" d="M49 1321q18 0 45 -5t35 -28q8 -57 14.5 -101t8.5 -85t3 -83t1 -93v-24.5t-1 -39t-1 -39v-24.5q-14 -29 -39 -29q-20 0 -27.5 15t-9.5 38q-2 27 -5 92.5t-8.5 140t-8.5 140.5t-5 92q0 2 -1 15.5t-1 17.5z" />
<glyph unicode="&#x201a;" horiz-adv-x="645" d="M238 303q18 0 44.5 -5t34.5 -28q8 -57 14.5 -101t8.5 -85t3 -83t1 -93v-24.5t-1 -39t-1 -39v-24.5q-14 -29 -39 -29q-20 0 -27.5 15t-9.5 38q-2 27 -5 92.5t-8 140.5t-8 140.5t-5 91.5q0 2 -1 15.5t-1 17.5z" />
<glyph unicode="&#x201c;" horiz-adv-x="387" d="M39 1559v16q0 14 3.5 20.5t23.5 16.5q6 6 20 -17.5t28.5 -60.5t27 -83t15.5 -85t-5.5 -65.5t-34.5 -26.5q-16 0 -30.5 3t-20.5 26zM172 1589q10 23 35 23q33 0 55.5 -36t36.5 -82t19.5 -91t5.5 -64q0 -23 -17.5 -32t-38.5 -9q-31 0 -45 15z" />
<glyph unicode="&#x201d;" horiz-adv-x="387" d="M39 1559v16q0 14 3.5 20.5t23.5 16.5q6 6 20 -17.5t28.5 -60.5t27 -83t15.5 -85t-5.5 -65.5t-34.5 -26.5q-16 0 -30.5 3t-20.5 26zM172 1589q10 23 35 23q33 0 55.5 -36t36.5 -82t19.5 -91t5.5 -64q0 -23 -17.5 -32t-38.5 -9q-31 0 -45 15z" />
<glyph unicode="&#x201e;" horiz-adv-x="387" d="M53 76v16q0 14 3.5 20.5t23.5 16.5q6 6 20.5 -17.5t28.5 -60.5t26.5 -83t15.5 -85t-5 -65.5t-35 -26.5q-16 0 -30.5 3t-20.5 26zM186 106q10 23 35 23q33 0 55.5 -36t37 -82t19.5 -91t5 -63q0 -23 -17.5 -32t-37.5 -9q-31 0 -45 14z" />
<glyph unicode="&#x2022;" horiz-adv-x="509" d="M111 549q0 55 34.5 97t102.5 42q63 0 104 -20.5t41 -79.5q0 -35 -14 -69t-39 -59.5t-59.5 -42t-75.5 -16.5q-35 0 -53.5 14.5t-27.5 37t-11 48t-2 48.5z" />
<glyph unicode="&#x2026;" horiz-adv-x="811" d="M49 92q0 35 19.5 62.5t58.5 27.5q35 0 58.5 -13t23.5 -52q0 -45 -29.5 -83t-77.5 -38q-18 0 -29.5 9t-16.5 23.5t-6 32t-1 31.5zM319 92q0 35 19.5 62.5t58.5 27.5q35 0 58.5 -13t23.5 -52q0 -45 -29.5 -83t-76.5 -38q-18 0 -29.5 9t-16.5 23.5t-6.5 32t-1.5 31.5z M590 92q0 35 19.5 62.5t58.5 27.5q35 0 58.5 -13t23.5 -52q0 -45 -30 -83t-77 -38q-18 0 -29.5 9t-16.5 23.5t-6 32t-1 31.5z" />
<glyph unicode="&#x202f;" horiz-adv-x="509" />
<glyph unicode="&#x2039;" horiz-adv-x="862" d="M79 532.5q1 18.5 5 30.5q14 53 79.5 109.5t143.5 121t148.5 140.5t97.5 170q2 0 6 -1t6 -1q33 -10 29 -37t-10 -49q-6 -20 -10.5 -34.5t-10.5 -27t-15 -26t-24 -31.5q-16 -18 -59 -64.5t-90 -96.5t-90 -95t-62 -61q4 -4 17.5 -12.5t29 -16.5t28.5 -15.5t17 -9.5 q27 -12 94.5 -41.5t144.5 -63.5t144.5 -63.5t94.5 -40.5q20 -12 19 -26.5t-5 -30.5q-12 -53 -66 -37q-23 6 -37 15.5t-32 31.5l-574 236q-20 8 -19 26.5z" />
<glyph unicode="&#x203a;" horiz-adv-x="819" d="M18 952h78l28 -20q28 -21 73 -54.5t100 -75.5t112.5 -85t109.5 -83t91 -69q16 -12 22.5 -17t6.5 -22q0 -2 -1 -3t-1 -3v-6q-4 -8 -13.5 -27.5t-13.5 -23.5l-334 -387q-4 -2 -6 -2h-6q-29 0 -36 21t-7 44q0 6 1 20.5t3 18.5q12 12 45 46t70 71t70.5 69.5t46.5 47.5l15 20 t17.5 24.5t13.5 21.5l5 9z" />
<glyph unicode="&#x205f;" horiz-adv-x="637" />
<glyph unicode="&#x20ac;" horiz-adv-x="1316" d="M51 891q27 104 55.5 218t80 219.5t134 196.5t220.5 152q23 8 44 15.5t46 11.5q20 0 43.5 -9t23.5 -32q0 -2 -1 -4t-1 -4v-4q-37 -37 -99 -70t-125.5 -68.5t-117 -77.5t-71.5 -96q-8 -23 -23.5 -72.5t-32 -103t-30 -98.5t-17.5 -59q0 -2 -1 -12.5t-1 -14.5t1 -13.5 t1 -13.5q53 25 113.5 43.5t120.5 18.5q0 -43 -5.5 -62.5t-17.5 -26.5t-31.5 -10.5t-50.5 -13.5q-18 -6 -44.5 -17.5t-51.5 -23.5t-42 -22.5t-17 -12.5v-45q66 0 123 10.5t118 10.5q0 -49 -38 -75t-83 -46.5t-82.5 -44t-37.5 -66.5q0 -94 35.5 -179t97 -149.5t143.5 -103.5 t174 -39q96 0 193.5 20.5t175.5 69t127 125t49 189.5l49 -15q0 -133 -49 -222t-131 -142t-189.5 -76.5t-226.5 -23.5q-125 0 -214 35.5t-150.5 99t-98.5 147.5t-56.5 180.5t-25.5 200t-6 205.5z" />
<glyph unicode="&#x2122;" horiz-adv-x="2555" d="M25 1339q0 16 3 31.5t25 20.5l436 104q-6 49 7.5 64.5t42.5 15.5q37 0 63.5 -15.5t65.5 -15.5q100 0 198.5 17.5t195.5 38t194.5 38t195.5 17.5v-21.5t-2 -34t-10 -34t-23 -19.5q-23 -2 -71 -7t-109 -12t-128 -16.5t-128 -16.5t-110.5 -14t-71.5 -12q-20 -4 -51 -11 t-60 -15t-49.5 -15.5t-20.5 -9.5v-26l127 -1344v-16v-11q-2 -4 -10 -10t-21.5 -9t-30.5 0t-40 19q-4 156 -9 323t-15.5 336t-28 336t-47.5 324q-8 37 -15.5 46.5t-33.5 9.5q-53 0 -103.5 -17.5t-99.5 -37t-98.5 -37t-102.5 -17.5q-31 0 -48 9.5t-17 43.5zM1143 1333v8 q0 2 2 7l12 18t16.5 24.5t14.5 22.5t8 10q14 8 41 17q12 4 25 4v-123l372 -721l27 27q6 20 23.5 75.5t37 117t39 116.5t27.5 76q6 14 32.5 71.5t57.5 122t58.5 121.5t33.5 72q6 12 9 38.5t11.5 52.5t24 45t43.5 19q4 0 8.5 -1t6.5 -1q10 -4 29.5 -13t21.5 -11l309 -1288 q2 -6 10 -20.5t16.5 -31t15.5 -31t9 -20.5q0 -2 1 -6t1 -8q0 -27 -12 -47.5t-41 -20.5q-23 0 -38 10.5t-13 45.5q-8 39 -25.5 119.5t-40 182t-48 214t-48 214t-42 181.5t-28.5 119q-4 14 -14 47t-22.5 69.5t-23.5 69.5t-17 45q-143 -211 -236.5 -458.5t-150.5 -493.5 q-4 -2 -19.5 -3t-19.5 -1q-35 0 -59.5 36.5t-41 84t-27 89.5t-14.5 52q-12 27 -45 92.5t-69.5 139t-69.5 140t-47 91.5v-25v-26q4 -41 11 -128.5t17.5 -197t21.5 -229t21.5 -229t18.5 -196.5t12 -128q12 -37 19.5 -66t7.5 -63q0 -20 -8.5 -37t-30.5 -17q-25 0 -37 23.5 t-18 51.5t-8.5 52.5t-2.5 28.5q-33 307 -50 607t-52 605q-2 14 -10 37t-17.5 46.5t-17.5 45t-8 37.5z" />
<glyph unicode="&#xe000;" horiz-adv-x="1126" d="M0 0v1126h1126v-1126h-1126z" />
<glyph unicode="&#xfb01;" horiz-adv-x="1241" d="M25 686v6q0 2 2 4l335 103q8 147 0 288.5t0.5 262t50.5 213t150 139.5q25 0 54.5 -7t55 -21.5t43 -37t17.5 -53.5q-96 0 -153.5 -33.5t-86 -90t-35.5 -130.5t-4 -154.5t11 -162.5t8 -156q76 0 148.5 15.5t145.5 34t145.5 33.5t146.5 15q53 0 53 -53q0 -20 -38 -34.5 t-98.5 -28t-134 -24.5t-145 -24.5t-134 -30t-97.5 -38.5q-10 -84 -1 -167t26.5 -166t34 -164t18.5 -161q0 -18 -8.5 -41.5t-30.5 -23.5q-16 0 -27.5 13.5t-19.5 29.5t-12.5 33.5t-6.5 27.5q-16 82 -29.5 154t-22.5 141.5t-15 142t-9 156.5h-14q-35 0 -65.5 -12t-62.5 -27.5 t-64.5 -28t-67.5 -12.5q-63 0 -63 70zM908 1509q49 0 72.5 -12t23.5 -59q0 -16 -2 -38t-27 -28q-43 16 -55 57t-12 80zM947 928v84q12 0 29.5 -9.5t21.5 -23.5l155 -772q27 -41 39.5 -65.5t12.5 -63.5q0 -20 -6.5 -50t-32.5 -30h-7.5t-5.5 2q-10 6 -30.5 26.5t-22.5 24.5z " />
<glyph unicode="&#xfb02;" horiz-adv-x="1232" d="M25 686v6q0 2 2 4l335 103q8 147 0 288.5t0.5 262t50.5 213t150 139.5q25 0 54.5 -7t55 -21.5t43 -37t17.5 -53.5q-96 0 -153.5 -33.5t-86 -90t-35.5 -130.5t-4 -154.5t11 -162.5t8 -156q76 0 148.5 15.5t145.5 34t145.5 33.5t146.5 15q53 0 53 -53q0 -20 -38 -34.5 t-98.5 -28t-134 -24.5t-145 -24.5t-134 -30t-97.5 -38.5q-10 -84 -1 -167t26.5 -166t34 -164t18.5 -161q0 -18 -8.5 -41.5t-30.5 -23.5q-16 0 -27.5 13.5t-19.5 29.5t-12.5 33.5t-6.5 27.5q-16 82 -29.5 154t-22.5 141.5t-15 142t-9 156.5h-14q-35 0 -65.5 -12t-62.5 -27.5 t-64.5 -28t-67.5 -12.5q-63 0 -63 70zM990 1585v29q0 51 51 51q4 0 13 -1t13 -1q12 -195 23.5 -373t23 -353t24.5 -351t32 -367q25 -25 27 -57.5t2 -62.5q0 -16 -1.5 -36t-8.5 -37.5t-20 -28.5t-38 -11q-20 0 -27.5 15t-11.5 38q-4 57 -11 178t-17.5 273.5t-21.5 321.5 t-21.5 321.5t-18.5 273.5t-12 178z" />
</font>
</defs>
</svg>
